<svg width="160" height="90" viewBox="0 0 160 90" fill="none" xmlns="http://www.w3.org/2000/svg">
<mask id="mask0_1194_611" style="mask-type:alpha" maskUnits="userSpaceOnUse" x="0" y="0" width="160" height="90">
<rect width="160" height="90" fill="#C4C4C4"/>
</mask>
<g mask="url(#mask0_1194_611)">
<path d="M23.5366 30.2646C23.6072 30.0831 23.6643 29.9537 23.7046 29.8193C24.5503 27.3126 25.3943 24.8053 26.2365 22.2975C26.5574 21.3432 26.8733 20.3856 27.2043 19.4413C27.2916 19.1739 27.4094 18.9174 27.5554 18.6769C27.7422 18.3712 28.003 18.1174 28.3136 17.9389C28.6242 17.7604 28.9748 17.6629 29.333 17.6554C29.501 17.6554 29.6824 17.6453 29.8572 17.6554C30.2352 17.658 30.6061 17.7593 30.9329 17.9494C31.2597 18.1395 31.5312 18.4117 31.7204 18.7391C31.8544 18.9713 31.9625 19.2175 32.043 19.4733C33.2235 22.9287 34.3996 26.3863 35.5712 29.8462C35.6115 29.9605 35.6518 30.073 35.6905 30.1822C35.8299 30.1705 35.8215 30.0579 35.8484 29.9789C36.2438 28.8085 36.6358 27.6374 37.0245 26.4658C37.8085 24.1238 38.5926 21.7812 39.3766 19.438C39.449 19.207 39.5401 18.9822 39.6488 18.7659C39.9006 18.2899 40.3216 17.9254 40.8289 17.7444C41.3361 17.5634 41.8927 17.579 42.389 17.7881C42.8158 17.945 43.1721 18.2499 43.3929 18.6474C43.6137 19.0449 43.6843 19.5085 43.592 19.9538C43.5479 20.2041 43.4827 20.4503 43.3971 20.6897C41.7058 25.2607 40.0106 29.8311 38.3114 34.401C38.2119 34.6793 38.0853 34.9471 37.9334 35.2007C37.7225 35.571 37.4141 35.8764 37.0417 36.0837C36.6694 36.2911 36.2474 36.3924 35.8215 36.3768C35.6339 36.3808 35.4462 36.3696 35.2604 36.3432C34.899 36.2912 34.5556 36.1524 34.2595 35.9388C33.9634 35.7253 33.7235 35.4432 33.5601 35.1167C33.4445 34.8894 33.3467 34.6535 33.2678 34.411C32.0995 31.0352 30.9363 27.6593 29.7782 24.2834C29.7498 24.1275 29.6815 23.9816 29.5799 23.86C29.5329 23.9793 29.4859 24.0835 29.4489 24.196C28.2717 27.5966 27.0956 30.9971 25.9207 34.3976C25.852 34.6154 25.7684 34.8281 25.6704 35.0344C25.2218 35.9147 24.5044 36.3784 23.5081 36.3902C23.3069 36.3961 23.1057 36.3843 22.9066 36.3549C22.5794 36.3065 22.2669 36.1863 21.9916 36.003C21.7163 35.8198 21.4848 35.5779 21.3139 35.2948C21.1722 35.0664 21.054 34.8244 20.961 34.5723C19.2496 29.9532 17.5437 25.3391 15.8434 20.73C15.7652 20.5013 15.6996 20.2686 15.6469 20.0327C15.3915 18.9642 16.0669 17.894 17.2799 17.6806C17.5981 17.6205 17.9253 17.6268 18.2409 17.6991C18.757 17.8169 19.2077 18.1293 19.4993 18.5711C19.6691 18.8313 19.8015 19.114 19.8925 19.4111C20.9005 22.4554 21.9148 25.4998 22.9352 28.5441C23.0931 29.0168 23.2516 29.4878 23.4106 29.9571C23.4392 30.0428 23.4795 30.1268 23.5366 30.2646Z" fill="#F9F9F9"/>
<path d="M111.261 20.6612C111.411 20.4797 111.52 20.3453 111.631 20.2126C112.147 19.574 112.765 19.024 113.459 18.5846C114.378 18.0143 115.425 17.6807 116.505 17.6135C117.442 17.5355 118.386 17.6156 119.297 17.8504C121.481 18.4333 122.887 19.811 123.575 21.9498C123.825 22.7433 123.951 23.5708 123.948 24.4027C123.958 27.6689 123.948 30.9367 123.948 34.2028C123.968 34.6851 123.817 35.1592 123.522 35.5413C123.227 35.9234 122.807 36.189 122.335 36.2911C122.022 36.372 121.695 36.3854 121.376 36.3304C121.058 36.2753 120.754 36.1531 120.487 35.9719C120.224 35.8049 120.006 35.577 119.85 35.3077C119.695 35.0383 119.606 34.7353 119.593 34.4245C119.583 34.2565 119.593 34.102 119.593 33.9407C119.593 31.2928 119.593 28.645 119.593 25.9972C119.609 25.3781 119.538 24.7599 119.381 24.1608C119.318 23.9411 119.241 23.7257 119.151 23.5157C118.953 23.0419 118.649 22.62 118.262 22.2826C117.875 21.9453 117.416 21.7014 116.92 21.5701C115.986 21.2958 114.993 21.3028 114.064 21.5903C112.669 22.0271 111.809 22.9931 111.414 24.3876C111.282 24.868 111.219 25.3647 111.228 25.8628C111.228 26.5751 111.228 27.2875 111.228 27.9998C111.228 30.016 111.228 32.0321 111.228 34.0482C111.229 34.2098 111.221 34.3714 111.204 34.5321C111.149 34.987 110.945 35.4108 110.623 35.7366C110.3 36.0624 109.879 36.2717 109.425 36.3315C108.916 36.4288 108.39 36.3456 107.936 36.0962C107.623 35.937 107.358 35.6977 107.168 35.4025C106.977 35.1074 106.868 34.767 106.853 34.4161C106.853 34.2817 106.853 34.1473 106.853 34.0129V11.346C106.853 11.2251 106.853 11.1041 106.853 10.9831C106.871 10.5146 107.05 10.0668 107.36 9.71464C107.669 9.36253 108.091 9.12762 108.553 9.04933C109.004 8.95253 109.474 8.99893 109.897 9.18206C110.276 9.32874 110.603 9.5845 110.837 9.91703C111.071 10.2496 111.201 10.6439 111.211 11.0503C111.211 11.1696 111.211 11.2923 111.211 11.4132C111.211 13.725 111.211 17.8504 111.211 20.1622C111.196 20.3302 111.213 20.4995 111.261 20.6612Z" fill="#F9F9F9"/>
<path d="M49.8486 28.3571C50.1376 30.6084 51.6968 32.3389 53.8456 32.7993C55.8853 33.2344 57.7653 32.8312 59.4739 31.6333C59.6268 31.5258 59.773 31.4048 59.9293 31.2973C60.1957 31.1105 60.509 31.0021 60.8339 30.9843C61.1587 30.9665 61.4821 31.04 61.7673 31.1965C62.1507 31.3895 62.4437 31.7244 62.584 32.1301C62.7242 32.5358 62.7006 32.9802 62.5183 33.3688C62.3789 33.6606 62.1736 33.916 61.9185 34.1148C60.789 35.0565 59.4556 35.722 58.024 36.0587C55.9894 36.5615 53.8554 36.4917 51.8581 35.857C49.5227 35.101 47.7233 33.6729 46.5489 31.4888C45.9919 30.4425 45.6438 29.2978 45.5241 28.1185C45.3132 26.4704 45.5171 24.7957 46.1171 23.2462C47.31 20.2708 49.4538 18.3504 52.5839 17.6044C54.3993 17.1619 56.305 17.2642 58.0627 17.8985C60.5543 18.7872 62.2276 20.5312 63.1971 22.9724C63.5749 23.938 63.7873 24.9603 63.8254 25.9965C63.8375 26.2376 63.8234 26.4793 63.7834 26.7173C63.714 27.1104 63.5243 27.4723 63.2406 27.7531C62.9568 28.0338 62.5929 28.2196 62.1991 28.2848C61.9602 28.323 61.7185 28.3409 61.4766 28.3386C57.7692 28.3386 54.0612 28.3386 50.3527 28.3386C50.1931 28.3453 50.0351 28.3537 49.8486 28.3571ZM59.5563 25.5244C59.5328 25.3564 59.5193 25.2304 59.4958 25.0994C59.3568 24.1938 59.005 23.3342 58.4692 22.591C57.9052 21.8116 57.0958 21.2442 56.1709 20.9798C55.6795 20.8391 55.1697 20.7739 54.6588 20.7865C53.9303 20.7824 53.2114 20.9522 52.5618 21.2818C51.9122 21.6114 51.3507 22.0914 50.9239 22.6817C50.3517 23.4659 49.975 24.3754 49.8251 25.3346C49.8201 25.3994 49.8201 25.4646 49.8251 25.5295C49.8652 25.5479 49.9076 25.5609 49.9511 25.5681C53.1041 25.5681 56.2571 25.5681 59.4101 25.5681C59.4603 25.5591 59.5094 25.5445 59.5563 25.5244V25.5244Z" fill="#F9F9F9"/>
<path d="M78.5201 33.8454C78.4445 33.9176 78.3689 33.9882 78.295 34.0621C77.1575 35.2249 75.676 35.9907 74.0696 36.2462C72.6183 36.5057 71.126 36.413 69.7181 35.9757C69.0091 35.7618 68.3424 35.427 67.7473 34.9862C67.1157 34.5343 66.5979 33.9418 66.2345 33.2554C65.8712 32.569 65.6725 31.8076 65.6539 31.0312C65.6129 30.3319 65.6884 29.6307 65.8774 28.9563C66.184 27.9177 66.8247 27.0094 67.7003 26.3723C68.4878 25.8054 69.3797 25.4 70.3246 25.1794C71.4898 24.904 72.6864 24.7842 73.8831 24.8232C75.376 24.838 76.8599 25.0573 78.2933 25.4751C78.3974 25.5006 78.5029 25.5202 78.6092 25.5339C78.6475 25.3568 78.6571 25.1747 78.6378 24.9946C78.6313 24.5237 78.552 24.0567 78.4025 23.6102C78.1451 22.8377 77.6049 22.1913 76.8904 21.8007C76.3222 21.4908 75.698 21.2972 75.0541 21.2312C73.3544 21.0393 71.6333 21.2252 70.0138 21.7755C69.7257 21.887 69.4229 21.956 69.1149 21.9805C68.6255 22.0125 68.143 21.8515 67.7709 21.5319C67.46 21.2696 67.2562 20.9022 67.1983 20.4996C67.1404 20.097 67.2323 19.6871 67.4567 19.3478C67.6832 18.9937 68.0223 18.7262 68.4194 18.5884C69.2772 18.2727 70.1586 18.0255 71.0555 17.8491C72.297 17.6123 73.5603 17.5081 74.8239 17.5383C76.0079 17.5443 77.184 17.7307 78.3118 18.0911C79.4406 18.4557 80.4488 19.1207 81.2285 20.0148C81.9005 20.8082 82.3693 21.7533 82.5944 22.7685C82.751 23.4073 82.8372 24.0614 82.8514 24.7191C82.8514 24.9341 82.8514 25.1492 82.8514 25.3642V33.9142C82.8514 33.9949 82.8514 34.0823 82.8514 34.1562C82.8851 34.9962 82.3088 35.9152 81.1713 36.132C80.6256 36.2478 80.0565 36.1681 79.5635 35.9068C78.9335 35.5708 78.5823 35.0466 78.5806 34.3158V33.8773L78.5201 33.8454ZM78.6646 28.1851C78.5168 28.133 78.3437 28.0675 78.1606 28.0171C76.8715 27.6308 75.529 27.4527 74.1838 27.4895C73.7545 27.5018 73.3263 27.5411 72.9019 27.6072C72.3551 27.6832 71.8274 27.861 71.3461 28.1313C70.338 28.7026 69.862 29.5684 69.918 30.7288C69.9307 31.0793 70.0213 31.4227 70.1832 31.7339C70.345 32.0452 70.5741 32.3165 70.8538 32.5282C71.2452 32.8379 71.7011 33.0561 72.1878 33.1666C73.6638 33.528 75.2199 33.356 76.5813 32.6811C77.0046 32.4735 77.3888 32.1945 77.7171 31.8561C78.1897 31.3907 78.5121 30.7944 78.6428 30.1441C78.7402 29.5206 78.7588 28.8872 78.6982 28.259C78.6882 28.2473 78.6882 28.2321 78.6562 28.1851H78.6646Z" fill="#F9F9F9"/>
<path d="M135.125 30.8148C135.183 30.6888 135.24 30.5712 135.293 30.4486C136.859 26.7356 138.405 23.0158 139.848 19.2524C139.966 18.91 140.129 18.5851 140.334 18.2863C140.599 17.891 140.999 17.606 141.459 17.4849C141.772 17.3958 142.1 17.3786 142.42 17.4344C142.741 17.4903 143.044 17.6178 143.308 17.8075C143.572 17.9847 143.786 18.227 143.929 18.511C144.072 18.795 144.139 19.1111 144.124 19.4288C144.108 19.8593 144.007 20.2824 143.827 20.6737C142.787 23.0461 141.764 25.4301 140.715 27.8007C138.578 32.6411 136.572 37.5453 134.521 42.4176C134.464 42.5537 134.408 42.6915 134.339 42.8208C134.144 43.1781 133.843 43.4659 133.477 43.6444C133.112 43.8229 132.699 43.8832 132.298 43.8171C131.916 43.7675 131.557 43.6041 131.268 43.3483C130.98 43.0925 130.775 42.756 130.68 42.3823C130.587 41.9886 130.626 41.5751 130.792 41.2063C131.129 40.4015 131.465 39.595 131.801 38.7903C132.179 37.8847 132.547 36.9758 132.943 36.0786C133.008 35.9403 133.039 35.7887 133.035 35.636C133.03 35.4833 132.989 35.3339 132.916 35.1999C130.66 30.3982 128.411 25.5931 126.169 20.7846C126.045 20.531 125.94 20.2688 125.855 20C125.493 18.7702 126.286 17.6227 127.555 17.4429C127.755 17.4191 127.957 17.4146 128.158 17.4295C128.441 17.4411 128.718 17.5162 128.969 17.6491C129.219 17.7819 129.436 17.9693 129.605 18.1973C129.797 18.4554 129.955 18.7379 130.073 19.0373C130.554 20.1764 131.035 21.315 131.517 22.453C132.648 25.1243 133.779 27.7957 134.909 30.4671C134.957 30.583 134.978 30.7275 135.125 30.8148Z" fill="#F9F9F9"/>
<path d="M98.8171 21.6202C98.8053 21.7596 98.7919 21.8504 98.7919 21.9411C98.7919 24.683 98.7919 27.4272 98.7919 30.1736C98.7955 30.3754 98.8118 30.5769 98.8406 30.7767C98.8758 31.183 99.0459 31.5659 99.3239 31.8643C99.6019 32.1627 99.9717 32.3595 100.375 32.4232C100.796 32.513 101.231 32.5301 101.658 32.4736C101.826 32.4484 102.004 32.4266 102.177 32.4148C102.467 32.3877 102.759 32.4315 103.027 32.5424C103.296 32.6534 103.534 32.8281 103.72 33.0516C103.96 33.319 104.104 33.6596 104.128 34.0185C104.151 34.3774 104.054 34.7339 103.851 35.0307C103.606 35.4061 103.234 35.681 102.804 35.8053C102.189 36.0003 101.555 36.1293 100.912 36.19C99.8948 36.2961 98.8668 36.2268 97.8729 35.985C97.7049 35.9414 97.5369 35.8876 97.3689 35.8288C96.7694 35.6229 96.2273 35.2778 95.7869 34.8219C95.3465 34.3661 95.0204 33.8124 94.8353 33.2062C94.6413 32.6177 94.5283 32.0056 94.4992 31.3866C94.4875 31.1716 94.4892 30.9565 94.4892 30.7414C94.4892 24.7737 94.4892 17.2948 94.4892 11.3271C94.4818 11.1122 94.4964 10.8971 94.5329 10.6853C94.5951 10.353 94.7404 10.0418 94.9551 9.78071C95.1698 9.51958 95.447 9.31696 95.761 9.19165C96.1817 9.00384 96.6511 8.95389 97.1019 9.04894C97.5528 9.144 97.962 9.37919 98.2711 9.72088C98.5864 10.0586 98.769 10.499 98.7852 10.9608C98.7852 11.0952 98.7852 11.2296 98.7852 11.364V17.351C98.7852 17.4972 98.7936 17.6417 98.8003 17.8131C98.907 17.8319 99.0147 17.8443 99.1229 17.85C99.8218 17.85 100.521 17.85 101.218 17.85C101.433 17.8453 101.647 17.8645 101.858 17.9072C102.631 18.0853 103.155 18.549 103.347 19.3268C103.435 19.6902 103.408 20.072 103.271 20.4198C103.133 20.7675 102.892 21.0642 102.579 21.269C102.232 21.5049 101.822 21.6281 101.403 21.6219C100.69 21.6219 99.9781 21.6219 99.2657 21.6219L98.8171 21.6202Z" fill="#F9F9F9"/>
<path d="M90.8563 23.6571C90.8563 27.0845 90.8563 30.5119 90.8563 33.9393C90.8563 34.1073 90.8563 34.2888 90.8445 34.4618C90.8096 34.9362 90.6117 35.3838 90.2843 35.7289C89.957 36.074 89.5204 36.2953 89.0485 36.3553C88.5404 36.4491 88.0154 36.3635 87.5633 36.1133C87.2469 35.9455 86.9803 35.6971 86.7906 35.3933C86.6009 35.0894 86.4948 34.7409 86.483 34.3828C86.483 34.2619 86.483 34.1409 86.483 34.0199C86.483 27.0845 86.483 18.3361 86.483 11.4018C86.4795 11.2007 86.4913 10.9996 86.5183 10.8003C86.5819 10.3713 86.7791 9.97335 87.082 9.66297C87.3848 9.35258 87.7778 9.1456 88.2051 9.07148C88.5032 9.0091 88.8109 9.00745 89.1096 9.06663C89.4084 9.1258 89.6922 9.24459 89.944 9.4159C90.1997 9.58011 90.4141 9.80103 90.5706 10.0615C90.727 10.322 90.8214 10.6151 90.8462 10.9179C90.8614 11.0859 90.863 11.2674 90.863 11.4421C90.8608 14.9098 90.8586 20.1905 90.8563 23.6571Z" fill="#F9F9F9"/>
<path d="M22.6091 65.0406V73.2988H17.7046V49.2455H27.8741C30.6389 49.2455 32.8026 49.8826 34.3653 51.1568C35.928 52.431 36.7093 54.3663 36.7093 56.9628C36.7093 59.5592 35.928 61.5546 34.3653 62.949C32.8026 64.3434 30.6389 65.0406 27.8741 65.0406H22.6091ZM22.6091 61.1099H27.2611C28.0785 61.1099 28.7637 61.0137 29.3166 60.8214C29.8696 60.605 30.3023 60.3165 30.6148 59.9559C30.9274 59.5712 31.1437 59.1505 31.264 58.6937C31.4082 58.2369 31.4803 57.7441 31.4803 57.2152C31.4803 56.6622 31.4082 56.1453 31.264 55.6645C31.1437 55.1837 30.9274 54.751 30.6148 54.3663C30.3023 53.9816 29.8696 53.6931 29.3166 53.5008C28.7637 53.2844 28.0785 53.1762 27.2611 53.1762H22.6091V61.1099ZM47.7231 73.8398C46.7134 73.8398 45.7518 73.7436 44.8382 73.5513C43.9246 73.3589 43.1072 73.0464 42.386 72.6137C41.6647 72.1569 41.0877 71.5438 40.655 70.7745C40.2463 69.9811 40.0419 68.9954 40.0419 67.8174C40.0419 66.5913 40.2944 65.5575 40.7992 64.7161C41.3041 63.8506 42.0374 63.2015 42.999 62.7687C43.9847 62.3119 45.1868 62.0836 46.6052 62.0836C47.4707 62.0836 48.2761 62.1677 49.0214 62.336C49.7667 62.4802 50.4398 62.6846 51.0408 62.949C51.6419 63.2135 52.1347 63.502 52.5194 63.8145L52.8439 66.3749C52.3391 66.0383 51.69 65.7739 50.8966 65.5816C50.1273 65.3652 49.2858 65.257 48.3723 65.257C47.0981 65.257 46.1484 65.4614 45.5234 65.8701C44.8983 66.2788 44.5858 66.9159 44.5858 67.7813C44.5858 68.3824 44.754 68.8872 45.0906 69.2959C45.4272 69.6806 45.8599 69.9811 46.3889 70.1975C46.9178 70.3898 47.4707 70.486 48.0477 70.486C49.37 70.486 50.3196 70.4018 50.8966 70.2336C51.4976 70.0412 51.7981 69.6445 51.7981 69.0435V61.8672C51.7981 60.6892 51.4255 59.8357 50.6802 59.3068C49.9349 58.7538 48.8891 58.4774 47.5428 58.4774C46.5091 58.4774 45.4512 58.6577 44.3694 59.0183C43.2875 59.3549 42.41 59.7996 41.7369 60.3526V56.2054C42.386 55.7967 43.3596 55.4361 44.6579 55.1236C45.9561 54.8111 47.3505 54.6548 48.8411 54.6548C49.4661 54.6548 50.1273 54.7149 50.8245 54.8351C51.5217 54.9553 52.1828 55.1476 52.8079 55.4121C53.457 55.6765 54.046 56.0492 54.5749 56.53C55.1038 56.9868 55.5246 57.5758 55.8371 58.297C56.1496 58.9942 56.3059 59.8477 56.3059 60.8574V69.4763C56.3059 70.6062 55.9453 71.4957 55.224 72.1448C54.5028 72.7699 53.5051 73.2027 52.2309 73.4431C50.9567 73.7075 49.4541 73.8398 47.7231 73.8398ZM61.3692 73.2988V56.8906C61.7058 56.6743 62.2948 56.3858 63.1363 56.0251C64.0017 55.6645 64.9995 55.352 66.1294 55.0875C67.2593 54.799 68.4013 54.6548 69.5553 54.6548C70.4208 54.6548 71.106 54.7269 71.6108 54.8712C72.1397 54.9914 72.5484 55.1476 72.8369 55.34V58.8019C72.3561 58.7298 71.8032 58.6697 71.1781 58.6216C70.5771 58.5735 69.952 58.5615 69.3029 58.5855C68.6778 58.5855 68.0647 58.6096 67.4637 58.6577C66.8867 58.7057 66.3818 58.7659 65.9491 58.838V73.2988H61.3692ZM83.2259 73.8758C81.3507 73.8758 79.9202 73.419 78.9345 72.5055C77.9488 71.5679 77.456 70.2215 77.456 68.4665V58.7298H74.6431V55.1236H77.456V50.111H82.1801V55.1236H86.3993V58.7298H82.1801V67.7453C82.1801 68.4906 82.3243 69.0435 82.6128 69.4041C82.9013 69.7648 83.4062 69.9451 84.1274 69.9451C84.5121 69.9451 84.9088 69.885 85.3175 69.7648C85.7502 69.6205 86.1108 69.4522 86.3993 69.2599V73.2267C85.9185 73.4671 85.3896 73.6354 84.8126 73.7316C84.2597 73.8277 83.7307 73.8758 83.2259 73.8758ZM90.6344 56.6382C91.1392 56.3978 91.7403 56.1574 92.4375 55.917C93.1347 55.6765 93.892 55.4722 94.7094 55.3039C95.5268 55.1116 96.3442 54.9673 97.1616 54.8712C98.003 54.7509 98.7964 54.6908 99.5417 54.6908C101.225 54.6908 102.619 54.9192 103.725 55.376C104.855 55.8088 105.696 56.506 106.249 57.4676C106.826 58.4052 107.115 59.6434 107.115 61.182V73.2988H102.571V61.9754C102.571 61.5186 102.511 61.0858 102.391 60.6771C102.27 60.2444 102.066 59.8718 101.778 59.5592C101.489 59.2226 101.092 58.9702 100.587 58.8019C100.083 58.6096 99.4335 58.5134 98.6401 58.5134C98.0391 58.5134 97.426 58.5735 96.801 58.6937C96.1759 58.8139 95.647 58.9702 95.2142 59.1625V73.2988H90.6344V56.6382ZM120.158 73.8398C118.354 73.8398 116.78 73.4791 115.433 72.7579C114.087 72.0126 113.041 70.9308 112.296 69.5123C111.551 68.0939 111.178 66.3869 111.178 64.3915C111.178 61.2181 111.935 58.8019 113.45 57.1431C114.989 55.4602 117.14 54.6187 119.905 54.6187C121.901 54.6187 123.499 55.0515 124.701 55.917C125.927 56.7824 126.817 58.0206 127.37 59.6313C127.947 61.2181 128.223 63.1173 128.199 65.3291H114.135L113.775 62.2278H124.557L123.692 63.526C123.644 61.6268 123.307 60.2684 122.682 59.451C122.081 58.6096 121.107 58.1889 119.761 58.1889C118.943 58.1889 118.222 58.3812 117.597 58.7659C116.996 59.1265 116.527 59.7395 116.191 60.605C115.878 61.4705 115.722 62.6605 115.722 64.1751C115.722 66.0504 116.167 67.4928 117.056 68.5026C117.946 69.4883 119.304 69.9811 121.131 69.9811C121.877 69.9811 122.586 69.909 123.259 69.7648C123.956 69.5965 124.593 69.4041 125.17 69.1878C125.771 68.9714 126.276 68.767 126.685 68.5747V72.6137C125.843 72.9743 124.882 73.2628 123.8 73.4791C122.742 73.7196 121.528 73.8398 120.158 73.8398ZM132.225 73.2988V56.8906C132.562 56.6743 133.151 56.3858 133.992 56.0251C134.858 55.6645 135.856 55.352 136.986 55.0875C138.115 54.799 139.257 54.6548 140.411 54.6548C141.277 54.6548 141.962 54.7269 142.467 54.8712C142.996 54.9914 143.405 55.1476 143.693 55.34V58.8019C143.212 58.7298 142.659 58.6697 142.034 58.6216C141.433 58.5735 140.808 58.5615 140.159 58.5855C139.534 58.5855 138.921 58.6096 138.32 58.6577C137.743 58.7057 137.238 58.7659 136.805 58.838V73.2988H132.225Z" fill="#FFAF74"/>
</g>
</svg>
