<svg width="49" height="56" viewBox="0 0 49 56" fill="none" xmlns="http://www.w3.org/2000/svg">
<path d="M24.6963 1.47884C24.9033 1.47884 25.1281 1.61788 25.2775 1.73472C28.8273 4.47546 32.6374 6.69113 36.5999 8.31812C36.8735 8.43053 37.1531 8.53703 37.4282 8.63317C40.5017 9.72769 43.6566 9.94511 46.6059 10.0191C46.8662 10.025 47.1754 10.0915 47.1754 10.3755C47.1916 16.5048 47.1916 22.7333 47.1916 28.759C47.1872 28.7886 47.1813 28.8271 47.1768 28.8685L47.1709 28.9262V28.9839C47.1532 30.463 47.094 31.7631 46.9905 32.9567C46.844 34.6118 46.5364 36.1441 46.0512 37.6409C44.6609 41.9421 41.9113 45.3144 37.1383 48.5728C36.844 48.7725 36.5866 48.9456 36.3455 49.1009C33.2099 51.1509 26.0984 53.9538 24.6223 54.4862C24.3738 54.4256 23.9952 54.3176 23.8561 54.2703C19.6629 52.7853 16.3631 51.2352 13.47 49.3863C13.0781 49.1364 12.6846 48.8761 12.2986 48.6113C7.3052 45.1872 4.4698 41.5457 3.10608 36.8053C2.46268 34.5659 2.18018 32.1402 2.26744 29.5962V29.54V29.4838C2.26448 29.4306 2.26153 29.3773 2.25857 29.3255C2.25117 29.1895 2.2423 29.0608 2.2423 28.9484C2.2423 22.9152 2.24821 16.7844 2.25265 10.8562V10.7024C2.25265 10.2735 2.33548 10.1537 2.33548 10.1537C2.33548 10.1537 2.47747 10.0398 3.02621 10.0205C6.28463 9.9037 9.20878 9.41412 11.9673 8.52667C13.4256 8.0578 14.8618 7.46321 16.2389 6.75917C19.1245 5.28748 21.8224 3.5747 24.2614 1.66668C24.4966 1.4818 24.6474 1.4818 24.6963 1.4818M24.6963 0.202393C24.2777 0.202393 23.8635 0.353259 23.4701 0.662387C21.0488 2.55709 18.4383 4.20331 15.6576 5.62175C14.3234 6.30361 12.9656 6.8627 11.5753 7.31086C8.85823 8.185 6.01692 8.63464 2.98036 8.7441C1.54121 8.79587 0.973244 9.37419 0.973244 10.7054C0.967328 16.7888 0.962891 22.8679 0.962891 28.9513C0.962891 29.1525 0.979161 29.3536 0.989514 29.5548C0.902248 32.1299 1.16405 34.6783 1.87696 37.1602C3.43592 42.5752 6.80379 46.3956 11.5753 49.6674C11.9687 49.938 12.3711 50.2043 12.7837 50.4675C16.0806 52.5738 19.6822 54.1519 23.4287 55.4787C23.6653 55.5615 24.5128 55.8041 24.717 55.8041C24.8767 55.8041 33.4066 52.5531 37.0451 50.1747C37.3202 49.9957 37.5909 49.8153 37.8571 49.6333C42.358 46.5628 45.6401 43.0751 47.2685 38.0373C47.7936 36.4163 48.1131 34.7715 48.264 33.0735C48.3823 31.7113 48.4326 30.3594 48.4488 29.0031C48.4548 28.9513 48.4695 28.8951 48.4695 28.8374C48.4695 22.6874 48.4696 16.5315 48.4533 10.3755C48.4533 9.42004 47.7108 8.77072 46.637 8.7441C43.5664 8.66866 40.6541 8.42757 37.8571 7.43215C37.5983 7.34193 37.3424 7.24431 37.0865 7.13929C33.0679 5.48864 29.413 3.31586 26.06 0.725988C25.6133 0.381362 25.1518 0.203871 24.6963 0.203871V0.202393Z" fill="white"/>
<path d="M44.7398 13.1256C44.7398 12.3195 44.1126 11.7723 43.2074 11.7486C40.6161 11.685 38.1593 11.4824 35.7987 10.6423C35.5798 10.5654 35.3653 10.484 35.1494 10.3953C31.7578 9.00344 28.6754 7.16938 25.846 4.98477C25.1227 4.42716 24.3521 4.38722 23.6613 4.93152C21.6187 6.52893 19.4164 7.91927 17.0691 9.11585C15.9435 9.69121 14.7972 10.163 13.6243 10.5402C11.3317 11.2783 8.93412 11.6569 6.37235 11.7486C5.15802 11.793 4.6788 12.2811 4.6788 13.4022C4.67436 18.5347 4.66992 23.6641 4.66992 28.7965C4.66992 28.9666 4.68323 29.1367 4.69211 29.3053C4.61815 31.4781 4.84002 33.6287 5.44052 35.7231C6.75543 40.292 9.59675 43.5149 13.6228 46.2763C13.9541 46.5041 14.2943 46.7289 14.6434 46.9508C17.4241 48.7272 20.4636 50.0598 23.6244 51.178C23.824 51.2475 24.5384 51.4531 24.7115 51.4531C24.8461 51.4531 32.0433 48.7094 35.1124 46.7038C35.3446 46.5529 35.5724 46.4006 35.7972 46.2468C39.594 43.6554 42.3643 40.7135 43.7369 36.4641C44.1807 35.096 44.4499 33.7086 44.5771 32.2753C44.6776 31.1261 44.7205 29.9857 44.7338 28.8409C44.7383 28.7965 44.7516 28.7492 44.7516 28.7019C44.7516 23.5132 44.7516 18.3187 44.7383 13.1256H44.7398Z" stroke="white" stroke-width="0.63009" stroke-miterlimit="10" stroke-linecap="round"/>
<path d="M10.664 22.3466V22.1321C11.1891 22.0685 13.0128 21.3497 13.3456 20.9622L13.56 21.0479V30.1118C13.56 30.6368 13.8825 31.0347 14.3543 31.1737V31.335H10.6211V31.1737C11.0929 31.0347 11.4154 30.6368 11.4154 30.1118V23.2577C11.4154 22.7859 11.1048 22.4753 10.664 22.3451V22.3466Z" fill="white"/>
<path d="M15.4297 26.2289C15.4297 23.1184 16.61 20.9619 19.3877 20.9619C22.1654 20.9619 23.3457 23.1184 23.3457 26.2289C23.3457 29.3394 22.1876 31.4205 19.3877 31.4205C16.5878 31.4205 15.4297 29.3069 15.4297 26.2289ZM21.0931 26.2186C21.0931 23.6435 20.5458 21.3908 19.3877 21.3908C18.2296 21.3908 17.6823 23.6435 17.6823 26.2186C17.6823 28.7937 18.2192 30.9916 19.3877 30.9916C20.5562 30.9916 21.0931 28.7818 21.0931 26.2186Z" fill="white"/>
<path d="M24.416 26.2292C24.416 23.1187 25.5963 20.9622 28.374 20.9622C31.1518 20.9622 32.3321 23.1187 32.3321 26.2292C32.3321 29.3397 31.1739 31.4208 28.374 31.4208C25.5741 31.4208 24.416 29.3071 24.416 26.2292ZM30.0794 26.2188C30.0794 23.6437 29.5322 21.3911 28.374 21.3911C27.2159 21.3911 26.6687 23.6437 26.6687 26.2188C26.6687 28.7939 27.2056 30.9918 28.374 30.9918C29.5425 30.9918 30.0794 28.7821 30.0794 26.2188Z" fill="white"/>
<path d="M35.0603 20.9619C36.2835 20.9619 37.066 21.7236 37.066 22.9468C37.066 24.17 36.3146 24.9628 35.0603 24.9628C33.8061 24.9628 33.0547 24.2011 33.0547 22.9468C33.0547 21.6926 33.8268 20.9619 35.0603 20.9619ZM33.2041 31.3347L39.0612 21.0477H40.2948L34.4376 31.3347H33.2041ZM35.0603 24.7691C35.7466 24.7691 35.7792 23.4068 35.7792 22.9676C35.7792 22.5283 35.7466 21.166 35.0603 21.166C34.374 21.166 34.3415 22.5179 34.3415 22.9676C34.3415 23.4172 34.374 24.7691 35.0603 24.7691ZM38.44 27.4181C39.6632 27.4181 40.4457 28.1798 40.4457 29.403C40.4457 30.6262 39.6943 31.419 38.44 31.419C37.1858 31.419 36.4344 30.6573 36.4344 29.403C36.4344 28.1488 37.2065 27.4181 38.44 27.4181ZM38.44 31.2268C39.1263 31.2268 39.1589 29.8645 39.1589 29.4252C39.1589 28.9859 39.1263 27.6237 38.44 27.6237C37.7537 27.6237 37.7212 28.9756 37.7212 29.4252C37.7212 29.8749 37.7537 31.2268 38.44 31.2268Z" fill="white"/>
<path d="M14.4563 39.5927C14.2581 39.5039 14.1043 39.3812 13.9919 39.2229C13.8795 39.0646 13.8218 38.8827 13.8174 38.6771H14.3454C14.3632 38.8546 14.4371 39.004 14.5658 39.1253C14.6945 39.2466 14.8823 39.3072 15.1279 39.3072C15.3734 39.3072 15.5494 39.248 15.6855 39.1312C15.8215 39.0129 15.8896 38.862 15.8896 38.6771C15.8896 38.5322 15.8496 38.4138 15.7698 38.3236C15.6899 38.2334 15.5908 38.1639 15.471 38.1165C15.3512 38.0692 15.19 38.0189 14.9873 37.9642C14.7374 37.8991 14.5377 37.834 14.3868 37.769C14.236 37.7039 14.1073 37.6018 14.0008 37.4613C13.8943 37.3223 13.841 37.1344 13.841 36.8993C13.841 36.6922 13.8928 36.5103 13.9993 36.3505C14.1043 36.1908 14.2522 36.068 14.443 35.9807C14.6338 35.8935 14.8513 35.8506 15.0983 35.8506C15.4532 35.8506 15.7446 35.9393 15.9709 36.1168C16.1972 36.2943 16.3244 36.5295 16.354 36.8238H15.8097C15.792 36.6789 15.715 36.5517 15.5819 36.4407C15.4473 36.3298 15.2698 36.2751 15.0495 36.2751C14.8424 36.2751 14.6738 36.3283 14.5436 36.4348C14.4135 36.5413 14.3484 36.6907 14.3484 36.883C14.3484 37.0205 14.3868 37.133 14.4652 37.2202C14.5436 37.3075 14.6398 37.374 14.7536 37.4184C14.8675 37.4643 15.0288 37.516 15.2343 37.5737C15.4843 37.6432 15.6855 37.7113 15.8378 37.7778C15.9902 37.8444 16.1203 37.9479 16.2298 38.087C16.3392 38.226 16.3925 38.4153 16.3925 38.6549C16.3925 38.8398 16.3437 39.0143 16.246 39.177C16.1484 39.3397 16.0035 39.4729 15.8112 39.5734C15.6189 39.6755 15.3926 39.7258 15.1323 39.7258C14.872 39.7258 14.659 39.6814 14.4608 39.5927H14.4563Z" fill="white"/>
<path d="M19.8203 38.3831H17.439C17.4567 38.6774 17.5573 38.9067 17.7407 39.0708C17.9241 39.235 18.146 39.3179 18.4063 39.3179C18.6208 39.3179 18.7982 39.2676 18.9417 39.1685C19.0852 39.0694 19.1858 38.9362 19.2434 38.7691H19.7759C19.696 39.0561 19.5363 39.2883 19.2982 39.4672C19.0586 39.6462 18.7613 39.7364 18.4063 39.7364C18.1238 39.7364 17.8709 39.6728 17.6475 39.5456C17.4242 39.4184 17.2496 39.238 17.1224 39.0043C16.9952 38.7706 16.9316 38.4999 16.9316 38.1908C16.9316 37.8817 16.9938 37.6125 17.1165 37.3803C17.2393 37.148 17.4123 36.9691 17.6357 36.8448C17.859 36.7206 18.1149 36.657 18.4048 36.657C18.6947 36.657 18.9373 36.7191 19.1547 36.8419C19.3721 36.9646 19.5393 37.1347 19.6576 37.3507C19.7759 37.5666 19.8336 37.8107 19.8336 38.0813C19.8336 38.176 19.8277 38.2751 19.8173 38.3801L19.8203 38.3831ZM19.2006 37.4941C19.1177 37.3581 19.0038 37.2545 18.8604 37.185C18.7169 37.114 18.5586 37.0785 18.3841 37.0785C18.1341 37.0785 17.9211 37.1584 17.7451 37.3181C17.5691 37.4779 17.4685 37.6983 17.4434 37.9808H19.3248C19.3248 37.7929 19.2834 37.6302 19.1991 37.4941H19.2006Z" fill="white"/>
<path d="M20.4881 37.3861C20.6109 37.1554 20.7824 36.9779 21.0013 36.8507C21.2202 36.7235 21.4717 36.6599 21.7542 36.6599C22.121 36.6599 22.4227 36.7487 22.6594 36.9261C22.8975 37.1036 23.0543 37.3506 23.1297 37.6657H22.5973C22.547 37.4852 22.4479 37.3418 22.3014 37.2368C22.155 37.1317 21.9731 37.0785 21.7557 37.0785C21.4732 37.0785 21.2439 37.1761 21.0709 37.3699C20.8963 37.5636 20.8105 37.8387 20.8105 38.1937C20.8105 38.5487 20.8978 38.8297 21.0709 39.025C21.2454 39.2202 21.4732 39.3178 21.7557 39.3178C21.9731 39.3178 22.155 39.2675 22.3 39.1655C22.4449 39.0634 22.544 38.9185 22.5987 38.7306H23.1312C23.0513 39.0353 22.8916 39.2794 22.6535 39.4613C22.4153 39.6432 22.1151 39.7364 21.7557 39.7364C21.4732 39.7364 21.2217 39.6728 21.0028 39.5456C20.7839 39.4184 20.6123 39.2394 20.4896 39.0072C20.3668 38.775 20.3047 38.5029 20.3047 38.1922C20.3047 37.8816 20.3668 37.6154 20.4896 37.3847L20.4881 37.3861Z" fill="white"/>
<path d="M26.4285 36.7087V39.6876H25.9345V39.2468C25.8399 39.3992 25.7082 39.5175 25.5396 39.6033C25.371 39.6891 25.1846 39.7305 24.982 39.7305C24.7498 39.7305 24.5412 39.6832 24.3563 39.587C24.1715 39.4909 24.025 39.3474 23.9185 39.1551C23.812 38.9629 23.7588 38.7292 23.7588 38.4541V36.7087H24.2484V38.389C24.2484 38.6833 24.3223 38.9081 24.4717 39.0664C24.6196 39.2247 24.8237 39.303 25.0811 39.303C25.3384 39.303 25.5544 39.2217 25.7067 39.059C25.8591 38.8963 25.9345 38.6582 25.9345 38.3461V36.7102H26.4285V36.7087Z" fill="white"/>
<path d="M28.1348 36.796C28.296 36.7014 28.4927 36.6541 28.7249 36.6541V37.1658H28.5948C28.0401 37.1658 27.7635 37.4661 27.7635 38.0681V39.6876H27.2695V36.7088H27.7635V37.1924C27.8508 37.0223 27.9751 36.8892 28.1363 36.796H28.1348Z" fill="white"/>
<path d="M31.9961 38.3831H29.6148C29.6325 38.6774 29.7331 38.9067 29.9165 39.0708C30.0999 39.235 30.3217 39.3179 30.5821 39.3179C30.7965 39.3179 30.974 39.2676 31.1175 39.1685C31.261 39.0694 31.3615 38.9362 31.4192 38.7691H31.9517C31.8718 39.0561 31.7121 39.2883 31.474 39.4672C31.2343 39.6462 30.937 39.7364 30.5821 39.7364C30.2996 39.7364 30.0466 39.6728 29.8233 39.5456C29.6 39.4184 29.4254 39.238 29.2982 39.0043C29.171 38.7706 29.1074 38.4999 29.1074 38.1908C29.1074 37.8817 29.1695 37.6125 29.2923 37.3803C29.4151 37.148 29.5881 36.9691 29.8115 36.8448C30.0348 36.7206 30.2907 36.657 30.5806 36.657C30.8705 36.657 31.1131 36.7191 31.3305 36.8419C31.5479 36.9646 31.715 37.1347 31.8334 37.3507C31.9517 37.5666 32.0094 37.8107 32.0094 38.0813C32.0094 38.176 32.0035 38.2751 31.9931 38.3801L31.9961 38.3831ZM31.3763 37.4941C31.2935 37.3581 31.1796 37.2545 31.0361 37.185C30.8927 37.114 30.7344 37.0785 30.5599 37.0785C30.3099 37.0785 30.0969 37.1584 29.9209 37.3181C29.7449 37.4779 29.6443 37.6983 29.6192 37.9808H31.5006C31.5006 37.7929 31.4592 37.6302 31.3749 37.4941H31.3763Z" fill="white"/>
<path d="M32.6693 37.3864C32.792 37.1557 32.9621 36.9782 33.1781 36.851C33.394 36.7238 33.6351 36.6602 33.9043 36.6602C34.1365 36.6602 34.3525 36.7135 34.5507 36.82C34.7503 36.9265 34.9027 37.067 35.0077 37.2415V35.6648H35.5076V39.6879H35.0077V39.1273C34.9101 39.3048 34.7651 39.4512 34.5728 39.5651C34.3806 39.679 34.1557 39.7367 33.8984 39.7367C33.641 39.7367 33.394 39.6716 33.1781 39.5415C32.9621 39.4113 32.7935 39.2279 32.6693 38.9927C32.5465 38.7576 32.4844 38.4884 32.4844 38.1881C32.4844 37.8879 32.5465 37.6157 32.6693 37.3864ZM34.8716 37.6068C34.7814 37.4397 34.6586 37.3125 34.5048 37.2237C34.351 37.135 34.1809 37.0906 33.996 37.0906C33.8111 37.0906 33.6425 37.1335 33.4901 37.2208C33.3378 37.3081 33.2165 37.4353 33.1263 37.6009C33.0361 37.768 32.9902 37.9633 32.9902 38.1881C32.9902 38.4129 33.0361 38.6156 33.1263 38.7842C33.2165 38.9528 33.3378 39.0815 33.4901 39.1702C33.6425 39.259 33.8111 39.3033 33.996 39.3033C34.1809 39.3033 34.351 39.259 34.5048 39.1702C34.6586 39.0815 34.7814 38.9528 34.8716 38.7842C34.9618 38.6156 35.0077 38.4188 35.0077 38.194C35.0077 37.9692 34.9618 37.774 34.8716 37.6068Z" fill="white"/>
<path d="M22.1309 14.607L24.2844 16.762L28.9065 12.1399" stroke="white" stroke-width="0.93626" stroke-miterlimit="10" stroke-linecap="round"/>
</svg>
