<svg width="70" height="52" viewBox="0 0 70 52" fill="none" xmlns="http://www.w3.org/2000/svg">
<path d="M61.3526 42.3378V44.042C61.3526 45.9327 59.814 47.4714 57.9233 47.4714H46.0756L42.7924 48.5746H57.9233C60.4275 48.5746 62.4559 46.5448 62.4559 44.042V41.9663L61.3526 42.3378ZM12.0756 6.32349C9.57276 6.32349 7.54297 8.35187 7.54297 10.8561V14.355L8.64621 13.9849V10.8561C8.64621 8.96401 10.1849 7.42672 12.0756 7.42672H28.1595L31.1478 6.42226C31.2508 6.38748 31.3537 6.35548 31.4581 6.32349H12.0756ZM24.2321 47.4714H12.0756C10.1849 47.4714 8.64621 45.9327 8.64621 44.042V42.3016L7.54297 41.9357V44.042C7.54297 46.5448 9.57276 48.5746 12.0756 48.5746H27.5585L24.2321 47.4714ZM57.9233 6.32349H38.1345C38.225 6.34992 38.3154 6.37913 38.4044 6.40835L41.4749 7.42672H57.9233C59.814 7.42672 61.3526 8.96401 61.3526 10.8561V14.0197L62.4559 14.3856V10.8561C62.4559 8.35187 60.4275 6.32349 57.9233 6.32349Z" fill="white"/>
<path d="M24.2321 47.4714L13.2178 43.8181L24.2321 47.4714Z" fill="white"/>
<path d="M8.64648 42.3015L13.218 43.8179L8.64648 42.3015Z" fill="white"/>
<path d="M41.4756 7.42676L41.758 7.51997L41.4756 7.42676Z" fill="white"/>
<path d="M13.218 43.8179L8.64648 42.3015V43.4632L20.7292 47.4713H24.2323L13.218 43.8179Z" fill="white"/>
<path d="M28.1598 7.42676H24.6956L8.64648 12.8205V13.9835L28.1598 7.42676Z" fill="white"/>
<path d="M7.54321 41.9359L6.12416 41.4657L3.9942 40.7576C2.30247 40.1969 1.16724 39.0325 1.10463 37.7915C1.10185 37.7539 1.10324 37.7178 1.10324 37.6788V18.6276C1.10324 18.5218 1.11019 18.4161 1.12411 18.3145C1.12411 18.3062 1.12689 18.2992 1.12828 18.2923C1.13106 18.277 1.13385 18.2631 1.13524 18.2477L1.13941 18.2283L1.14219 18.2144L1.14776 18.1893C1.37035 17.0763 2.45272 16.0677 3.97194 15.5558L6.92133 14.5638L7.54321 14.3551L8.64644 13.9851V12.822L7.54321 13.1935L6.56935 13.5204L3.61996 14.511C1.68894 15.162 0.365892 16.4726 0.0653876 17.9737C0.0542578 18.0224 0.0473019 18.0697 0.0389546 18.1184C0.0389546 18.1253 0.0361721 18.1295 0.0361721 18.1365C0.0111301 18.2978 0 18.462 0 18.6289V37.6802C0 37.7372 6.37473e-08 37.7929 0.00278251 37.8499C0.0904295 39.5569 1.49696 41.0928 3.64639 41.8065L5.77635 42.5133L7.54321 43.099L8.64644 43.4649V42.3032L7.54321 41.9373V41.9359Z" fill="white"/>
<path d="M69.9958 18.473C69.9096 16.766 68.5017 15.2301 66.3522 14.5164L64.2237 13.8097L62.4554 13.2226L61.3522 12.8567V14.0197L62.4554 14.3856L63.8759 14.8573L66.0044 15.564C67.6962 16.1246 68.8314 17.2891 68.894 18.5301V18.5509L68.8954 18.5551V18.5704L68.8968 37.694C68.8968 37.7997 68.8884 37.9055 68.8745 38.0084L68.8703 38.0293C68.8676 38.0446 68.8662 38.0585 68.8634 38.0738L68.8592 38.0947L68.8564 38.1072L68.8509 38.1322C68.6283 39.2452 67.5459 40.2538 66.0281 40.7658L63.0773 41.7577L62.4554 41.9664L61.3522 42.3379L46.0752 47.4714L42.7919 48.5747L38.8506 49.8991C37.7181 50.2803 36.4563 50.482 35.2028 50.482C33.9493 50.482 32.7167 50.2859 31.594 49.913L27.558 48.5747L24.2316 47.4714H20.7285L24.0535 48.5747L31.2462 50.9606C32.5038 51.3766 33.8533 51.5853 35.2028 51.5853C36.5523 51.5853 37.9338 51.3724 39.2026 50.9453L46.256 48.5747L49.5379 47.4714L61.3522 43.5009L62.4554 43.1295L63.4293 42.8025L66.3787 41.812C68.3097 41.1609 69.6327 39.8504 69.9332 38.3493C69.9458 38.3006 69.9513 38.2533 69.9597 38.2046C69.9597 38.1976 69.9639 38.1934 69.9639 38.1865C69.9875 38.0251 70 37.8609 70 37.694V18.5704C70 18.537 70 18.5064 69.9958 18.473Z" fill="white"/>
<path d="M61.3522 14.0198L41.7568 7.52002L61.3522 14.0198Z" fill="white"/>
<path d="M31.1478 6.42272C31.2507 6.38794 31.3537 6.35594 31.458 6.32395C32.5084 6.00675 33.6548 5.8398 34.7956 5.8398C35.4244 5.8398 36.0421 5.8871 36.6445 5.9831C37.1523 6.0624 37.6504 6.17648 38.1345 6.32395C38.2249 6.35038 38.3154 6.37959 38.4044 6.40881L41.4748 7.42718H44.9807L41.6543 6.32395L38.7522 5.36123C37.4946 4.94525 36.1451 4.73657 34.7956 4.73657C33.4461 4.73657 32.0646 4.94943 30.7958 5.37653L27.9772 6.32395L24.6953 7.42718H28.1595L31.1478 6.42272Z" fill="white"/>
<path d="M41.758 7.51997L61.3534 14.0197V12.8567L44.9815 7.42676H41.4756L41.758 7.51997Z" fill="white"/>
<path d="M14.0285 27.2016C13.4929 27.2016 13.0783 27.0903 12.782 26.865C12.487 26.641 12.2811 26.3391 12.1657 25.9593C12.0502 25.5795 11.9932 25.1565 11.9932 24.6905V22.0221C11.9932 21.5116 12.0502 21.0678 12.1657 20.688C12.2811 20.3082 12.4857 20.0146 12.782 19.8059C13.0783 19.5973 13.4929 19.4929 14.0285 19.4929C14.5015 19.4929 14.8758 19.5806 15.1526 19.7545C15.4295 19.9284 15.6284 20.1774 15.7495 20.5015C15.8705 20.8257 15.9317 21.2138 15.9317 21.6674V22.2642H14.9328V21.7328C14.9328 21.4531 14.9189 21.2055 14.8911 20.9913C14.8633 20.777 14.7867 20.6101 14.6629 20.4918C14.5391 20.3736 14.3304 20.3151 14.0383 20.3151C13.7461 20.3151 13.5221 20.3791 13.3858 20.5071C13.2494 20.6351 13.1604 20.8146 13.1201 21.0483C13.0797 21.282 13.0588 21.5533 13.0588 21.8649V24.8602C13.0588 25.24 13.0894 25.5405 13.1521 25.7603C13.2147 25.9815 13.3162 26.1387 13.4595 26.2319C13.6028 26.3252 13.7962 26.3725 14.0383 26.3725C14.3249 26.3725 14.5294 26.3085 14.6546 26.1805C14.7784 26.0525 14.8563 25.8772 14.8883 25.6532C14.9189 25.4292 14.9356 25.1677 14.9356 24.87V24.3107H15.9345V24.87C15.9345 25.3304 15.8788 25.7367 15.7662 26.0873C15.6535 26.4392 15.4615 26.7119 15.1874 26.9081C14.9133 27.1042 14.528 27.2016 14.0299 27.2016H14.0285Z" fill="white"/>
<path d="M18.8895 27.2014C18.3413 27.2014 17.9226 27.0929 17.6304 26.8745C17.3383 26.6575 17.1393 26.35 17.0336 25.9549C16.9279 25.5598 16.875 25.0979 16.875 24.5692V19.5581H17.8822V24.6152C17.8822 24.9393 17.9045 25.2342 17.9476 25.5014C17.9908 25.7685 18.0854 25.9799 18.2328 26.1358C18.3789 26.2916 18.5987 26.3695 18.8909 26.3695C19.183 26.3695 19.4098 26.2916 19.5531 26.1358C19.6964 25.9799 19.7896 25.7685 19.8327 25.5014C19.8759 25.2342 19.8981 24.9379 19.8981 24.6152V19.5581H20.897V24.5692C20.897 25.0979 20.8442 25.5598 20.7384 25.9549C20.6327 26.35 20.4351 26.6561 20.1458 26.8745C19.8564 27.0929 19.4376 27.2014 18.8909 27.2014H18.8895Z" fill="white"/>
<path d="M23.7884 27.2016C23.3529 27.2016 22.9912 27.1083 22.7018 26.9219C22.4125 26.7355 22.1926 26.4767 22.0438 26.147C21.8949 25.8173 21.8073 25.4347 21.7822 24.9993L22.7157 24.7475C22.7338 25.0146 22.777 25.2733 22.8423 25.5224C22.9077 25.7714 23.0149 25.9745 23.1637 26.1331C23.3126 26.2917 23.5213 26.371 23.7884 26.371C24.0555 26.371 24.2697 26.2945 24.4089 26.1428C24.5494 25.9912 24.6189 25.7714 24.6189 25.4848C24.6189 25.1426 24.541 24.8671 24.3852 24.6584C24.2294 24.4497 24.0332 24.2397 23.7967 24.0282L22.5279 22.9083C22.2789 22.6912 22.0953 22.452 21.977 22.1946C21.8587 21.9358 21.8003 21.6172 21.8003 21.2374C21.8003 20.6837 21.9589 20.2538 22.2761 19.9492C22.5933 19.6445 23.026 19.4915 23.5727 19.4915C23.8718 19.4915 24.1334 19.5304 24.3616 19.6083C24.5883 19.6862 24.7789 19.8059 24.9306 19.9672C25.0836 20.1286 25.2046 20.3331 25.2951 20.578C25.3855 20.8242 25.4453 21.1108 25.4773 21.4419L24.5814 21.684C24.5633 21.435 24.5257 21.2068 24.4701 20.9981C24.4144 20.7895 24.3156 20.6211 24.1765 20.4945C24.036 20.3665 23.8357 20.3025 23.5741 20.3025C23.3126 20.3025 23.1095 20.3721 22.9634 20.5126C22.8173 20.6531 22.7436 20.859 22.7436 21.1331C22.7436 21.364 22.7825 21.5532 22.8604 21.7021C22.9383 21.851 23.0635 22.004 23.2388 22.1598L24.5174 23.2797C24.804 23.5288 25.0558 23.8251 25.2728 24.1715C25.4898 24.5165 25.5997 24.9255 25.5997 25.3985C25.5997 25.7714 25.5218 26.0941 25.366 26.364C25.2102 26.6353 24.9973 26.8412 24.7274 26.9845C24.4575 27.1278 24.1445 27.1988 23.7898 27.1988L23.7884 27.2016Z" fill="white"/>
<path d="M27.2512 27.1178V20.3426H25.9727V19.5593H29.5467V20.3426H28.3057V27.1178H27.2512Z" fill="white"/>
<path d="M32.2048 27.2016C31.6942 27.2016 31.2866 27.1028 30.9819 26.9025C30.6772 26.7036 30.4588 26.4184 30.328 26.0483C30.1972 25.6782 30.1318 25.2442 30.1318 24.7461V21.8816C30.1318 21.3836 30.1986 20.9565 30.3322 20.5989C30.4657 20.2414 30.6842 19.9673 30.986 19.7781C31.2879 19.5889 31.6942 19.4929 32.2034 19.4929C32.7126 19.4929 33.1174 19.5889 33.4165 19.7823C33.7156 19.9757 33.9313 20.2483 34.0648 20.6031C34.1984 20.9579 34.2652 21.3836 34.2652 21.8816V24.7559C34.2652 25.247 34.1984 25.6769 34.0648 26.0441C33.9313 26.4114 33.7142 26.6952 33.4165 26.8983C33.1188 27.1015 32.7139 27.2016 32.2034 27.2016H32.2048ZM32.2048 26.3711C32.4844 26.3711 32.6959 26.314 32.8392 26.1986C32.9824 26.0831 33.0784 25.9217 33.1285 25.713C33.1786 25.5043 33.2037 25.2609 33.2037 24.9799V21.6674C33.2037 21.3877 33.1786 21.1471 33.1285 20.944C33.0784 20.7422 32.9824 20.5864 32.8392 20.4779C32.6959 20.3694 32.4844 20.3151 32.2048 20.3151C31.9251 20.3151 31.7123 20.3694 31.5662 20.4779C31.4201 20.5864 31.3213 20.7422 31.2726 20.944C31.2226 21.1457 31.1975 21.3877 31.1975 21.6674V24.9799C31.1975 25.2595 31.2226 25.5043 31.2726 25.713C31.3227 25.9217 31.4201 26.0831 31.5662 26.1986C31.7123 26.314 31.9251 26.3711 32.2048 26.3711Z" fill="white"/>
<path d="M35.2852 27.118L35.4257 19.5596H36.4621L37.7963 25.6906L39.1402 19.5596H40.167L40.3075 27.118H39.4588L39.3753 21.6311L38.0968 27.118H37.5L36.2312 21.6311L36.1477 27.118H35.2893H35.2852Z" fill="white"/>
<path d="M41.5176 27.1178V19.5593H42.554V27.1178H41.5176Z" fill="white"/>
<path d="M45.5579 27.2016C45.1224 27.2016 44.7607 27.1083 44.4714 26.9219C44.182 26.7355 43.9622 26.4767 43.8133 26.147C43.6644 25.8173 43.5768 25.4347 43.5518 24.9993L44.4853 24.7475C44.5034 25.0146 44.5465 25.2733 44.6119 25.5224C44.6773 25.7714 44.7844 25.9745 44.9332 26.1331C45.0821 26.2917 45.2908 26.371 45.5579 26.371C45.825 26.371 46.0393 26.2945 46.1784 26.1428C46.3189 25.9912 46.3885 25.7714 46.3885 25.4848C46.3885 25.1426 46.3106 24.8671 46.1547 24.6584C45.9989 24.4497 45.8028 24.2397 45.5662 24.0282L44.2975 22.9083C44.0484 22.6912 43.8648 22.452 43.7465 22.1946C43.6283 21.9358 43.5698 21.6172 43.5698 21.2374C43.5698 20.6837 43.7284 20.2538 44.0456 19.9492C44.3628 19.6445 44.7955 19.4915 45.3423 19.4915C45.6414 19.4915 45.9029 19.5304 46.1311 19.6083C46.3579 19.6862 46.5485 19.8059 46.7001 19.9672C46.8531 20.1286 46.9742 20.3331 47.0646 20.578C47.155 20.8242 47.2148 21.1108 47.2468 21.4419L46.3509 21.684C46.3328 21.435 46.2952 21.2068 46.2396 20.9981C46.184 20.7895 46.0852 20.6211 45.9461 20.4945C45.8055 20.3665 45.6052 20.3025 45.3437 20.3025C45.0821 20.3025 44.879 20.3721 44.7329 20.5126C44.5868 20.6531 44.5131 20.859 44.5131 21.1331C44.5131 21.364 44.552 21.5532 44.63 21.7021C44.7079 21.851 44.8331 22.004 45.0084 22.1598L46.2869 23.2797C46.5735 23.5288 46.8253 23.8251 47.0423 24.1715C47.2594 24.5165 47.3693 24.9255 47.3693 25.3985C47.3693 25.7714 47.2914 26.0941 47.1355 26.364C46.9797 26.6353 46.7669 26.8412 46.497 26.9845C46.2271 27.1278 45.9141 27.1988 45.5593 27.1988L45.5579 27.2016Z" fill="white"/>
<path d="M48.1904 27.118V19.5596H51.1203V20.3428H49.245V22.8442H50.7656V23.5913H49.245V26.3626H51.1398V27.118H48.1904Z" fill="white"/>
<path d="M51.9867 27.118V19.5596H53.6284C54.1877 19.5596 54.6315 19.6458 54.9584 19.8156C55.2853 19.9867 55.5177 20.244 55.6582 20.5849C55.7987 20.9271 55.8683 21.3528 55.8683 21.8634V24.6445C55.8683 25.1801 55.7987 25.6308 55.6582 25.9981C55.5177 26.3654 55.2909 26.6436 54.9765 26.8328C54.6621 27.022 54.2405 27.118 53.7119 27.118H51.9854H51.9867ZM53.0413 26.3626H53.6381C54.0235 26.3626 54.2976 26.2875 54.4589 26.1386C54.6203 25.9898 54.7191 25.7713 54.7525 25.4847C54.7873 25.1982 54.804 24.8531 54.804 24.4483V21.9942C54.804 21.6019 54.7789 21.2847 54.7288 21.0426C54.6788 20.8005 54.5702 20.6225 54.4019 20.5112C54.2336 20.3999 53.9692 20.3428 53.6089 20.3428H53.0399V26.3612L53.0413 26.3626Z" fill="white"/>
<path d="M20.4662 38.316V30.7576H23.3864V31.513H21.5194V34.0325H22.9663V34.7796H21.5194V38.316H20.4648H20.4662Z" fill="white"/>
<path d="M26.0456 38.3996C25.535 38.3996 25.1274 38.3008 24.8227 38.1005C24.518 37.9016 24.2996 37.6164 24.1688 37.2463C24.038 36.8762 23.9727 36.4422 23.9727 35.9441V33.0796C23.9727 32.5816 24.0394 32.1545 24.173 31.7969C24.3065 31.4394 24.525 31.1653 24.8269 30.9761C25.1288 30.7869 25.535 30.6909 26.0442 30.6909C26.5534 30.6909 26.9582 30.7869 27.2573 30.9803C27.5564 31.1737 27.7721 31.4463 27.9056 31.8011C28.0392 32.1559 28.106 32.5816 28.106 33.0796V35.9539C28.106 36.445 28.0392 36.8749 27.9056 37.2421C27.7721 37.6094 27.5551 37.8932 27.2573 38.0963C26.9582 38.2981 26.5548 38.3996 26.0442 38.3996H26.0456ZM26.0456 37.5691C26.3252 37.5691 26.5367 37.512 26.68 37.3966C26.8233 37.2811 26.9193 37.1197 26.9693 36.911C27.0194 36.7023 27.0445 36.4589 27.0445 36.1793V32.8668C27.0445 32.5871 27.0194 32.3451 26.9693 32.1433C26.9193 31.9416 26.8233 31.7858 26.68 31.6773C26.5367 31.5688 26.3252 31.5145 26.0456 31.5145C25.7659 31.5145 25.5531 31.5688 25.407 31.6773C25.2609 31.7858 25.1622 31.9416 25.1135 32.1433C25.0634 32.3451 25.0383 32.5871 25.0383 32.8668V36.1793C25.0383 36.4589 25.0634 36.7037 25.1135 36.911C25.1635 37.1197 25.2609 37.2811 25.407 37.3966C25.5531 37.512 25.7659 37.5691 26.0456 37.5691Z" fill="white"/>
<path d="M29.144 38.3163V30.7578H30.6646C31.1682 30.7578 31.5856 30.8246 31.9153 30.9581C32.245 31.0917 32.4885 31.306 32.6471 31.6023C32.8057 31.8972 32.885 32.2854 32.885 32.7639C32.885 33.0561 32.8544 33.3218 32.7917 33.5611C32.7291 33.8004 32.6304 34.0035 32.4926 34.1677C32.3563 34.3332 32.1754 34.4529 31.9515 34.5266L33.0241 38.3149H32.0071L31.0179 34.7687H30.1971V38.3149H29.1426L29.144 38.3163ZM30.1985 34.0146H30.5992C30.8983 34.0146 31.1404 33.9771 31.3268 33.9033C31.5132 33.8282 31.6496 33.7016 31.7372 33.5208C31.8249 33.3399 31.868 33.0881 31.868 32.7653C31.868 32.3243 31.7873 32.0043 31.6259 31.8082C31.4645 31.612 31.1432 31.5146 30.6646 31.5146H30.1985V34.0146Z" fill="white"/>
<path d="M37.2808 38.316V35.6477L35.6475 30.7576H36.6269L37.7844 34.4067L38.9224 30.7576H39.9116L38.288 35.6477V38.316H37.2808Z" fill="white"/>
<path d="M42.5446 38.3994C42.034 38.3994 41.6264 38.3006 41.3217 38.1003C41.017 37.9013 40.7986 37.6161 40.6678 37.2461C40.5371 36.876 40.4717 36.4419 40.4717 35.9439V33.0794C40.4717 32.5813 40.5385 32.1542 40.672 31.7967C40.8056 31.4391 41.024 31.1651 41.3259 30.9759C41.6278 30.7867 42.034 30.6907 42.5432 30.6907C43.0524 30.6907 43.4572 30.7867 43.7564 30.98C44.0555 31.1734 44.2711 31.4461 44.4047 31.8009C44.5382 32.1556 44.605 32.5813 44.605 33.0794V35.9536C44.605 36.4447 44.5382 36.8746 44.4047 37.2419C44.2711 37.6092 44.0541 37.893 43.7564 38.0961C43.4572 38.2978 43.0538 38.3994 42.5432 38.3994H42.5446ZM42.5446 37.5688C42.8242 37.5688 43.0357 37.5118 43.179 37.3963C43.3223 37.2808 43.4183 37.1195 43.4684 36.9108C43.5185 36.7021 43.5435 36.4586 43.5435 36.179V32.8665C43.5435 32.5869 43.5185 32.3448 43.4684 32.1431C43.4183 31.9414 43.3223 31.7856 43.179 31.677C43.0357 31.5685 42.8242 31.5143 42.5446 31.5143C42.265 31.5143 42.0521 31.5685 41.906 31.677C41.76 31.7856 41.6612 31.9414 41.6125 32.1431C41.5624 32.3448 41.5374 32.5869 41.5374 32.8665V36.179C41.5374 36.4586 41.5624 36.7035 41.6125 36.9108C41.6626 37.1195 41.76 37.2808 41.906 37.3963C42.0521 37.5118 42.265 37.5688 42.5446 37.5688Z" fill="white"/>
<path d="M47.5916 38.3994C47.0435 38.3994 46.6247 38.2909 46.3326 38.0725C46.0404 37.8555 45.8415 37.548 45.7357 37.1529C45.63 36.7578 45.5771 36.2959 45.5771 35.7672V30.7561H46.5844V35.8132C46.5844 36.1373 46.6067 36.4322 46.6498 36.6994C46.6929 36.9665 46.7875 37.1779 46.935 37.3338C47.0811 37.4896 47.3009 37.5675 47.593 37.5675C47.8852 37.5675 48.112 37.4896 48.2553 37.3338C48.3985 37.1779 48.4918 36.9665 48.5349 36.6994C48.578 36.4322 48.6003 36.1359 48.6003 35.8132V30.7561H49.5992V35.7672C49.5992 36.2959 49.5463 36.7578 49.4406 37.1529C49.3348 37.548 49.1373 37.8541 48.8479 38.0725C48.5585 38.2909 48.1398 38.3994 47.593 38.3994H47.5916Z" fill="white"/>
<path d="M35.0001 14.5246L36.4761 15.2661L36.2285 13.6328L37.3888 12.4573L35.7583 12.1888L35.0001 10.7224L34.2404 12.1888L32.6113 12.4573L33.7716 13.6328L33.524 15.2661L35.0001 14.5246Z" fill="white"/>
<path d="M35.001 46.228L36.4771 46.9681L36.2295 45.3362L37.3898 44.1606L35.7592 43.8921L35.001 42.4258L34.2414 43.8921L32.6123 44.1606L33.7726 45.3362L33.5249 46.9681L35.001 46.228Z" fill="white"/>
</svg>
