<svg width="61" height="62" viewBox="0 0 61 62" fill="none" xmlns="http://www.w3.org/2000/svg">
<path d="M60.2861 30.9983C60.2861 34.836 56.2557 37.8436 54.8716 41.1819C53.4377 44.6406 54.1056 49.6056 51.4995 52.2117C48.8934 54.8178 43.9285 54.1498 40.4697 55.5837C37.133 56.9679 34.1238 60.9983 30.2861 60.9983C26.4484 60.9983 23.4409 56.9679 20.1025 55.5837C16.6438 54.1498 11.6788 54.8178 9.07273 52.2117C6.46662 49.6056 7.1346 44.6406 5.70068 41.1819C4.31653 37.8452 0.286133 34.836 0.286133 30.9983C0.286133 27.1606 4.31653 24.153 5.70068 20.8147C7.1346 17.3559 6.46662 12.391 9.07273 9.78489C11.6788 7.17878 16.6438 7.84676 20.1025 6.41284C23.4393 5.02869 26.4484 0.998291 30.2861 0.998291C34.1238 0.998291 37.1314 5.02869 40.4697 6.41284C43.9285 7.84676 48.8934 7.17878 51.4995 9.78489C54.1056 12.391 53.4377 17.3559 54.8716 20.8147C56.2557 24.1514 60.2861 27.1606 60.2861 30.9983Z" stroke="white" stroke-width="0.179843" stroke-miterlimit="10"/>
<path d="M30.2861 2.27335C32.2291 2.27335 34.0355 3.62217 35.948 5.05128C37.2293 6.0083 38.5557 6.99904 39.9816 7.58995C41.4765 8.20976 43.1641 8.46508 44.794 8.71236C47.1143 9.06402 49.3077 9.3948 50.5987 10.6874C51.8913 11.98 52.2221 14.1719 52.5738 16.4922C52.8211 18.1236 53.0764 19.8096 53.6962 21.3046C54.2871 22.7304 55.2778 24.0568 56.2349 25.3382C57.664 27.2506 59.0128 29.0571 59.0128 31C59.0128 32.9429 57.664 34.7494 56.2349 36.6618C55.2778 37.9432 54.2871 39.2696 53.6962 40.6954C53.0764 42.1904 52.8211 43.878 52.5738 45.5078C52.2221 47.8281 51.8913 50.0216 50.5987 51.3126C49.3061 52.6052 47.1143 52.936 44.794 53.2876C43.1625 53.5349 41.4765 53.7902 39.9816 54.41C38.5557 55.001 37.2293 55.9917 35.948 56.9487C34.0355 58.3778 32.2291 59.7266 30.2861 59.7266C28.3432 59.7266 26.5367 58.3778 24.6243 56.9487C23.3429 55.9917 22.0166 55.001 20.5907 54.41C19.0957 53.7902 17.4081 53.5349 15.7783 53.2876C13.458 52.936 11.2646 52.6052 9.97355 51.3126C8.68093 50.02 8.35015 47.8281 7.99849 45.5078C7.75121 43.8764 7.4959 42.1904 6.87608 40.6954C6.28517 39.2696 5.29443 37.9432 4.33741 36.6618C2.9083 34.7494 1.55948 32.9429 1.55948 31C1.55948 29.0571 2.9083 27.2506 4.33741 25.3382C5.29443 24.0568 6.28517 22.7304 6.87608 21.3046C7.4959 19.8096 7.75121 18.122 7.99849 16.4922C8.35015 14.1719 8.68093 11.9784 9.97355 10.6874C11.2662 9.3948 13.458 9.06402 15.7783 8.71236C17.4097 8.46508 19.0957 8.20976 20.5907 7.58995C22.0166 6.99904 23.3429 6.0083 24.6243 5.05128C26.5367 3.62217 28.3432 2.27335 30.2861 2.27335ZM30.2861 1C26.4484 1 23.4409 5.0304 20.1025 6.41455C16.6438 7.84847 11.6788 7.18049 9.07273 9.7866C6.46662 12.3927 7.1346 17.3577 5.70068 20.8164C4.31653 24.1531 0.286133 27.1623 0.286133 31C0.286133 34.8377 4.31653 37.8453 5.70068 41.1836C7.1346 44.6423 6.46662 49.6073 9.07273 52.2134C11.6788 54.8195 16.6438 54.1515 20.1025 55.5855C23.4393 56.9696 26.4484 61 30.2861 61C34.1238 61 37.1314 56.9696 40.4697 55.5855C43.9285 54.1515 48.8934 54.8195 51.4995 52.2134C54.1056 49.6073 53.4377 44.6423 54.8716 41.1836C56.2557 37.8469 60.2861 34.8377 60.2861 31C60.2861 27.1623 56.2557 24.1547 54.8716 20.8164C53.4377 17.3577 54.1056 12.3927 51.4995 9.7866C48.8934 7.18049 43.9285 7.84847 40.4697 6.41455C37.133 5.0304 34.1238 1 30.2861 1Z" fill="white"/>
<path d="M55.586 30.9983C55.586 34.2339 52.1867 36.771 51.0209 39.5858C49.8118 42.5035 50.3754 46.6896 48.1772 48.8879C45.9789 51.0861 41.7928 50.5225 38.8751 51.7316C36.0603 52.899 33.5232 56.2968 30.2877 56.2968C27.0521 56.2968 24.515 52.8974 21.7002 51.7316C18.7825 50.5225 14.5964 51.0861 12.3981 48.8879C10.1999 46.6896 10.7635 42.5035 9.55437 39.5858C8.34525 36.6682 4.98926 34.2339 4.98926 30.9983C4.98926 27.7628 8.3886 25.2257 9.55437 22.4109C10.7635 19.4932 10.1999 15.3071 12.3981 13.1088C14.5964 10.9106 18.7825 11.4742 21.7002 10.2651C24.515 9.09769 27.0521 5.69995 30.2877 5.69995C33.5232 5.69995 36.0603 9.0993 38.8751 10.2651C41.7928 11.4742 45.9789 10.9106 48.1772 13.1088C50.3754 15.3071 49.8118 19.4932 51.0209 22.4109C52.1883 25.2257 55.586 27.7628 55.586 30.9983Z" stroke="white" stroke-width="0.637478" stroke-miterlimit="10" stroke-linecap="round"/>
<path d="M12.43 33.5933V31.6407L11.2354 28.0647H11.9515L12.7977 30.7334L13.6311 28.0647H14.3553L13.1671 31.6407V33.5933H12.43Z" fill="white"/>
<path d="M16.2795 33.6542C15.907 33.6542 15.6083 33.582 15.3851 33.4359C15.1619 33.2897 15.0029 33.0826 14.9066 32.8112C14.8102 32.5399 14.7637 32.2235 14.7637 31.859V29.7635C14.7637 29.399 14.8118 29.0859 14.9098 28.8242C15.0077 28.5624 15.1667 28.3617 15.3883 28.2236C15.6099 28.0855 15.9054 28.0149 16.2795 28.0149C16.6536 28.0149 16.9491 28.0855 17.1675 28.2268C17.3858 28.3682 17.5432 28.5673 17.6412 28.8274C17.7391 29.0875 17.7873 29.399 17.7873 29.7619V31.8638C17.7873 32.2235 17.7391 32.5366 17.6412 32.8064C17.5432 33.0762 17.3858 33.2833 17.1675 33.431C16.9491 33.5788 16.6536 33.6526 16.2795 33.6526V33.6542ZM16.2795 33.0473C16.485 33.0473 16.6392 33.0055 16.7435 32.9204C16.8479 32.8369 16.9186 32.7181 16.9555 32.5656C16.9924 32.413 17.0101 32.2348 17.0101 32.0292V29.6062C17.0101 29.4022 16.9924 29.2256 16.9555 29.0779C16.9186 28.9302 16.8479 28.8162 16.7435 28.7359C16.6392 28.6556 16.4834 28.617 16.2795 28.617C16.0756 28.617 15.9182 28.6572 15.8122 28.7359C15.7046 28.8162 15.634 28.9302 15.5971 29.0779C15.5601 29.2256 15.5425 29.4022 15.5425 29.6062V32.0292C15.5425 32.2348 15.5601 32.413 15.5971 32.5656C15.634 32.7181 15.7046 32.8369 15.8122 32.9204C15.9198 33.0039 16.0756 33.0473 16.2795 33.0473Z" fill="white"/>
<path d="M19.9721 33.6542C19.5723 33.6542 19.264 33.5739 19.0504 33.4149C18.8369 33.2559 18.6907 33.0311 18.6137 32.7421C18.5366 32.4531 18.498 32.1159 18.498 31.7289V28.063H19.2351V31.7626C19.2351 31.9987 19.2511 32.2154 19.2833 32.4113C19.3154 32.6072 19.3844 32.7614 19.492 32.8754C19.5996 32.9894 19.7602 33.0456 19.9737 33.0456C20.1873 33.0456 20.3543 32.9894 20.4587 32.8754C20.563 32.7614 20.6321 32.6072 20.6642 32.4113C20.6963 32.2154 20.7124 32.0003 20.7124 31.7626V28.063H21.443V31.7289C21.443 32.1159 21.4044 32.4531 21.3274 32.7421C21.2503 33.0311 21.1058 33.2559 20.8938 33.4149C20.6818 33.5739 20.3768 33.6542 19.9753 33.6542H19.9721Z" fill="white"/>
<path d="M22.2529 33.5933V28.0647H23.3657C23.7334 28.0647 24.0385 28.1129 24.281 28.2108C24.5218 28.3088 24.7001 28.4661 24.8173 28.6813C24.9329 28.8981 24.9907 29.1807 24.9907 29.5307C24.9907 29.7443 24.9682 29.9386 24.9217 30.1136C24.8767 30.2886 24.8028 30.4364 24.7033 30.5568C24.6037 30.6772 24.4705 30.7655 24.3083 30.8201L25.0935 33.5916H24.35L23.6258 30.9984H23.0253V33.5916H22.2545L22.2529 33.5933ZM23.0237 30.446H23.3175C23.5359 30.446 23.7142 30.4187 23.8506 30.3641C23.9871 30.3095 24.0867 30.2164 24.1509 30.0847C24.2151 29.953 24.2457 29.7684 24.2457 29.5323C24.2457 29.2096 24.1862 28.9768 24.0674 28.8322C23.9486 28.6877 23.7142 28.6171 23.3641 28.6171H23.0221V30.446H23.0237Z" fill="white"/>
<path d="M27.9658 33.5933V28.6379H27.0312V28.0647H29.6454V28.6379H28.7381V33.5933H27.9674H27.9658Z" fill="white"/>
<path d="M30.1768 33.593V28.0645H31.2895C31.6572 28.0645 31.9623 28.1126 32.2048 28.2106C32.4457 28.3085 32.6239 28.4659 32.7411 28.6811C32.8567 28.8978 32.9145 29.1804 32.9145 29.5305C32.9145 29.7441 32.8921 29.9383 32.8455 30.1134C32.8005 30.2884 32.7267 30.4361 32.6271 30.5566C32.5276 30.677 32.3943 30.7653 32.2321 30.8199L33.0173 33.5914H32.2739L31.5497 30.9981H30.9491V33.5914H30.1784L30.1768 33.593ZM30.9475 30.4458H31.2414C31.4597 30.4458 31.638 30.4185 31.7745 30.3639C31.911 30.3093 32.0105 30.2161 32.0747 30.0845C32.139 29.9528 32.1695 29.7681 32.1695 29.5321C32.1695 29.2093 32.1101 28.9765 31.9912 28.832C31.8724 28.6875 31.638 28.6168 31.2879 28.6168H30.9459V30.4458H30.9475Z" fill="white"/>
<path d="M35.1459 33.6542C34.7461 33.6542 34.4378 33.5739 34.2242 33.4149C34.0107 33.2559 33.8646 33.0311 33.7875 32.7421C33.7104 32.4531 33.6719 32.1159 33.6719 31.7289V28.063H34.4089V31.7626C34.4089 31.9987 34.425 32.2154 34.4571 32.4113C34.4892 32.6072 34.5582 32.7614 34.6658 32.8754C34.7734 32.9894 34.934 33.0456 35.1475 33.0456C35.3611 33.0456 35.5281 32.9894 35.6325 32.8754C35.7369 32.7614 35.8059 32.6072 35.838 32.4113C35.8701 32.2154 35.8862 32.0003 35.8862 31.7626V28.063H36.6168V31.7289C36.6168 32.1159 36.5783 32.4531 36.5012 32.7421C36.4241 33.0311 36.2796 33.2559 36.0676 33.4149C35.8557 33.5739 35.5506 33.6542 35.1492 33.6542H35.1459Z" fill="white"/>
<path d="M38.7313 33.6541C38.4134 33.6541 38.1484 33.5851 37.9365 33.4486C37.7245 33.3121 37.5639 33.1226 37.4548 32.8818C37.3456 32.6409 37.2813 32.3599 37.2637 32.042L37.9461 31.8573C37.959 32.0532 37.9911 32.2427 38.0376 32.4241C38.0858 32.6056 38.1645 32.7549 38.2737 32.8705C38.3829 32.9862 38.5354 33.044 38.7313 33.044C38.9272 33.044 39.083 32.9878 39.1857 32.877C39.2885 32.7662 39.3399 32.6056 39.3399 32.3952C39.3399 32.1447 39.2821 31.944 39.1697 31.7915C39.0573 31.6389 38.9128 31.4848 38.7393 31.3306L37.8112 30.5117C37.6298 30.3527 37.4949 30.1777 37.4082 29.9898C37.3215 29.8004 37.2781 29.5675 37.2781 29.2897C37.2781 28.8851 37.3937 28.5704 37.6266 28.3472C37.8594 28.124 38.1741 28.0132 38.5756 28.0132C38.7939 28.0132 38.9866 28.0421 39.152 28.0983C39.3174 28.1545 39.4571 28.2428 39.5679 28.3616C39.6787 28.4805 39.7686 28.6298 39.8345 28.808C39.9003 28.9879 39.9453 29.1982 39.9677 29.4391L39.3126 29.6173C39.2981 29.4359 39.2708 29.2689 39.2307 29.1163C39.1906 28.9638 39.1183 28.8417 39.0155 28.7486C38.9128 28.6555 38.7666 28.6089 38.5756 28.6089C38.3845 28.6089 38.2351 28.6603 38.1292 28.7631C38.0232 28.8658 37.9686 29.0168 37.9686 29.2175C37.9686 29.3861 37.9975 29.5242 38.0537 29.6334C38.1099 29.7426 38.203 29.855 38.3299 29.9674L39.2644 30.7863C39.4732 30.9677 39.6578 31.1861 39.8168 31.4382C39.9758 31.6903 40.056 31.9906 40.056 32.3358C40.056 32.6088 39.9998 32.8448 39.8858 33.0424C39.7718 33.2399 39.6161 33.3908 39.4186 33.4968C39.2211 33.6011 38.9914 33.6541 38.7329 33.6541H38.7313Z" fill="white"/>
<path d="M41.2627 33.593V28.6377H40.3281V28.0645H42.9423V28.6377H42.035V33.593H41.2643H41.2627Z" fill="white"/>
<path d="M43.4736 33.593V28.0645H45.6173V28.6377H44.246V30.4666H45.3588V31.0126H44.246V33.039H45.6317V33.5914H43.4752L43.4736 33.593Z" fill="white"/>
<path d="M46.252 33.5933V28.0647H47.453C47.8625 28.0647 48.1869 28.1273 48.4261 28.2526C48.6654 28.3778 48.8356 28.5657 48.9384 28.8162C49.0411 29.0667 49.0925 29.3782 49.0925 29.7507V31.7852C49.0925 32.177 49.0411 32.5062 48.9384 32.7743C48.8356 33.0425 48.6702 33.2464 48.4406 33.3845C48.211 33.5242 47.9027 33.5933 47.5157 33.5933H46.2536H46.252ZM47.0227 33.0409H47.4595C47.7421 33.0409 47.9412 32.9863 48.06 32.8771C48.1788 32.7679 48.2495 32.6089 48.2752 32.3986C48.3009 32.1898 48.3121 31.9361 48.3121 31.6407V29.8455C48.3121 29.558 48.2945 29.3268 48.2575 29.1486C48.2206 28.9703 48.1419 28.8419 48.0183 28.76C47.8946 28.6781 47.7019 28.6363 47.4386 28.6363H47.0227V33.0393V33.0409Z" fill="white"/>
<path d="M19.3864 42.9209V37.3923H20.7577C21.0901 37.3923 21.355 37.4534 21.5525 37.5738C21.75 37.6942 21.8945 37.8692 21.9861 38.0956C22.0776 38.3237 22.1225 38.5982 22.1225 38.921C22.1225 39.2116 22.0712 39.4653 21.9684 39.6789C21.8656 39.8925 21.7147 40.0579 21.514 40.1735C21.3133 40.2891 21.0628 40.3469 20.7625 40.3469H20.1555V42.9209H19.3848H19.3864ZM20.1571 39.7945H20.512C20.7352 39.7945 20.9102 39.7688 21.0371 39.719C21.1639 39.6693 21.2555 39.581 21.31 39.4557C21.3646 39.3305 21.3919 39.1538 21.3919 38.9274C21.3919 38.6641 21.3727 38.4618 21.3341 38.3205C21.2956 38.1791 21.2153 38.0812 21.0917 38.0266C20.968 37.972 20.7769 37.9447 20.5184 37.9447H20.1571V39.7945Z" fill="white"/>
<path d="M22.1012 42.9209L23.275 37.3923H24.0185L25.1987 42.9209H24.4681L24.216 41.5287H23.0903L22.8238 42.9209H22.0996H22.1012ZM23.1931 40.9747H24.1148L23.6508 38.4826L23.1931 40.9747Z" fill="white"/>
<path d="M25.7607 42.9209V37.3923H26.8735C27.2412 37.3923 27.5463 37.4405 27.7888 37.5385C28.0297 37.6364 28.2079 37.7938 28.3251 38.0089C28.4407 38.2257 28.4985 38.5083 28.4985 38.8584C28.4985 39.0719 28.476 39.2662 28.4295 39.4413C28.3845 39.6163 28.3107 39.764 28.2111 39.8844C28.1115 40.0049 27.9783 40.0932 27.8161 40.1478L28.6013 42.9193H27.8578L27.1336 40.326H26.5331V42.9193H25.7623L25.7607 42.9209ZM26.5315 39.7736H26.8253C27.0437 39.7736 27.222 39.7463 27.3585 39.6918C27.4949 39.6372 27.5945 39.544 27.6587 39.4123C27.723 39.2807 27.7535 39.096 27.7535 38.86C27.7535 38.5372 27.6941 38.3044 27.5752 38.1599C27.4564 38.0154 27.222 37.9447 26.8719 37.9447H26.5299V39.7736H26.5315Z" fill="white"/>
<path d="M29.9101 42.9209V37.9656H28.9756V37.3923H31.5897V37.9656H30.6825V42.9209H29.9117H29.9101Z" fill="white"/>
<path d="M32.123 42.9209V37.3923H32.6481L34.2185 41.0647V37.3923H34.8608V42.9209H34.3695L32.7782 39.1458V42.9209H32.123Z" fill="white"/>
<path d="M35.7266 42.9209V37.3923H37.8702V37.9656H36.4989V39.7945H37.6117V40.3405H36.4989V42.3669H37.8847V42.9193H35.7282L35.7266 42.9209Z" fill="white"/>
<path d="M38.5039 42.9209V37.3923H39.6167C39.9844 37.3923 40.2895 37.4405 40.532 37.5385C40.7728 37.6364 40.9511 37.7938 41.0683 38.0089C41.1839 38.2257 41.2417 38.5083 41.2417 38.8584C41.2417 39.0719 41.2192 39.2662 41.1726 39.4413C41.1277 39.6163 41.0538 39.764 40.9543 39.8844C40.8547 40.0049 40.7214 40.0932 40.5593 40.1478L41.3445 42.9193H40.601L39.8768 40.326H39.2763V42.9193H38.5055L38.5039 42.9209ZM39.2747 39.7736H39.5685C39.7869 39.7736 39.9651 39.7463 40.1016 39.6918C40.2381 39.6372 40.3377 39.544 40.4019 39.4123C40.4661 39.2807 40.4966 39.096 40.4966 38.86C40.4966 38.5372 40.4372 38.3044 40.3184 38.1599C40.1996 38.0154 39.9651 37.9447 39.6151 37.9447H39.2731V39.7736H39.2747Z" fill="white"/>
<path d="M31.1377 12.6144C31.1216 12.6112 31.1039 12.6096 31.0879 12.6064C31.0959 12.5951 31.1023 12.5823 31.1104 12.571C31.12 12.5855 31.128 12.5999 31.1377 12.6128V12.6144Z" fill="white"/>
<path d="M35.7175 16.9323C35.7175 16.9323 35.7047 16.9306 35.6982 16.929C35.7047 16.9226 35.7111 16.9178 35.7159 16.9114C35.7159 16.9178 35.7159 16.9258 35.7159 16.9323H35.7175Z" fill="white"/>
<path d="M34.4103 21.3973L34.4104 21.3971C34.5357 21.2707 34.604 21.1035 34.604 20.9257V20.922C34.604 20.8185 34.5789 20.7137 34.5323 20.6215C34.5014 20.5609 34.4615 20.504 34.4126 20.454L31.3714 17.343L30.7437 16.7676L29.7319 16.9111V18.0829C29.7319 18.6401 29.5853 19.0916 29.3098 19.4044C29.0335 19.7181 28.6328 19.8866 28.1375 19.8866C27.7171 19.8866 27.3741 19.5448 27.3741 19.1231V16.77V16.7698H27.4241C27.4204 16.3256 27.6272 15.8936 27.976 15.6183L34.4103 21.3973ZM34.4103 21.3973C34.1963 21.6147 33.8667 21.6597 33.6047 21.5094L31.3608 19.4085L31.3608 19.4085L31.3602 19.408C31.273 19.3286 31.1393 19.3332 31.0581 19.4176L31.0574 19.4183C30.9764 19.5057 30.9811 19.6399 31.0671 19.7212L31.0673 19.7213L33.3294 21.8391L33.3312 21.8409L33.3312 21.841L33.3333 21.8428C33.4964 21.9887 33.5895 22.1979 33.5895 22.4162C33.5895 22.6219 33.5092 22.8148 33.3632 22.9596L33.363 22.9598C33.1108 23.2131 32.6977 23.214 32.4507 22.9715L32.0464 22.5222C32.0173 22.4856 31.986 22.4518 31.954 22.4197L30.1975 20.4688L30.1974 20.4687C30.1193 20.3826 29.9885 20.3746 29.9007 20.448L29.9003 20.4484C29.813 20.5229 29.7982 20.6537 29.8703 20.745L29.8703 20.745L29.8707 20.7455C29.8722 20.7473 29.8751 20.7509 29.8793 20.7562C29.9783 20.8796 30.8112 21.9174 31.6482 22.7179L31.6489 22.7186L31.7202 22.7983C31.8152 22.9211 31.8651 23.0698 31.8628 23.2293L31.8628 23.2294C31.8605 23.4258 31.7785 23.6072 31.6297 23.7411L31.6292 23.7415L31.6136 23.756C31.6136 23.756 31.6135 23.756 31.6135 23.7561C31.3483 23.9972 30.9422 23.9847 30.6918 23.7286L30.6916 23.7285L28.5097 21.5135L28.5094 21.5132C28.4272 21.431 28.2946 21.427 28.2095 21.5087C28.1246 21.589 28.1217 21.7231 28.1999 21.8077L28.1999 21.8077L28.2013 21.8091L28.2091 21.8169C28.4105 22.0367 28.9325 22.6015 29.4276 23.1284L29.4278 23.1286C29.5272 23.2336 29.5773 23.3706 29.5684 23.5145L29.5684 23.5145C29.5594 23.66 29.4936 23.7916 29.3807 23.8854L29.3675 23.8962L29.3671 23.8966C29.1677 24.0636 28.8793 24.051 28.7009 23.8732L25.1221 20.0508L25.9952 15.2467L28.5075 15.1343L27.945 15.579L34.4103 21.3973Z" fill="white" stroke="#6725F4" stroke-width="0.1"/>
<path d="M37.2435 19.8341C37.2105 19.8855 37.1591 19.921 37.0979 19.9332L36.1532 20.1327L36.114 20.14C36.0271 20.1584 35.9415 20.1254 35.8888 20.0617C35.8668 20.0336 35.8485 20.0005 35.8411 19.9626L35.8301 19.9087L34.8352 15.1741C34.8352 15.1741 34.8352 15.1692 34.8352 15.1679C34.8242 15.1104 34.8352 15.0505 34.8682 15.0015C34.8682 15.0015 34.8707 14.9978 34.8719 14.9966C34.9049 14.9477 34.9563 14.9146 35.0139 14.9024L35.6233 14.7739L35.9977 14.6956C36.0149 14.6919 36.0296 14.6907 36.0455 14.6907C36.1519 14.6907 36.2474 14.7653 36.2706 14.873L37.2766 19.6615C37.29 19.7215 37.2766 19.7827 37.2447 19.8353L37.2435 19.8341Z" fill="white"/>
<path d="M34.7193 20.1567L34.7196 20.157C34.7522 20.1908 34.7827 20.2263 34.8097 20.2634C34.81 20.2637 34.8103 20.2641 34.8106 20.2644L35.465 20.0015L34.4701 15.2725L34.2296 15.3082L34.7193 20.1567ZM34.7193 20.1567L31.6697 17.0398L31.6698 17.0398M34.7193 20.1567L31.6698 17.0398M31.6698 17.0398L31.6678 17.038M31.6698 17.0398L31.6678 17.038M31.6678 17.038L30.9649 16.3925C30.9249 16.3529 30.8708 16.3309 30.8141 16.3309H30.7921V16.3308L30.788 16.3311L29.8176 16.4094L29.8172 16.4094C29.7875 16.4121 29.6888 16.4272 29.6005 16.4411L29.4807 16.4601L29.4424 16.4663L29.4318 16.468L29.4291 16.4685L29.4287 16.4685M31.6678 17.038L29.4287 16.4685M29.4287 16.4685C29.3583 16.4785 29.3283 16.5363 29.3159 16.584C29.3033 16.6322 29.3029 16.6884 29.3029 16.7285V18.0856C29.3029 18.3485 29.2637 18.6941 29.0987 18.9726C28.9361 19.2469 28.6486 19.4613 28.1365 19.4613C27.9513 19.4613 27.801 19.31 27.801 19.1258L27.801 16.7701L27.801 16.7695C27.7975 16.44 27.9507 16.1218 28.2092 15.9172L28.2094 15.917L28.2703 15.8682L28.2706 15.8681L28.5677 15.6333L28.5677 15.6333L30.1292 14.3985L30.1292 14.3985C30.4912 14.1118 30.9957 14.0553 31.4129 14.2551L33.3219 15.1717L33.3219 15.1717C33.6038 15.3069 33.9174 15.355 34.2296 15.3082L29.4287 16.4685Z" fill="white" stroke="#6725F4" stroke-width="0.1"/>
<path d="M25.6552 15.0052L25.6478 15.0505H25.6417L25.6111 15.2451L25.6087 15.2573L24.7288 20.0899C24.7239 20.1132 24.7166 20.1352 24.7055 20.156C24.659 20.249 24.555 20.3028 24.4486 20.2833L23.4793 20.107C23.3496 20.0826 23.2627 19.9577 23.286 19.8268L24.2111 14.7409C24.2234 14.6785 24.2576 14.6234 24.3115 14.5867C24.3641 14.5512 24.4278 14.5365 24.4902 14.5475L25.4606 14.7238C25.5242 14.736 25.5781 14.7703 25.6148 14.8241C25.6282 14.8425 25.638 14.8645 25.6454 14.8865C25.6588 14.9245 25.6613 14.9648 25.6539 15.004L25.6552 15.0052Z" fill="white"/>
</svg>
