<?xml version="1.0" encoding="UTF-8"?>
<!DOCTYPE svg PUBLIC "-//W3C//DTD SVG 1.1//EN" "http://www.w3.org/Graphics/SVG/1.1/DTD/svg11.dtd">
<svg xmlns="http://www.w3.org/2000/svg" version="1.1" width="1080px" height="2160px" style="shape-rendering:geometricPrecision; text-rendering:geometricPrecision; image-rendering:optimizeQuality; fill-rule:evenodd; clip-rule:evenodd" xmlns:xlink="http://www.w3.org/1999/xlink">
<g><path style="opacity:1" fill="#6725f4" d="M -0.5,-0.5 C 68.1667,-0.5 136.833,-0.5 205.5,-0.5C 205.667,229.5 205.5,459.5 205,689.5C 186.707,696.806 168.207,697.306 149.5,691C 144.9,688.785 140.734,685.952 137,682.5C 136.702,698.969 143.535,711.469 157.5,720C 174.923,726.505 189.423,722.672 201,708.5C 204,703.166 206,697.499 207,691.5C 207.5,460.834 207.667,230.167 207.5,-0.5C 222.167,-0.5 236.833,-0.5 251.5,-0.5C 251.333,97.1672 251.5,194.834 252,292.5C 255.556,312.059 267.223,322.393 287,323.5C 301.743,322.965 312.076,315.965 318,302.5C 320.457,296.346 321.791,290.013 322,283.5C 300.133,298.263 277.133,300.263 253,289.5C 252.5,192.834 252.333,96.1672 252.5,-0.5C 430.833,-0.5 609.167,-0.5 787.5,-0.5C 787.833,91.8357 787.5,184.169 786.5,276.5C 766.402,284.606 746.402,284.44 726.5,276C 723.577,273.955 720.743,271.788 718,269.5C 718.222,283.778 723.722,295.612 734.5,305C 747.966,311.222 761.3,310.889 774.5,304C 781.971,297.893 786.471,290.06 788,280.5C 788.5,186.834 788.667,93.1673 788.5,-0.5C 803.167,-0.5 817.833,-0.5 832.5,-0.5C 832.167,211.334 832.5,423.001 833.5,634.5C 835.298,650.634 843.965,660.8 859.5,665C 882.199,668.075 896.366,658.575 902,636.5C 902.392,633.812 902.892,631.145 903.5,628.5C 903.167,627.833 902.833,627.167 902.5,626.5C 893.978,633.09 884.312,636.923 873.5,638C 859.969,639.518 846.969,637.685 834.5,632.5C 834.5,421.5 834.5,210.5 834.5,-0.5C 916.167,-0.5 997.833,-0.5 1079.5,-0.5C 1079.5,719.5 1079.5,1439.5 1079.5,2159.5C 719.5,2159.5 359.5,2159.5 -0.5,2159.5C -0.5,1439.5 -0.5,719.5 -0.5,-0.5 Z"/></g>
<g><path style="opacity:1" fill="#fdfcfe" d="M 787.5,-0.5 C 787.833,-0.5 788.167,-0.5 788.5,-0.5C 788.667,93.1673 788.5,186.834 788,280.5C 786.471,290.06 781.971,297.893 774.5,304C 761.3,310.889 747.966,311.222 734.5,305C 723.722,295.612 718.222,283.778 718,269.5C 720.743,271.788 723.577,273.955 726.5,276C 746.402,284.44 766.402,284.606 786.5,276.5C 787.5,184.169 787.833,91.8357 787.5,-0.5 Z"/></g>
<g><path style="opacity:1" fill="#8550f6" d="M 832.5,-0.5 C 833.167,-0.5 833.833,-0.5 834.5,-0.5C 834.5,210.5 834.5,421.5 834.5,632.5C 833.662,632.842 833.328,633.508 833.5,634.5C 832.5,423.001 832.167,211.334 832.5,-0.5 Z"/></g>
<g><path style="opacity:1" fill="#faf8fe" d="M 726.5,254.5 C 729.698,244.417 727.198,236.084 719,229.5C 718.337,237.833 715.671,245.5 711,252.5C 710.543,256.882 710.543,261.216 711,265.5C 706.025,258.595 704.358,250.928 706,242.5C 708.864,234.908 711.531,227.242 714,219.5C 714.434,215.452 714.434,211.452 714,207.5C 733.051,219.378 737.218,235.044 726.5,254.5 Z"/></g>
<g><path style="opacity:1" fill="#fbf9fe" d="M 324.5,221.5 C 325.376,221.369 326.043,221.702 326.5,222.5C 325.331,227.173 325.497,231.84 327,236.5C 332.462,246.536 334.795,257.202 334,268.5C 330.175,280.451 328.508,279.785 329,266.5C 325.078,259.234 322.245,251.568 320.5,243.5C 312.545,250.724 310.378,259.391 314,269.5C 302.714,250.205 306.214,234.205 324.5,221.5 Z"/></g>
<g><path style="opacity:1" fill="#bfa2fa" d="M 726.5,254.5 C 726.539,255.756 726.039,256.756 725,257.5C 724.415,256.002 724.915,255.002 726.5,254.5 Z"/></g>
<g><path style="opacity:1" fill="#fdfcfe" d="M 251.5,-0.5 C 251.833,-0.5 252.167,-0.5 252.5,-0.5C 252.333,96.1672 252.5,192.834 253,289.5C 277.133,300.263 300.133,298.263 322,283.5C 321.791,290.013 320.457,296.346 318,302.5C 312.076,315.965 301.743,322.965 287,323.5C 267.223,322.393 255.556,312.059 252,292.5C 251.5,194.834 251.333,97.1672 251.5,-0.5 Z"/></g>
<g><path style="opacity:1" fill="#9363f6" d="M 905.5,564.5 C 907.28,568.727 908.114,573.394 908,578.5C 910.612,584.725 912.945,591.058 915,597.5C 915.667,602.5 915.667,607.5 915,612.5C 914.194,615.446 912.861,618.112 911,620.5C 910.667,616.167 910.333,611.833 910,607.5C 905.739,600.713 903.072,593.38 902,585.5C 893.741,592.606 891.408,601.272 895,611.5C 884.138,592.615 887.638,576.949 905.5,564.5 Z"/></g>
<g><path style="opacity:1" fill="#9364f6" d="M 132.5,621.5 C 149.193,630.054 154.693,643.388 149,661.5C 148.252,663.332 147.252,664.999 146,666.5C 148.134,656.903 145.468,648.903 138,642.5C 137.042,650.424 134.375,657.757 130,664.5C 129.667,668.833 129.333,673.167 129,677.5C 124.293,669.341 123.293,660.674 126,651.5C 128.201,645.898 130.201,640.231 132,634.5C 132.499,630.179 132.666,625.846 132.5,621.5 Z"/></g>
<g><path style="opacity:1" fill="#9465f6" d="M 833.5,634.5 C 833.328,633.508 833.662,632.842 834.5,632.5C 846.969,637.685 859.969,639.518 873.5,638C 884.312,636.923 893.978,633.09 902.5,626.5C 902.833,627.167 903.167,627.833 903.5,628.5C 902.892,631.145 902.392,633.812 902,636.5C 896.366,658.575 882.199,668.075 859.5,665C 843.965,660.8 835.298,650.634 833.5,634.5 Z"/></g>
<g><path style="opacity:1" fill="#905ff6" d="M 205.5,-0.5 C 206.167,-0.5 206.833,-0.5 207.5,-0.5C 207.667,230.167 207.5,460.834 207,691.5C 206,697.499 204,703.166 201,708.5C 189.423,722.672 174.923,726.505 157.5,720C 143.535,711.469 136.702,698.969 137,682.5C 140.734,685.952 144.9,688.785 149.5,691C 168.207,697.306 186.707,696.806 205,689.5C 205.5,459.5 205.667,229.5 205.5,-0.5 Z"/></g>
<g><path style="opacity:1" fill="#fcfbfe" d="M 346.5,885.5 C 352.842,885.334 359.175,885.5 365.5,886C 368.663,887.48 370.496,889.98 371,893.5C 371.5,902.827 371.666,912.161 371.5,921.5C 382.833,921.5 394.167,921.5 405.5,921.5C 405.5,909.5 405.5,897.5 405.5,885.5C 410.167,885.5 414.833,885.5 419.5,885.5C 419.333,909.169 419.5,932.836 420,956.5C 421.411,961.129 424.577,963.129 429.5,962.5C 429.5,963.5 429.5,964.5 429.5,965.5C 423.158,965.666 416.825,965.5 410.5,965C 409.333,963.833 408.167,962.667 407,961.5C 405.564,949.91 405.064,938.243 405.5,926.5C 394.167,926.5 382.833,926.5 371.5,926.5C 371.5,939.5 371.5,952.5 371.5,965.5C 366.833,965.5 362.167,965.5 357.5,965.5C 357.667,941.831 357.5,918.164 357,894.5C 355.309,889.565 351.809,887.565 346.5,888.5C 346.5,887.5 346.5,886.5 346.5,885.5 Z"/></g>
<g><path style="opacity:1" fill="#fbf9fe" d="M 468.5,885.5 C 471.547,884.855 473.713,885.855 475,888.5C 484.057,910.948 493.391,933.281 503,955.5C 505.238,959.704 508.738,962.037 513.5,962.5C 512.826,965.907 510.659,967.24 507,966.5C 499.795,965.898 493.795,962.898 489,957.5C 486.689,953.046 484.522,948.546 482.5,944C 471.172,943.5 459.838,943.333 448.5,943.5C 445.97,950.584 443.136,957.584 440,964.5C 437.936,965.591 435.769,965.758 433.5,965C 445.31,938.548 456.977,912.048 468.5,885.5 Z"/></g>
<g><path style="opacity:1" fill="#fcfafe" d="M 511.5,885.5 C 527.216,885.08 542.883,885.58 558.5,887C 575.979,892.723 581.145,904.223 574,921.5C 569.633,927.434 563.8,930.934 556.5,932C 549.842,932.5 543.175,932.666 536.5,932.5C 536.5,943.5 536.5,954.5 536.5,965.5C 531.833,965.5 527.167,965.5 522.5,965.5C 522.667,941.831 522.5,918.164 522,894.5C 520.272,889.549 516.772,887.549 511.5,888.5C 511.5,887.5 511.5,886.5 511.5,885.5 Z"/></g>
<g><path style="opacity:1" fill="#fdfcfe" d="M 581.5,885.5 C 595.171,885.333 608.837,885.5 622.5,886C 641.276,888.443 648.776,898.943 645,917.5C 641.114,925.704 634.614,930.538 625.5,932C 618.842,932.5 612.175,932.666 605.5,932.5C 605.5,943.5 605.5,954.5 605.5,965.5C 600.833,965.5 596.167,965.5 591.5,965.5C 591.667,941.498 591.5,917.498 591,893.5C 589.055,889.61 585.888,887.943 581.5,888.5C 581.5,887.5 581.5,886.5 581.5,885.5 Z"/></g>
<g><path style="opacity:1" fill="#fdfcfe" d="M 645.5,885.5 C 656.911,883.027 666.411,886.027 674,894.5C 680.667,904.5 687.333,914.5 694,924.5C 701.583,911.666 709.416,898.999 717.5,886.5C 719.765,885.353 722.098,885.186 724.5,886C 715.208,900.75 706.041,915.583 697,930.5C 696.5,942.162 696.333,953.829 696.5,965.5C 692.167,965.5 687.833,965.5 683.5,965.5C 683.667,954.495 683.5,943.495 683,932.5C 674.667,920.167 666.333,907.833 658,895.5C 653.968,891.768 649.801,888.434 645.5,885.5 Z"/></g>
<g><path style="opacity:1" fill="#6929f4" d="M 539.5,889.5 C 556.742,889.596 563.909,898.262 561,915.5C 559.601,921.9 555.767,926.066 549.5,928C 545.179,928.499 540.846,928.666 536.5,928.5C 536.5,915.833 536.5,903.167 536.5,890.5C 537.791,890.737 538.791,890.404 539.5,889.5 Z"/></g>
<g><path style="opacity:1" fill="#6929f4" d="M 608.5,889.5 C 626.242,889.288 633.409,897.954 630,915.5C 628.637,921.866 624.804,926.032 618.5,928C 614.179,928.499 609.846,928.666 605.5,928.5C 605.5,915.833 605.5,903.167 605.5,890.5C 606.791,890.737 607.791,890.404 608.5,889.5 Z"/></g>
<g><path style="opacity:1" fill="#6a2af4" d="M 479.5,937.5 C 470.318,937.827 461.318,937.493 452.5,936.5C 456.508,925.984 461.008,915.651 466,905.5C 471.18,915.871 475.68,926.538 479.5,937.5 Z"/></g>
<g><path style="opacity:1" fill="#b493f9" d="M 452.5,936.5 C 461.318,937.493 470.318,937.827 479.5,937.5C 470.325,938.822 460.992,938.822 451.5,937.5C 451.624,936.893 451.957,936.56 452.5,936.5 Z"/></g>
<g><path style="opacity:1" fill="#fbfafe" d="M 452.5,984.5 C 460.975,983.163 468.475,985.163 475,990.5C 476.586,992.67 477.92,995.004 479,997.5C 484.48,1012.28 490.147,1026.95 496,1041.5C 499.83,1030.68 503.663,1019.84 507.5,1009C 505.608,1002.38 502.775,996.218 499,990.5C 496.205,988.615 493.371,986.949 490.5,985.5C 502.517,982.594 511.351,986.594 517,997.5C 522.549,1012.65 528.382,1027.65 534.5,1042.5C 541.297,1024.27 547.797,1005.94 554,987.5C 555.401,985.808 557.234,985.141 559.5,985.5C 550.804,1011.9 541.804,1038.24 532.5,1064.5C 529.589,1065.79 527.756,1064.79 527,1061.5C 521.988,1046.96 516.488,1032.63 510.5,1018.5C 504.391,1033.59 498.891,1048.93 494,1064.5C 492.644,1065.38 491.144,1065.71 489.5,1065.5C 480.835,1041.01 471.668,1016.67 462,992.5C 458.784,989.678 455.617,987.011 452.5,984.5 Z"/></g>
<g><path style="opacity:1" fill="#fdfcfe" d="M 336.5,985.5 C 351.17,985.333 365.837,985.5 380.5,986C 409.008,991.177 420.508,1008.01 415,1036.5C 410.447,1051.72 400.28,1060.55 384.5,1063C 371.875,1064.35 359.209,1064.85 346.5,1064.5C 346.667,1041.16 346.5,1017.83 346,994.5C 344.487,990.035 341.321,988.035 336.5,988.5C 336.5,987.5 336.5,986.5 336.5,985.5 Z"/></g>
<g><path style="opacity:1" fill="#fefefe" d="M 431.5,985.5 C 435.833,985.5 440.167,985.5 444.5,985.5C 444.333,1008.17 444.5,1030.84 445,1053.5C 445.947,1058.96 449.114,1061.62 454.5,1061.5C 454.5,1062.5 454.5,1063.5 454.5,1064.5C 448.491,1064.67 442.491,1064.5 436.5,1064C 435.333,1062.83 434.167,1061.67 433,1060.5C 431.538,1035.55 431.038,1010.55 431.5,985.5 Z"/></g>
<g><path style="opacity:1" fill="#fbf9fe" d="M 591.5,985.5 C 593.467,985.261 595.301,985.594 597,986.5C 606.276,1008.05 615.276,1029.72 624,1051.5C 626.057,1056.39 629.557,1059.72 634.5,1061.5C 635.386,1062.32 635.719,1063.32 635.5,1064.5C 626.016,1066.5 618.182,1063.83 612,1056.5C 609.689,1052.05 607.522,1047.55 605.5,1043C 594.485,1042.17 583.485,1042.33 572.5,1043.5C 569.5,1050.17 566.5,1056.83 563.5,1063.5C 561.5,1064.83 559.5,1064.83 557.5,1063.5C 569.034,1037.56 580.367,1011.56 591.5,985.5 Z"/></g>
<g><path style="opacity:1" fill="#fefefe" d="M 657.5,995.5 C 657.5,1016.83 657.5,1038.17 657.5,1059.5C 671.5,1059.5 685.5,1059.5 699.5,1059.5C 699.5,1061.17 699.5,1062.83 699.5,1064.5C 681.167,1064.5 662.833,1064.5 644.5,1064.5C 644.667,1041.5 644.5,1018.5 644,995.5C 643.164,990.154 639.997,987.82 634.5,988.5C 634.5,987.5 634.5,986.5 634.5,985.5C 640.509,985.334 646.509,985.501 652.5,986C 656.39,987.945 658.057,991.112 657.5,995.5 Z"/></g>
<g><path style="opacity:1" fill="#fcfbfe" d="M 708.5,985.5 C 713.167,985.5 717.833,985.5 722.5,985.5C 722.333,1008.84 722.5,1032.17 723,1055.5C 724.21,1060.54 727.376,1062.54 732.5,1061.5C 732.5,1062.5 732.5,1063.5 732.5,1064.5C 726.491,1064.67 720.491,1064.5 714.5,1064C 711.337,1062.52 709.504,1060.02 709,1056.5C 708.5,1032.84 708.333,1009.17 708.5,985.5 Z"/></g>
<g><path style="opacity:1" fill="#6a29f4" d="M 365.5,989.5 C 384.503,989.01 396.003,998.01 400,1016.5C 402.813,1031.73 398.646,1044.56 387.5,1055C 378.743,1059.44 369.577,1060.6 360,1058.5C 359.333,1036.17 359.333,1013.83 360,991.5C 361.948,990.891 363.782,990.224 365.5,989.5 Z"/></g>
<g><path style="opacity:1" fill="#6a2af4" d="M 602.5,1036.5 C 593.435,1037.14 584.769,1036.47 576.5,1034.5C 580.369,1024.73 584.535,1015.07 589,1005.5C 594.045,1015.59 598.545,1025.92 602.5,1036.5 Z"/></g>
<g><path style="opacity:1" fill="#9e75f7" d="M 576.5,1034.5 C 584.769,1036.47 593.435,1037.14 602.5,1036.5C 593.682,1037.49 584.682,1037.83 575.5,1037.5C 575.263,1036.21 575.596,1035.21 576.5,1034.5 Z"/></g>
<g><path style="opacity:1" fill="#9c6ff7" d="M 657.5,995.5 C 658.497,1016.33 658.831,1037.33 658.5,1058.5C 672.344,1058.17 686.01,1058.5 699.5,1059.5C 685.5,1059.5 671.5,1059.5 657.5,1059.5C 657.5,1038.17 657.5,1016.83 657.5,995.5 Z"/></g>
<g><path style="opacity:1" fill="#f6f4f9" d="M 428.5,1948.5 C 430.467,1948.26 432.301,1948.59 434,1949.5C 434.667,1964.5 434.667,1979.5 434,1994.5C 431.667,1997.17 429.333,1997.17 427,1994.5C 426.333,1979.83 426.333,1965.17 427,1950.5C 427.717,1949.96 428.217,1949.29 428.5,1948.5 Z"/></g>
<g><path style="opacity:1" fill="#f6f5f9" d="M 442.5,1948.5 C 444.467,1948.26 446.301,1948.59 448,1949.5C 448.499,1954.15 448.666,1958.82 448.5,1963.5C 450.857,1963.34 453.19,1963.5 455.5,1964C 457.032,1966.33 456.698,1968.33 454.5,1970C 452.527,1970.5 450.527,1970.66 448.5,1970.5C 448.334,1976.18 448.501,1981.84 449,1987.5C 451.507,1989.16 454.341,1989.99 457.5,1990C 458.86,1991.94 458.527,1993.6 456.5,1995C 452.833,1995.67 449.167,1995.67 445.5,1995C 443.667,1994.5 442.5,1993.33 442,1991.5C 441.185,1977.09 441.352,1962.76 442.5,1948.5 Z"/></g>
<g><path style="opacity:1" fill="#f3f0f9" d="M 464.5,1948.5 C 466.467,1948.26 468.301,1948.59 470,1949.5C 470.333,1955.83 470.667,1962.17 471,1968.5C 476.779,1962.84 483.279,1962 490.5,1966C 491.211,1967.25 492.044,1968.42 493,1969.5C 493.667,1977.83 493.667,1986.17 493,1994.5C 490.283,1997.32 487.95,1996.99 486,1993.5C 485.667,1986.5 485.333,1979.5 485,1972.5C 480.337,1968.25 476.003,1968.58 472,1973.5C 471.93,1980.94 471.263,1988.27 470,1995.5C 467.733,1996.93 465.733,1996.6 464,1994.5C 463.184,1979.09 463.351,1963.76 464.5,1948.5 Z"/></g>
<g><path style="opacity:1" fill="#fbc7a6" d="M 552.5,1953.5 C 561.568,1953.12 570.568,1953.62 579.5,1955C 585.976,1959.08 588.143,1964.92 586,1972.5C 584.283,1977.55 580.783,1980.38 575.5,1981C 570.845,1981.5 566.179,1981.67 561.5,1981.5C 561.5,1986.5 561.5,1991.5 561.5,1996.5C 558.5,1996.5 555.5,1996.5 552.5,1996.5C 552.5,1982.17 552.5,1967.83 552.5,1953.5 Z"/></g>
<g><path style="opacity:1" fill="#a76ad2" d="M 659.5,1955.5 C 659.5,1958.5 659.5,1961.5 659.5,1964.5C 657.833,1964.5 656.167,1964.5 654.5,1964.5C 655.568,1963.57 656.901,1963.23 658.5,1963.5C 658.194,1960.61 658.527,1957.95 659.5,1955.5 Z"/></g>
<g><path style="opacity:1" fill="#fdc9a5" d="M 659.5,1955.5 C 662.167,1955.5 664.833,1955.5 667.5,1955.5C 667.5,1958.5 667.5,1961.5 667.5,1964.5C 669.833,1964.5 672.167,1964.5 674.5,1964.5C 674.5,1966.5 674.5,1968.5 674.5,1970.5C 672.167,1970.5 669.833,1970.5 667.5,1970.5C 667.334,1976.84 667.5,1983.18 668,1989.5C 670,1990.83 672,1990.83 674,1989.5C 675.2,1997.02 672.033,1999.52 664.5,1997C 662.43,1996.05 660.93,1994.55 660,1992.5C 659.5,1985.17 659.334,1977.84 659.5,1970.5C 657.833,1970.5 656.167,1970.5 654.5,1970.5C 654.5,1968.5 654.5,1966.5 654.5,1964.5C 656.167,1964.5 657.833,1964.5 659.5,1964.5C 659.5,1961.5 659.5,1958.5 659.5,1955.5 Z"/></g>
<g><path style="opacity:1" fill="#6b29f2" d="M 561.5,1960.5 C 565.514,1960.33 569.514,1960.5 573.5,1961C 578.426,1964.91 578.759,1969.25 574.5,1974C 570.179,1974.5 565.846,1974.67 561.5,1974.5C 561.5,1969.83 561.5,1965.17 561.5,1960.5 Z"/></g>
<g><path style="opacity:1" fill="#f4f2f9" d="M 300.5,1963.5 C 303.044,1963.1 305.211,1963.77 307,1965.5C 308.95,1972.02 311.283,1978.35 314,1984.5C 316.531,1977.91 318.864,1971.24 321,1964.5C 323.064,1963.41 325.231,1963.24 327.5,1964C 330.733,1971.04 333.566,1978.2 336,1985.5C 337.934,1978.36 340.268,1971.36 343,1964.5C 348.333,1962.17 350.333,1963.83 349,1969.5C 346,1977.5 343,1985.5 340,1993.5C 337.633,1996.93 334.966,1997.27 332,1994.5C 329.469,1987.91 327.136,1981.24 325,1974.5C 322.342,1981.13 319.676,1987.8 317,1994.5C 315.534,1996.32 313.701,1996.82 311.5,1996C 306.828,1986.49 302.828,1976.66 299.5,1966.5C 299.685,1965.42 300.018,1964.42 300.5,1963.5 Z"/></g>
<g><path style="opacity:1" fill="#f3f0f9" d="M 365.5,1962.5 C 374.349,1961.51 380.849,1964.84 385,1972.5C 386.004,1975.99 385.504,1979.16 383.5,1982C 376.174,1982.5 368.841,1982.67 361.5,1982.5C 363.292,1989.07 367.625,1991.57 374.5,1990C 376.664,1989.09 378.664,1987.92 380.5,1986.5C 384.081,1988.16 384.414,1990.33 381.5,1993C 372.051,1998.4 363.551,1997.23 356,1989.5C 350.207,1977.12 353.373,1968.12 365.5,1962.5 Z"/></g>
<g><path style="opacity:1" fill="#f2eff9" d="M 396.5,1963.5 C 401.511,1963.33 406.511,1963.5 411.5,1964C 419.442,1967.76 422.442,1974.1 420.5,1983C 420.333,1986.5 420.167,1990 420,1993.5C 416.844,1996.4 414.178,1996.07 412,1992.5C 404.636,1998.01 397.636,1997.68 391,1991.5C 388.042,1980.93 392.209,1975.6 403.5,1975.5C 406.49,1975.62 409.323,1976.29 412,1977.5C 412.855,1974.04 411.689,1971.54 408.5,1970C 403.475,1969.67 398.475,1969.67 393.5,1970C 391.745,1966.49 392.745,1964.33 396.5,1963.5 Z"/></g>
<g><path style="opacity:1" fill="#f4f1f9" d="M 499.5,1962.5 C 501.903,1962.39 503.736,1963.39 505,1965.5C 507.725,1972.62 510.725,1979.62 514,1986.5C 517,1979.17 520,1971.83 523,1964.5C 528.67,1961.15 530.67,1962.82 529,1969.5C 523.333,1982.5 517.667,1995.5 512,2008.5C 508.886,2010.18 506.719,2009.35 505.5,2006C 507.263,2002.65 508.596,1999.15 509.5,1995.5C 506.23,1986.29 502.396,1977.29 498,1968.5C 497.252,1966.16 497.752,1964.16 499.5,1962.5 Z"/></g>
<g><path style="opacity:1" fill="#fac5a7" d="M 600.5,1963.5 C 604.846,1963.33 609.179,1963.5 613.5,1964C 616.196,1964.69 618.363,1966.19 620,1968.5C 621.601,1976.4 621.934,1984.4 621,1992.5C 619.048,1994.89 616.548,1996.39 613.5,1997C 609.167,1997.67 604.833,1997.67 600.5,1997C 593.951,1994.73 591.451,1990.23 593,1983.5C 594.852,1978.14 598.685,1975.81 604.5,1976.5C 607.54,1976.42 610.373,1977.08 613,1978.5C 614.036,1975.32 613.203,1972.82 610.5,1971C 605.64,1970.03 600.974,1970.53 596.5,1972.5C 594.659,1967.88 595.992,1964.88 600.5,1963.5 Z"/></g>
<g><path style="opacity:1" fill="#fcc7a6" d="M 638.5,1963.5 C 642.5,1963.5 646.5,1963.5 650.5,1963.5C 650.5,1965.83 650.5,1968.17 650.5,1970.5C 646.5,1970.5 642.5,1970.5 638.5,1970.5C 638.5,1979.17 638.5,1987.83 638.5,1996.5C 635.833,1996.5 633.167,1996.5 630.5,1996.5C 630.168,1986.48 630.501,1976.48 631.5,1966.5C 633.885,1965.34 636.219,1964.34 638.5,1963.5 Z"/></g>
<g><path style="opacity:1" fill="#fac5a7" d="M 690.5,1963.5 C 694.846,1963.33 699.179,1963.5 703.5,1964C 706.034,1964.52 708.2,1965.68 710,1967.5C 711.448,1977.06 711.948,1986.73 711.5,1996.5C 708.833,1996.5 706.167,1996.5 703.5,1996.5C 703.666,1988.49 703.5,1980.49 703,1972.5C 701.178,1970.95 699.011,1970.29 696.5,1970.5C 694.571,1970.54 692.738,1970.87 691,1971.5C 690.5,1979.83 690.334,1988.16 690.5,1996.5C 687.833,1996.5 685.167,1996.5 682.5,1996.5C 682.334,1986.49 682.5,1976.49 683,1966.5C 685.567,1965.41 688.067,1964.41 690.5,1963.5 Z"/></g>
<g><path style="opacity:1" fill="#fac5a7" d="M 728.5,1963.5 C 742.779,1961.78 749.779,1968.11 749.5,1982.5C 742.137,1982.17 734.803,1982.5 727.5,1983.5C 727.861,1986.69 729.528,1988.86 732.5,1990C 737.331,1990.78 741.997,1990.28 746.5,1988.5C 747.42,1993.06 745.754,1995.89 741.5,1997C 724.004,1998.83 716.837,1991 720,1973.5C 721.261,1968.75 724.095,1965.41 728.5,1963.5 Z"/></g>
<g><path style="opacity:1" fill="#fac5a8" d="M 764.5,1963.5 C 768.514,1963.33 772.514,1963.5 776.5,1964C 777.423,1966.04 777.756,1968.21 777.5,1970.5C 773.167,1970.5 768.833,1970.5 764.5,1970.5C 764.5,1979.17 764.5,1987.83 764.5,1996.5C 761.833,1996.5 759.167,1996.5 756.5,1996.5C 756.334,1986.83 756.5,1977.16 757,1967.5C 759.417,1965.87 761.917,1964.54 764.5,1963.5 Z"/></g>
<g><path style="opacity:1" fill="#7437f4" d="M 367.5,1968.5 C 373.888,1968.22 377.555,1971.22 378.5,1977.5C 372.463,1977.83 366.463,1977.5 360.5,1976.5C 361.485,1972.52 363.818,1969.86 367.5,1968.5 Z"/></g>
<g><path style="opacity:1" fill="#712ef0" d="M 731.5,1969.5 C 736.717,1968.44 740.05,1970.44 741.5,1975.5C 736.88,1976.49 732.214,1976.83 727.5,1976.5C 727.571,1973.35 728.905,1971.01 731.5,1969.5 Z"/></g>
<g><path style="opacity:1" fill="#6d2ef4" d="M 400.5,1980.5 C 404.24,1980.24 407.906,1980.57 411.5,1981.5C 413.382,1985.42 412.382,1988.25 408.5,1990C 398.215,1992.25 395.549,1989.08 400.5,1980.5 Z"/></g>
<g><path style="opacity:1" fill="#6f2df0" d="M 602.5,1982.5 C 606.167,1982.5 609.833,1982.5 613.5,1982.5C 614.837,1990.68 611.504,1993.51 603.5,1991C 599.986,1988.47 599.653,1985.64 602.5,1982.5 Z"/></g>
</svg>
