<svg width="24" height="24" viewBox="0 0 24 24" fill="none" xmlns="http://www.w3.org/2000/svg">
<path d="M14.1 13.2C14.1 12.8022 14.258 12.4206 14.5393 12.1393C14.8206 11.858 15.2022 11.7 15.6 11.7C15.9978 11.7 16.3794 11.858 16.6607 12.1393C16.942 12.4206 17.1 12.8022 17.1 13.2C17.1 13.5978 16.942 13.9794 16.6607 14.2607C16.3794 14.542 15.9978 14.7 15.6 14.7C15.2022 14.7 14.8206 14.542 14.5393 14.2607C14.258 13.9794 14.1 13.5978 14.1 13.2ZM24 12V24H0V12C0 5.4 5.4 0 12 0C18.6 0 24 5.4 24 12ZM2.4 12C2.4 17.292 6.708 21.6 12 21.6C17.292 21.6 21.6 17.292 21.6 12C21.6 11.052 21.456 10.14 21.204 9.288C18.8841 9.82693 16.4562 9.66148 14.2308 8.81282C12.0055 7.96415 10.0839 6.47086 8.712 4.524C7.536 7.392 5.292 9.708 2.46 10.968C2.4 11.304 2.4 11.652 2.4 12ZM8.4 14.7C8.79783 14.7 9.17936 14.542 9.46066 14.2607C9.74197 13.9794 9.9 13.5978 9.9 13.2C9.9 12.8022 9.74197 12.4206 9.46066 12.1393C9.17936 11.858 8.79783 11.7 8.4 11.7C8.00218 11.7 7.62064 11.858 7.33934 12.1393C7.05804 12.4206 6.9 12.8022 6.9 13.2C6.9 13.5978 7.05804 13.9794 7.33934 14.2607C7.62064 14.542 8.00218 14.7 8.4 14.7Z" fill="#C5C5C5"/>
</svg>
