<svg width="24" height="24" viewBox="0 0 24 24" fill="none" xmlns="http://www.w3.org/2000/svg">
<path d="M8.4 11.7C8.00218 11.7 7.62064 11.858 7.33934 12.1393C7.05804 12.4206 6.9 12.8022 6.9 13.2C6.9 13.5978 7.05804 13.9794 7.33934 14.2607C7.62064 14.542 8.00218 14.7 8.4 14.7C8.59698 14.7 8.79204 14.6612 8.97403 14.5858C9.15601 14.5104 9.32137 14.3999 9.46066 14.2607C9.59995 14.1214 9.71044 13.956 9.78582 13.774C9.8612 13.592 9.9 13.397 9.9 13.2C9.9 13.003 9.8612 12.808 9.78582 12.626C9.71044 12.444 9.59995 12.2786 9.46066 12.1393C9.32137 12.0001 9.15601 11.8896 8.97403 11.8142C8.79204 11.7388 8.59698 11.7 8.4 11.7ZM15.6 11.7C15.2022 11.7 14.8206 11.858 14.5393 12.1393C14.258 12.4206 14.1 12.8022 14.1 13.2C14.1 13.5978 14.258 13.9794 14.5393 14.2607C14.8206 14.542 15.2022 14.7 15.6 14.7C15.9978 14.7 16.3794 14.542 16.6607 14.2607C16.942 13.9794 17.1 13.5978 17.1 13.2C17.1 12.8022 16.942 12.4206 16.6607 12.1393C16.3794 11.858 15.9978 11.7 15.6 11.7ZM12 0C10.4241 0 8.86371 0.310389 7.4078 0.913446C5.95189 1.5165 4.62902 2.40042 3.51472 3.51472C1.26428 5.76516 0 8.8174 0 12C0 15.1826 1.26428 18.2348 3.51472 20.4853C4.62902 21.5996 5.95189 22.4835 7.4078 23.0866C8.86371 23.6896 10.4241 24 12 24C15.1826 24 18.2348 22.7357 20.4853 20.4853C22.7357 18.2348 24 15.1826 24 12C24 10.4241 23.6896 8.86371 23.0866 7.4078C22.4835 5.95189 21.5996 4.62902 20.4853 3.51472C19.371 2.40042 18.0481 1.5165 16.5922 0.913446C15.1363 0.310389 13.5759 0 12 0M12 21.6C6.708 21.6 2.4 17.292 2.4 12C2.4 11.652 2.4 11.304 2.46 10.968C5.292 9.708 7.536 7.392 8.712 4.524C10.0839 6.47086 12.0055 7.96415 14.2308 8.81282C16.4562 9.66148 18.8841 9.82693 21.204 9.288C21.456 10.14 21.6 11.052 21.6 12C21.6 17.292 17.292 21.6 12 21.6Z" fill="#C4C4C4"/>
</svg>
