<svg fill="none" height="32" viewBox="0 0 32 32" width="32" xmlns="http://www.w3.org/2000/svg" xmlns:xlink="http://www.w3.org/1999/xlink"><linearGradient id="a"><stop offset="0" stop-color="#cdbfba"/><stop offset="1" stop-color="#766e6e"/></linearGradient><linearGradient id="b" gradientUnits="userSpaceOnUse" x1="15.7492" x2="22.7241" xlink:href="#a" y1="20.2898" y2="20.2898"/><linearGradient id="c" gradientUnits="userSpaceOnUse" x1="20.1701" x2="31.7273" y1="6.04894" y2="6.04894"><stop offset="0" stop-color="#b0e7c9"/><stop offset=".593" stop-color="#46cc8d"/><stop offset="1" stop-color="#0ab69f"/></linearGradient><linearGradient id="d"><stop offset="0" stop-color="#46cc8d"/><stop offset=".5484" stop-color="#0ab69f"/><stop offset="1" stop-color="#01998d"/></linearGradient><linearGradient id="e" gradientUnits="userSpaceOnUse" x1="20.0164" x2="26.2436" xlink:href="#d" y1="8.62834" y2="8.62834"/><linearGradient id="f" gradientUnits="userSpaceOnUse" x1="24.8569" x2="31.835" xlink:href="#d" y1="6.04756" y2="6.04756"/><linearGradient id="g" gradientUnits="userSpaceOnUse" x1="15.4355" x2="24.8431" xlink:href="#a" y1="9.7234" y2="9.7234"/><linearGradient id="h" gradientUnits="userSpaceOnUse" x1="15.7282" x2="19.9323" xlink:href="#a" y1="18.7763" y2="18.7763"/><linearGradient id="i" gradientUnits="userSpaceOnUse" x1="15.5561" x2="20.6137" xlink:href="#a" y1="11.6922" y2="11.6922"/><linearGradient id="j" gradientUnits="userSpaceOnUse" x1=".447435" x2="19.7642" y1="16.0008" y2="16.0008"><stop offset="0" stop-color="#fff9df"/><stop offset=".593" stop-color="#ffe177"/><stop offset="1" stop-color="#feb137"/></linearGradient><linearGradient id="k" gradientUnits="userSpaceOnUse" x1="2.01584" x2="17.7679" y1="17.0808" y2="17.0808"><stop offset="0" stop-color="#ffe177"/><stop offset="1" stop-color="#feb137"/></linearGradient><linearGradient id="l" gradientUnits="userSpaceOnUse" x1="5.125" x2="15.0947" xlink:href="#a" y1="12.645" y2="12.645"/><linearGradient id="m" gradientUnits="userSpaceOnUse" x1="2.68659" x2="17.5315" xlink:href="#a" y1="22.1874" y2="22.1874"/><linearGradient id="n" gradientUnits="userSpaceOnUse" x1="5.3413" x2="18.2692" y1="23.4754" y2="23.4754"><stop offset="0" stop-color="#9e9797"/><stop offset="1" stop-color="#5b5555"/></linearGradient><linearGradient id="o" gradientUnits="userSpaceOnUse" x1="20.1701" x2="31.7273" y1="25.9513" y2="25.9513"><stop offset="0" stop-color="#fe99a0"/><stop offset=".593" stop-color="#fe646f"/><stop offset="1" stop-color="#e41f2d"/></linearGradient><linearGradient id="p" gradientUnits="userSpaceOnUse" x1="24.8579" x2="31.8359" y1="25.9498" y2="25.9498"><stop offset="0" stop-color="#fe646f"/><stop offset=".7043" stop-color="#e41f2d"/><stop offset="1" stop-color="#c41926"/></linearGradient><path d="m16.0948 16.0939c-.5314.5313-.5314 1.3929 0 1.9243l6.4676 6.4676c.5314.5313 1.3929.5313 1.9243 0 .5314-.5314.5314-1.393 0-1.9244l-6.4675-6.4675c-.5314-.5314-1.393-.5314-1.9244 0z" fill="url(#b)"/><path d="m25.9513 12.0979c3.3407 0 6.0489-2.70822 6.0489-6.04896s-2.7082-6.04894-6.0489-6.04894c-3.3408 0-6.049 2.7082-6.049 6.04894s2.7082 6.04896 6.049 6.04896z" fill="url(#c)"/><path d="m23.5294 6.4962-2.7267 2.72665c.2422.39216.5317.76342.8718 1.10355.3219.3219.6718.5984 1.0408.8325l2.7384-2.73837c.5314-.53139.5314-1.39294 0-1.92433s-1.3929-.53139-1.9243 0z" fill="url(#e)"/><path d="m30.2281 1.77029c-1.5024-1.502367-3.5982-2.047685-5.5328-1.639026 1.1072.233914 2.1618.779169 3.0217 1.639026 2.3623 2.36229 2.3623 6.19219 0 8.55451-.8599.8598-1.9145 1.4051-3.0217 1.639 1.9346.4087 4.0304-.1367 5.5328-1.639 2.3623-2.36226 2.3623-6.19222 0-8.55451z" fill="url(#f)"/><path d="m16.0948 13.9194c-.5314-.5314-.5314-1.393 0-1.9244l6.4676-6.46755c.5314-.53139 1.3929-.53139 1.9243 0s.5314 1.39294 0 1.92433l-6.4675 6.46762c-.5314.5313-1.393.5313-1.9244 0z" fill="url(#g)"/><path d="m21.235 19.3135c-.3081.891-.7436 1.7468-1.3083 2.5399l-3.8318-3.8312c-.5315-.5315-.5315-1.3929 0-1.9244.5314-.5314 1.3929-.5314 1.9244 0z" fill="url(#h)"/><path d="m20.6364 11.3063-2.6171 2.6171c-.5315.5314-1.393.5314-1.9244 0-.5315-.5315-.5315-1.393 0-1.9244l2.9371-2.9365c.6494.68706 1.1846 1.4431 1.6044 2.2438z" fill="url(#i)"/><path d="m10.1102 26.111c5.5837 0 10.1102-4.5265 10.1102-10.1102s-4.5265-10.11018-10.1102-10.11018c-5.58372 0-10.1102 4.52648-10.1102 10.11018s4.52648 10.1102 10.1102 10.1102z" fill="url(#j)"/><path d="m17.2589 8.8516c-.2881-.28819-.5897-.55467-.9022-.80082 3.1258 3.96782 2.8593 9.73572-.8008 13.39572-3.6601 3.6601-9.42793 3.9266-13.39574.8009.24608.3124.51262.614.80081.9022 3.9483 3.9483 10.34973 3.9483 14.29793 0 3.9483-3.9483 3.9483-10.3497 0-14.298z" fill="url(#k)"/><path d="m10.1098 17.6299c2.7531 0 4.9849-2.2318 4.9849-4.9849 0-2.75305-2.2318-4.98484-4.9849-4.98484-2.75301 0-4.9848 2.23179-4.9848 4.98484 0 2.7531 2.23179 4.9849 4.9848 4.9849z" fill="url(#l)"/><path d="m2.96003 23.1519c3.9483 3.9483 10.34967 3.9483 14.29797 0 .0936-.0936.1843-.1891.2735-.2854-1.3547-2.7288-4.1693-4.6048-7.4225-4.6048-3.25319 0-6.06781 1.876-7.42248 4.6048.08923.0963.17989.1918.27351.2854z" fill="url(#m)"/><path d="m17.5324 22.8644c-.3702-.7458-.85-1.4271-1.4174-2.0246-.1768.2079-.3627.4106-.559.6069-3.4752 3.4751-8.85018 3.8906-12.78078 1.2483-.02956.0562-.05942.1123-.08772.1693.08916.0963.17989.1918.27351.2854 3.94829 3.9483 10.34969 3.9483 14.29799 0 .0935-.0936.1843-.189.2734-.2853z" fill="url(#n)"/><path d="m25.9513 32.0002c3.3407 0 6.0489-2.7082 6.0489-6.0489 0-3.3408-2.7082-6.049-6.0489-6.049-3.3408 0-6.049 2.7082-6.049 6.049 0 3.3407 2.7082 6.0489 6.049 6.0489z" fill="url(#o)"/><path d="m30.229 21.6726c-1.5023-1.5023-3.5982-2.0477-5.5327-1.639 1.1072.2339 2.1618.7792 3.0217 1.639 2.3623 2.3623 2.3623 6.1922 0 8.5545-.8599.8599-1.9145 1.4052-3.0217 1.639 1.9346.4087 4.0304-.1366 5.5327-1.639 2.3623-2.3623 2.3623-6.1922 0-8.5545z" fill="url(#p)"/></svg>