<svg fill="none" height="32" viewBox="0 0 32 32" width="32" xmlns="http://www.w3.org/2000/svg" xmlns:xlink="http://www.w3.org/1999/xlink"><linearGradient id="a"><stop offset="0" stop-color="#b0e7c9"/><stop offset=".593" stop-color="#46cc8d"/><stop offset="1" stop-color="#0ab69f"/></linearGradient><linearGradient id="b" gradientUnits="userSpaceOnUse" x1=".100517" x2="31.5345" xlink:href="#a" y1="16" y2="16"/><linearGradient id="c"><stop offset="0" stop-color="#46cc8d"/><stop offset=".5484" stop-color="#0ab69f"/><stop offset="1" stop-color="#01998d"/></linearGradient><linearGradient id="d" gradientUnits="userSpaceOnUse" x1=".854436" x2="17.0166" xlink:href="#c" y1="11.6839" y2="11.6839"/><linearGradient id="e" gradientUnits="userSpaceOnUse" x1="25.1598" x2="31.6228" xlink:href="#c" y1="16" y2="16"/><linearGradient id="f" gradientUnits="userSpaceOnUse" x1="33.4591" x2="-1.43176" y1="15.9988" y2="15.9988"><stop offset="0" stop-color="#006e66"/><stop offset=".3925" stop-color="#01998d"/><stop offset="1" stop-color="#09a755"/></linearGradient><linearGradient id="g"><stop offset="0" stop-color="#09a755"/><stop offset=".6075" stop-color="#01998d"/><stop offset="1" stop-color="#006e66"/></linearGradient><linearGradient id="h" gradientUnits="userSpaceOnUse" x1="-5.22991" x2="9.97985" xlink:href="#g" y1="12.7732" y2="12.7732"/><linearGradient id="i" gradientUnits="userSpaceOnUse" x1="9.70469" x2="21.6692" xlink:href="#a" y1="16.0011" y2="16.0011"/><linearGradient id="j" gradientUnits="userSpaceOnUse" x1="15.687" x2="22.903" xlink:href="#c" y1="16.0011" y2="16.0011"/><linearGradient id="k" gradientUnits="userSpaceOnUse" x1="3.15723" x2="8.17681" y1="16.0004" y2="16.0004"><stop offset="0" stop-color="#fff9df"/><stop offset=".593" stop-color="#ffe177"/><stop offset="1" stop-color="#feb137"/></linearGradient><linearGradient id="l"><stop offset="0" stop-color="#ffe177"/><stop offset="1" stop-color="#feb137"/></linearGradient><linearGradient id="m" gradientUnits="userSpaceOnUse" x1="3.13633" x2="7.30781" xlink:href="#l" y1="16.0004" y2="16.0004"/><linearGradient id="n" gradientUnits="userSpaceOnUse" x1="23.8213" x2="28.8409" xlink:href="#l" y1="16.0004" y2="16.0004"/><linearGradient id="o" gradientUnits="userSpaceOnUse" x1="23.9685" x2="29.4277" xlink:href="#g" y1="16.0011" y2="16.0011"/><linearGradient id="p"><stop offset="0" stop-color="#01d0fb"/><stop offset=".6075" stop-color="#26a6fe"/><stop offset="1" stop-color="#0182fc"/></linearGradient><linearGradient id="q" gradientUnits="userSpaceOnUse" x1="2.67413" x2="21.7403" xlink:href="#p" y1="8.62285" y2="8.62285"/><linearGradient id="r"><stop offset="0" stop-color="#01bffa"/><stop offset="1" stop-color="#5b5cff"/></linearGradient><linearGradient id="s" gradientUnits="userSpaceOnUse" x1="11.2147" x2="24.0404" xlink:href="#r" y1="2.50986" y2="2.50986"/><linearGradient id="t" gradientUnits="userSpaceOnUse" x1="3.98573" x2="12.4684" xlink:href="#r" y1="10.7109" y2="10.7109"/><linearGradient id="u" gradientUnits="userSpaceOnUse" x1="4.27241" x2="28.4902" xlink:href="#p" y1="23.3767" y2="23.3767"/><linearGradient id="v" gradientUnits="userSpaceOnUse" x1="5.0613" x2="29.5717" xlink:href="#r" y1="23.3767" y2="23.3767"/><linearGradient id="w" gradientUnits="userSpaceOnUse" x1="1.63053" x2="14.14" xlink:href="#r" y1="27.4014" y2="27.4014"/><clipPath id="x"><path d="m0 0h32v32h-32z"/></clipPath><g clip-path="url(#x)"><path d="m29.9969 26.9803h-27.99389c-1.106259 0-2.00301-.8968-2.00301-2.003v-17.95476c0-1.10619.896751-2.00301 2.00301-2.00301h27.99389c1.1063 0 2.003.89682 2.003 2.00301v17.95476c0 1.1062-.8967 2.003-2.003 2.003z" fill="url(#b)"/><path d="m5.95033 6.12221c-1.49521 1.75749-2.57066 3.88269-3.07262 6.22119h-1.08235c-.58729 0-.992626.4819-.992626.9951 0 .2033.063373.411.203926.5961l3.05944 4.0226c.39655.5214 1.18086.5214 1.57741 0l3.05944-4.0226c.49569-.6526.03075-1.5912-.78933-1.5912h-.71529c.87215-2.79343 3.38277-5.32983 6.03627-6.48748 1.2317-.53835 2.5914-.83639 4.0213-.83639h-10.26068c-.36718.34899-.71648.71661-1.04489 1.10268z" fill="url(#d)"/><path d="m29.996 5.01953h-2.5741c1.1062 0 2.003.89675 2.003 2.00301v17.95476c0 1.1062-.8968 2.003-2.003 2.003h2.5741c1.1062 0 2.003-.8967 2.003-2.003v-17.95476c0-1.10619-.8967-2.00301-2.003-2.00301z" fill="url(#e)"/><path d="m2.43158 10.3085c1.0164-.37046 1.8218-1.19286 2.18352-2.22979.18548-.5317.69791-.87949 1.26099-.87949h20.24921c.563 0 1.0755.34786 1.261.87949.3616 1.03693 1.1671 1.85933 2.1835 2.22979.5229.1907.8622.6989.8622 1.2555v8.8696c0 .5566-.3393 1.0649-.8622 1.2554-1.0164.3706-1.8218 1.1929-2.1835 2.2299-.1855.5317-.698.8795-1.261.8795h-20.24921c-.56308 0-1.07558-.3479-1.26099-.8795-.36166-1.037-1.16712-1.8593-2.18352-2.2299-.52292-.1906-.86224-.6989-.86224-1.2554v-8.8696c0-.5566.33932-1.0648.86224-1.2555z" fill="url(#f)"/><path d="m10.9758 7.19922h-5.1016c-.56308 0-1.07558.34786-1.26099.87949-.1578.45246-.40019.86406-.7077 1.21506-.45233.96233-.80131 1.98293-1.03002 3.04843h-1.08235c-.07881 0-.15404.0093-.22576.0256v2.3058l2.4965 3.2824c.39655.5214 1.18086.5214 1.57741 0l3.05944-4.0226c.49569-.6525.03075-1.5912-.78933-1.5912h-.71529c.61678-1.9753 2.0532-3.82139 3.77969-5.14298z" fill="url(#h)"/><path d="m16.0001 22.2755c3.4653 0 6.2745-2.8091 6.2745-6.2744 0-3.4654-2.8092-6.27454-6.2745-6.27454s-6.27451 2.80914-6.27451 6.27454c0 3.4653 2.80921 6.2744 6.27451 6.2744z" fill="url(#i)"/><path d="m16.0008 9.72656c-.4301 0-.85.04336-1.2557.12581 2.8636.58163 5.0189 3.11343 5.0189 6.14873 0 3.0352-2.1553 5.567-5.0189 6.1486.4057.0825.8256.1258 1.2557.1258 3.4652 0 6.2745-2.8091 6.2745-6.2744 0-3.4654-2.8093-6.27454-6.2745-6.27454z" fill="url(#j)"/><path d="m7.07878 14.9023h-2.82352c-.60643 0-1.09803.4917-1.09803 1.0981s.4916 1.098 1.09803 1.098h2.82352c.60643 0 1.09803-.4916 1.09803-1.098s-.4916-1.0981-1.09803-1.0981z" fill="url(#k)"/><path d="m6.29504 17.0984 1.48053-1.9466c-.18955-.1558-.43219-.2495-.69678-.2495h-2.82353c-.60643 0-1.09803.4917-1.09803 1.0981s.4916 1.098 1.09803 1.098z" fill="url(#m)"/><path d="m27.7429 14.9023h-2.8236c-.6064 0-1.098.4917-1.098 1.0981s.4916 1.098 1.098 1.098h2.8236c.6064 0 1.098-.4916 1.098-1.098s-.4916-1.0981-1.098-1.0981z" fill="url(#n)"/><path d="m29.569 10.3108c-.0484-.0176-.0958-.0372-.1432-.0569v11.4943c.0474-.0196.0948-.0392.1432-.0569.5229-.1906.8622-.6989.8622-1.2555v-8.8695c0-.5566-.3393-1.0649-.8622-1.2555z" fill="url(#o)"/><path d="m26.853 5.0196h-6.8305c-1.2316-.53773-2.5919-.83639-4.0225-.83639-1.43 0-2.7897.29804-4.0214.83639-2.65344 1.15764-4.71085 3.42776-5.583 6.2212h.71529c.82007 0 1.28502.9386.78933 1.5912l-3.05944 4.0226c-.39655.5214-1.18087.5214-1.57741 0l-3.059449-4.0226c-.1405486-.1851-.203921-.3928-.203921-.5961 0-.5133.405333-.9951.992625-.9951h1.082355c.50196-2.33854 1.5774-4.46372 3.07262-6.2212 2.3567-2.77082 5.7556-4.628071 9.5906-4.9643844h.0006c.0088-.0006275.0176-.0018824.0263-.0018824.0948-.0087843.1902-.0156862.2862-.0219607.3137-.0207059.6299-.0313725.9487-.0313725 4.3482 0 8.2409 1.94829 10.853 5.0196z" fill="url(#q)"/><path d="m26.8534 5.0196h-2.5117c-2.3592-2.77333-5.7631-4.630581-9.6024-4.9643844.0087-.0006275.0175-.0018824.0263-.0018824.0948-.0087843.1901-.0156862.2861-.0219607.3138-.0207059.63-.0313725.9487-.0313725 4.3483 0 8.2409 1.94829 10.853 5.0196z" fill="url(#s)"/><path d="m14.743 4.25749c-.411-.05114-.8297-.0778-1.2546-.0778-4.25217 0-7.88811 2.6383-9.36049 6.36721-.13088.3314.11533.6905.47166.6905.8197 0 1.28508.9385.78883 1.591l-2.5925 3.409.4667.6136c.39661.5216 1.18111.5216 1.57772 0l3.05913-4.0227c.49619-.6525.03087-1.5909-.78883-1.5909h-.71548c1.1567-3.70362 4.39656-6.48755 8.34786-6.97991z" fill="url(#t)"/><path d="m31.9991 19.7636c0 .5133-.4053.9952-.9926.9952h-1.0824c-.5019 2.3385-1.5774 4.4636-3.0726 6.2211-2.6121 3.0714-6.5048 5.0196-10.8524 5.0196-4.3482 0-8.24089-1.9482-10.85359-5.0196h6.83169c1.2317.5377 2.592.8364 4.0219.8364 1.43 0 2.7897-.298 4.0214-.8364 2.6534-1.1576 4.7102-3.4277 5.583-6.2211h-.7153c-.8201 0-1.285-.9387-.7893-1.5913l1.9012-2.5003 1.1582-1.5222c.3966-.5214 1.1809-.5214 1.5774 0l1.4915 1.9607 1.568 2.0618c.1405.1851.2039.3928.2039.5961z" fill="url(#u)"/><path d="m31.7958 19.1675-1.568-2.0618-1.4914-1.9607c-.3966-.5214-1.1809-.5214-1.5775 0l-.4668.6135 1.0246 1.3472 1.568 2.0618c.4964.6526.0308 1.5913-.7887 1.5913h-.0243c-.6087 0-1.1379.4062-1.3083.9906-1.613 5.5341-6.4935 9.6755-12.4134 10.195.4119.0358.8285.0551 1.2498.0551 6.836 0 12.5464-4.8163 13.9249-11.2407h1.0824c.8194 0 1.285-.9386.7887-1.5913z" fill="url(#v)"/><path d="m11.9772 26.9844h-6.83169c.24508.2881.50146.5663.76837.834h9.90022c-1.3622-.0246-2.6585-.3195-3.8369-.834z" fill="url(#w)"/></g></svg>