<svg fill="none" height="32" viewBox="0 0 32 32" width="32" xmlns="http://www.w3.org/2000/svg" xmlns:xlink="http://www.w3.org/1999/xlink"><linearGradient id="a"><stop offset="0" stop-color="#fff9df"/><stop offset=".593" stop-color="#ffe177"/><stop offset="1" stop-color="#feb137"/></linearGradient><linearGradient id="b" gradientUnits="userSpaceOnUse" x1="16.0107" x2="20.3068" xlink:href="#a" y1="24.2094" y2="24.2094"/><linearGradient id="c"><stop offset="0" stop-color="#f2fbff"/><stop offset=".593" stop-color="#faf7f7"/><stop offset="1" stop-color="#f3eae6"/></linearGradient><linearGradient id="d" gradientUnits="userSpaceOnUse" x1="13.8779" x2="18.9603" xlink:href="#c" y1="27.9626" y2="27.9626"/><linearGradient id="e"><stop offset="0" stop-color="#f3eae6"/><stop offset="1" stop-color="#cdbfba"/></linearGradient><linearGradient id="f" gradientUnits="userSpaceOnUse" x1="14.5054" x2="24.2969" xlink:href="#e" y1="27.8884" y2="27.8884"/><linearGradient id="g" gradientUnits="userSpaceOnUse" x1="14.5677" x2="26.6711" xlink:href="#a" y1="9.94697" y2="9.94697"/><linearGradient id="h" gradientUnits="userSpaceOnUse" x1="14.5682" x2="25.3125" y1="9.1854" y2="9.1854"><stop offset="0" stop-color="#ffe177"/><stop offset="1" stop-color="#feb137"/></linearGradient><linearGradient id="i" gradientUnits="userSpaceOnUse" x1="2.08106" x2="23.478" xlink:href="#c" y1="14.9357" y2="14.9357"/><linearGradient id="j" gradientUnits="userSpaceOnUse" x1="14.1301" x2="24.985" xlink:href="#e" y1="10.5211" y2="10.5211"/><linearGradient id="k"><stop offset="0" stop-color="#fe99a0"/><stop offset=".593" stop-color="#fe646f"/><stop offset="1" stop-color="#e41f2d"/></linearGradient><linearGradient id="l" gradientUnits="userSpaceOnUse" x1="1.14024" x2="5.23072" xlink:href="#k" y1="25.7788" y2="25.7788"/><linearGradient id="m" gradientUnits="userSpaceOnUse" x1="1.24206" x2="14.0647" xlink:href="#k" y1="21.1804" y2="21.1804"/><linearGradient id="n" gradientUnits="userSpaceOnUse" x1="11.5558" x2="26.3584" xlink:href="#k" y1="9.83053" y2="9.83053"/><linearGradient id="o" gradientUnits="userSpaceOnUse" x1="23.844" x2="25.5476" xlink:href="#a" y1="2.52203" y2=".818435"/><linearGradient id="p" gradientUnits="userSpaceOnUse" x1="27.6183" x2="29.3219" xlink:href="#a" y1="4.59203" y2="6.29561"/><linearGradient id="q" gradientUnits="userSpaceOnUse" x1="26.1575" x2="28.5664" xlink:href="#a" y1="2.77574" y2="2.77574"/><clipPath id="r"><path d="m0 0h32v32h-32z"/></clipPath><g clip-path="url(#r)"><path d="m17.758 22.8047-1.8596 1.8596c1.0606 1.2169 2.9092 1.2643 4.0311.1424.0047-.0047.0093-.0094.0141-.0141.3747-.3801.1406-1.0172-.3876-1.0943-.661-.0964-1.3231-.4187-1.798-.8936z" fill="url(#b)"/><path d="m16.637 23.9258 4.7218 4.7218c.7668.7668.7668 2.0099 0 2.7767-.7667.7667-2.0099.7667-2.7766 0l-4.7218-4.7219z" fill="url(#d)"/><path d="m13.8604 26.7025.2821.2822c.7169.7168 1.8744.7215 2.6028.0163.0322-.0311.0641-.0625.0959-.0943l.3234-.3235 3.1292 3.1292c.5781.5781.7199 1.4272.4263 2.1385.2323-.0959.4499-.2379.6387-.4266.7667-.7668.7667-2.01 0-2.7767l-4.7219-4.7218z" fill="url(#f)"/><path d="m20.195 16.4916c3.6145 0 6.5446-2.9301 6.5446-6.54463 0-3.6145-2.9301-6.54463-6.5446-6.54463s-6.5446 2.93013-6.5446 6.54463c0 3.61453 2.9301 6.54463 6.5446 6.54463z" fill="url(#g)"/><path d="m15.3213 5.58251 9.2415 9.24149c.0884-.0794.1754-.1615.2605-.2465.9309-.9309 1.5223-2.0724 1.775-3.2712l-7.7593-7.75942c-1.1987.2528-2.3403.84423-3.2712 1.77505-.0851.08515-.1671.17211-.2465.26058z" fill="url(#h)"/><path d="m8.95591 9.6108.00151.00044-4.70488 4.70486c-3.19479 3.1948-3.19479 8.3745 0 11.5693s8.37456 3.1948 11.56936 0l4.7048-4.7048.0005.0015c1.8853-1.837 4.4372-2.5834 6.8642-2.2385l1.1567-1.1567-16.1971-16.19706-1.1566 1.15665c.3449 2.4271-.4016 4.97895-2.23849 6.86431z" fill="url(#i)"/><path d="m12.353 1.58984 16.1971 16.19706-1.1565 1.1565c-1.4147-.2013-2.8719-.0315-4.2149.509l-12.4912-12.49114c.5405-1.34299.7103-2.80025.5091-4.21496z" fill="url(#j)"/><path d="m6.68245 26.2337-1.29167 1.2917c-.76674.7667-2.00991.7667-2.77666 0-.76674-.7668-.76674-2.0099 0-2.7767l1.29167-1.2917z" fill="url(#l)"/><path d="m16.0698 25.6435-11.56944-11.5693-.24684.2469c-3.1948 3.1948-3.1948 8.3745 0 11.5693 3.19479 3.1948 8.37458 3.1948 11.56928 0z" fill="url(#m)"/><path d="m26.7898 19.086-15.7343-15.73428c-.7667-.76675-.7667-2.00992 0-2.776661.7668-.766745 2.0099-.766745 2.7767 0l15.7343 15.734241c.7667.7668.7667 2.0099 0 2.7767-.7668.7667-2.01.7667-2.7767 0z" fill="url(#n)"/><path d="m24.6958 3.11397c-.3465 0-.6274-.28091-.6274-.62745v-1.632506c0-.346542.2809-.627452.6274-.627452.3466 0 .6275.28091.6275.627452v1.632506c0 .34654-.2809.62745-.6275.62745z" fill="url(#o)"/><path d="m29.2863 6.07131h-1.6325c-.3465 0-.6274-.28091-.6274-.62745s.2809-.62745.6274-.62745h1.6325c.3465 0 .6275.28091.6275.62745s-.281.62745-.6275.62745z" fill="url(#p)"/><path d="m26.3439 3.79965c-.245-.24502-.245-.64233 0-.88735l1.1544-1.15432c.245-.24502.6423-.24502.8873 0s.2451.64232 0 .88734l-1.1543 1.15433c-.245.24502-.6423.24502-.8874 0z" fill="url(#q)"/></g></svg>