<svg viewBox="0 0 250 250" xmlns="http://www.w3.org/2000/svg" xmlns:xlink="http://www.w3.org/1999/xlink"><radialGradient id="a" cx="105.33" cy="196.67" fx="105.33" fy="196.67" gradientUnits="userSpaceOnUse" r="80.1"><stop offset="0" stop-color="#a36df8"/><stop offset="1" stop-color="#5f29e7"/></radialGradient><radialGradient id="b" cx="106.6" fx="106.6" r="79.38" xlink:href="#a"/><radialGradient id="c" cx="105.76" cy="196.66" fx="105.76" fy="196.66" r="84.19" xlink:href="#a"/><radialGradient id="d" cx="129.8" cy="183.02" fx="129.8" fy="183.02" r="73.95" xlink:href="#a"/><radialGradient id="e" cx="129.8" cy="180.34" fx="129.8" fy="180.34" r="80.37" xlink:href="#a"/><radialGradient id="f" cx="33.64" fx="33.64" r="84.19" xlink:href="#a"/><radialGradient id="g" cx="83.48" cy="40.33" fx="83.48" fy="40.33" r="232.71" xlink:href="#a"/><radialGradient id="h" cx="74.54" cy="88.02" fx="74.54" fy="88.02" r="208.5" xlink:href="#a"/><radialGradient id="i" cx="154" cy="88.02" fx="154" fy="88.02" r="180.64" xlink:href="#a"/><radialGradient id="j" cx="147.59" cy="167.57" fx="147.59" fy="167.57" r=".1" xlink:href="#a"/><radialGradient id="k" cx="170.95" cy="166.86" fx="170.95" fy="166.86" r="77.34" xlink:href="#a"/><radialGradient id="l" cx="170.8" cy="164.21" fx="170.8" fy="164.21" r="80.79" xlink:href="#a"/><path d="m75.56 110.88h16.98v65.25h-16.98z" fill="url(#a)"/><path d="m99.6 110.88h16.98v65.25h-16.98z" fill="url(#b)"/><path d="m140.61 110.88v59.9l-5.34 5.35h-11.64v-65.25z" fill="url(#c)"/><path d="m164.66 154.24v21.89h-16.98v-4.91l3.56-3.56z" fill="url(#d)"/><path d="m164.66 110.88v35.85l-16.98 16.98v-52.83z" fill="url(#e)"/><path d="m51.52 110.88h16.98v65.25h-16.98z" fill="url(#f)"/><path d="m178.39 92.76-63.28-36.09c-3.68-2.1-8.18-2.13-11.89-.08l-65.23 36.06c-14.92 8.25-9.07 30.95 7.98 30.95h124.24c16.93 0 22.89-22.45 8.18-30.84zm-70.3 8.95c-6.83 0-12.37-5.54-12.37-12.37s5.54-12.37 12.37-12.37 12.37 5.54 12.37 12.37-5.54 12.37-12.37 12.37z" fill="url(#g)"/><path d="m133.83 185.08 8.99 8.99h-99.47c-5.12 0-9.25-4.14-9.25-9.25v-7.9c0-5.1 4.14-9.25 9.25-9.25h100.39l-3.12 3.12-5.35 5.35-5.19 5.19 3.76 3.76z" fill="url(#h)"/><path d="m182.09 176.92v7.9c0 5.12-4.15 9.25-9.27 9.25h-22.5l-12.75-12.75 10.1-10.1 3.56-3.56h21.59c5.12 0 9.27 4.15 9.27 9.25z" fill="url(#i)"/><path d="m147.68 167.47v.19h-.19z" fill="url(#j)"/><path d="m184.67 169.01v24.62c0 .81-.66 1.47-1.47 1.47h-14.57c-.81 0-1.47.66-1.47 1.47v10.8c0 1.31-1.58 1.96-2.5 1.04l-26.05-26.05c-.57-.57-.57-1.5 0-2.07l9.07-9.07 3.56-3.56 13.43-13.43c.92-.92 2.5-.27 2.5 1.04v10.8c0 .81.66 1.47 1.47 1.47h14.57c.81 0 1.47.66 1.47 1.47z" fill="url(#k)"/><path d="m147.49 167.66h.19v-.19z" fill="#fff"/><path d="m174.05 135.79h13.45c1.12 0 2.03-.91 2.03-2.03v-8.89c0-1.81 2.18-2.71 3.46-1.43l24.69 24.69c.79.79.79 2.07 0 2.87l-24.69 24.69c-1.28 1.28-3.46.37-3.46-1.43v-8.89c0-1.12-.91-2.03-2.03-2.03h-13.45c-1.12 0-2.03-.91-2.03-2.03v-23.5c0-1.12.91-2.03 2.03-2.03z" fill="url(#l)"/></svg>