<svg width="45" height="46" viewBox="0 0 45 46" xmlns="http://www.w3.org/2000/svg">
    <g fill-rule="nonzero" fill="none">
        <path d="M25.377 1.04C19.318.667 13.092 2.925 8.776 8.2a.75.75 0 0 0-.141.742.729.729 0 0 0 1.27.205c6.408-7.83 17.36-8.47 24.944-3.44 7.585 5.028 11.9 15.64 4.69 30.887a.75.75 0 0 0 .05.747.73.73 0 0 0 1.274-.107c7.425-15.706 2.965-27.35-5.21-32.77A20.975 20.975 0 0 0 25.377 1.04zM7.244 10.722a.732.732 0 0 0-.651.374c-2.18 3.719-2.8 8.537-5.823 13.177a.75.75 0 0 0-.051.747.73.73 0 0 0 1.275.071c3.224-4.948 3.914-9.92 5.86-13.237a.751.751 0 0 0 .018-.745.732.732 0 0 0-.628-.387z" stroke="#8F5ED6" stroke-width=".5" fill="#8F5ED6"/>
        <path d="M23.89 19.14c-.508 0-1.028.147-1.498.478-.942.662-1.593 1.944-1.839 3.936-.17 1.376-.156 2.94-.978 5.805-.815 2.843-1.79 4.18-2.918 6.066a.767.767 0 0 0-.02.75.728.728 0 0 0 .622.391.725.725 0 0 0 .641-.357c1.093-1.826 2.205-3.392 3.075-6.429.864-3.014.875-4.822 1.025-6.037.215-1.743.754-2.563 1.216-2.888.462-.325.941-.284 1.409-.025.23.136.514.133.741-.008a.754.754 0 0 0 .351-.67.75.75 0 0 0-.401-.64 2.94 2.94 0 0 0-1.426-.371zm2.172 2.282a.723.723 0 0 0-.527.276.764.764 0 0 0-.154.586c.08.6.058 1.372-.073 2.255-.266 1.805-.971 4.064-1.96 6.386a.757.757 0 0 0 .377.987c.369.166.799-.007.96-.386 1.025-2.407 1.771-4.757 2.067-6.762.144-.982.183-1.882.074-2.686a.735.735 0 0 0-.764-.656zm-3.255 12.113a.728.728 0 0 0-.681.439c-1.562 3.39-4.385 6.696-6.3 8.576a.763.763 0 0 0-.205.72c.062.26.254.467.505.542.25.075.52.008.709-.178 2.01-1.974 4.916-5.345 6.609-9.02.109-.23.097-.5-.031-.718a.726.726 0 0 0-.606-.361zm-6.84 3.556a.723.723 0 0 0-.608.316 34.326 34.326 0 0 1-2.91 3.538.763.763 0 0 0-.201.74c.07.265.277.47.538.532a.718.718 0 0 0 .712-.235 35.826 35.826 0 0 0 3.039-3.69.766.766 0 0 0 .074-.78.728.728 0 0 0-.644-.421z" fill="#EF689B"/>
        <path d="M23.055 15.694a5.899 5.899 0 0 0-2.354.73c-1.473.831-2.638 2.388-3.108 4.628a.737.737 0 1 0 1.443.305c.4-1.902 1.296-3.025 2.386-3.64 1.09-.616 2.417-.72 3.685-.37 2.535.7 4.722 3.098 4.053 6.626l-.002.012-.002.014a36.578 36.578 0 0 1-1.466 6.072.742.742 0 0 0 .464.938.736.736 0 0 0 .933-.466 38.112 38.112 0 0 0 1.52-6.303c.8-4.246-1.927-7.44-5.109-8.32a6.802 6.802 0 0 0-2.443-.225zm-5.37 8.167a.738.738 0 0 0-.702.618c-.39 2.132-.828 4.325-1.833 6.633a.744.744 0 0 0 .064.755.735.735 0 0 0 1.286-.16c1.079-2.48 1.539-4.813 1.932-6.96a.744.744 0 0 0-.16-.624.735.735 0 0 0-.586-.262zm9.667 8.409a.737.737 0 0 0-.675.457c-2.226 5.184-5.13 8.467-6.752 10.689a.744.744 0 0 0-.098.748.737.737 0 0 0 1.286.128c1.532-2.097 4.596-5.572 6.917-10.979a.744.744 0 0 0-.055-.707.736.736 0 0 0-.623-.336zM14.33 33.427a.736.736 0 0 0-.591.353c-1.03 1.639-2.422 3.346-4.355 5.127a.743.743 0 0 0 .271 1.263.734.734 0 0 0 .725-.171c2.019-1.86 3.5-3.67 4.604-5.426a.744.744 0 0 0 .023-.775.736.736 0 0 0-.677-.37z" fill="#EF689B"/>
        <path d="M22.207 11.862a9.175 9.175 0 0 0-3.741 1.218C16.17 14.442 14.433 16.96 14 20.568c-.903 6.871-3.151 12.373-7.667 15.896a.756.756 0 0 0 .161 1.284c.24.103.517.066.724-.095 4.914-3.834 7.296-9.793 8.228-16.886v-.01c.383-3.226 1.84-5.252 3.75-6.386 1.911-1.134 4.325-1.352 6.59-.72.253.073.524.001.71-.187a.76.76 0 0 0 .193-.724.738.738 0 0 0-.518-.53c-1.3-.363-2.651-.486-3.965-.348zm6.598 1.597a.733.733 0 0 0-.687.554c-.083.32.05.659.326.83a9.275 9.275 0 0 1 3.102 3.292.728.728 0 0 0 .633.399.726.726 0 0 0 .646-.377.762.762 0 0 0-.012-.761 10.758 10.758 0 0 0-3.592-3.816.717.717 0 0 0-.416-.121zm4.392 6.092a.723.723 0 0 0-.598.28.76.76 0 0 0-.135.66c.346 1.418.411 3.04.087 4.866a47.513 47.513 0 0 1-.703 2.928.76.76 0 0 0 .169.74.718.718 0 0 0 .714.206.739.739 0 0 0 .521-.542c.269-.978.513-1.99.73-3.036l.003-.01.002-.012c.36-2.02.292-3.867-.108-5.505a.734.734 0 0 0-.682-.575zm-2.274 12.986a.73.73 0 0 0-.66.474c-1.775 4.442-4.057 7.991-6.366 10.755a.76.76 0 0 0 .08 1.054.719.719 0 0 0 1.03-.081c2.4-2.875 4.77-6.563 6.608-11.162a.762.762 0 0 0-.068-.714.725.725 0 0 0-.624-.326z" stroke="#8F5ED6" stroke-width=".5" fill="#8F5ED6"/>
        <path d="M22.278 8.371c-4.418.322-8.602 2.707-10.578 7.365-.11.244-.08.53.077.746a.73.73 0 0 0 1.27-.164c2.339-5.512 8.074-7.386 13.319-6.147 5.237 1.237 9.846 5.534 9.859 12.633-.68 6.47-3.56 12.89-5.805 16.842-.13.23-.13.512.002.74a.732.732 0 0 0 1.27-.004c2.32-4.085 5.293-10.652 5.998-17.472l.005-.039v-.038c.001-7.775-5.189-12.732-10.995-14.104a14.647 14.647 0 0 0-4.422-.358zm-10.92 10.79a.735.735 0 0 0-.711.602c-1.96 9.627-5.088 11.868-6.32 12.154a.735.735 0 0 0-.561.5.745.745 0 0 0 .167.738.728.728 0 0 0 .722.203c2.194-.508 5.417-3.415 7.428-13.296a.746.746 0 0 0-.147-.627.73.73 0 0 0-.578-.273z" stroke="#8F5ED6" stroke-width=".5" fill="#8F5ED6"/>
        <path d="M24.715 4.474a.742.742 0 0 0-.722.726.742.742 0 0 0 .685.762c2.047.156 4.088.685 5.98 1.566.24.111.52.085.735-.069a.748.748 0 0 0-.118-1.285 18.786 18.786 0 0 0-6.487-1.696.73.73 0 0 0-.073 0v-.004zm-3.885.143a.728.728 0 0 0-.125.01c-4.392.675-8.48 3.064-10.93 7.289l-.018.029-.014.028c-1.595 3.414-2.215 6.68-3.05 9.499-.837 2.82-1.85 5.156-4.201 6.993a.748.748 0 0 0 .16 1.297c.251.1.536.055.743-.119 2.673-2.09 3.844-4.818 4.711-7.742.864-2.914 1.469-6.055 2.96-9.258 2.214-3.797 5.851-5.927 9.86-6.543a.743.743 0 0 0 .63-.786.741.741 0 0 0-.726-.697zm13.304 3.394a.74.74 0 0 0-.707.534.749.749 0 0 0 .305.836c4.867 3.279 7.137 9.199 6.11 15.623l-.004.018-.002.017c-.328 2.963-1.393 5.94-2.593 8.897a.748.748 0 0 0 .402.973.736.736 0 0 0 .964-.407c1.212-2.985 2.331-6.075 2.69-9.271 1.1-6.909-1.375-13.47-6.748-17.09a.734.734 0 0 0-.417-.13z" stroke="#8F5ED6" stroke-width=".5" fill="#8F5ED6"/>
    </g>
</svg>
