<svg width="24" height="25" viewBox="0 0 24 25" fill="none" xmlns="http://www.w3.org/2000/svg">
<path d="M7.38013 21.6372C4.60791 21.7843 4.67388 20.2236 4.60791 19.4922H9.40989V21.6372H7.38013Z" fill="#6725F4"/>
<path d="M4.45068 17.9183V20.4452C4.45068 21.2736 5.12226 21.9452 5.95068 21.9452H18.5423C19.3707 21.9452 20.0423 21.2736 20.0423 20.4452V6.41699" stroke="url(#paint0_linear_8226_73574)" stroke-linecap="round"/>
<path d="M4.45068 17.9183V20.4452C4.45068 21.2736 5.12226 21.9452 5.95068 21.9452H18.5423C19.3707 21.9452 20.0423 21.2736 20.0423 20.4452V6.41699" stroke="#6725F4" stroke-linecap="round"/>
<path d="M3.95752 4.5042C3.95752 4.1176 4.27092 3.8042 4.65752 3.8042H17.5704C17.957 3.8042 18.2704 4.1176 18.2704 4.5042V18.9703C18.2704 19.3569 17.957 19.6703 17.5704 19.6703H4.65752C4.27092 19.6703 3.95752 19.3569 3.95752 18.9703V4.5042Z" fill="#6725F4"/>
<path d="M5.36475 20.553C5.36475 20.0655 5.75989 19.6704 6.24731 19.6704H13.1808V21.4355H6.24732C5.75989 21.4355 5.36475 21.0404 5.36475 20.553V20.553Z" fill="white"/>
<path d="M9.1572 14.1857C6.11528 11.3918 6.4115 8.87819 7.03151 8.07226C7.35774 7.68354 8.02507 7.47581 8.19864 7.50283C8.94144 7.43602 9.65513 8.9582 9.89393 9.59543L8.82844 11.0854C9.39894 12.7969 11.2928 14.0384 12.0787 14.3587L13.3132 13.3177H13.6852C15.5037 13.9128 15.8217 15.0686 15.3957 15.6964C14.3084 17.1312 12.1991 16.9796 9.1572 14.1857Z" fill="white"/>
<path d="M15.5637 14.1314C15.0653 13.6752 14.4544 13.3004 13.7481 13.0173L13.748 13.0172C13.5106 12.9222 13.2343 12.9744 13.0445 13.1505C12.8408 13.3397 12.5089 13.6717 12.0849 14.1779C12.0584 14.2094 12.0121 14.2168 11.9746 14.1959C11.358 13.8486 10.7791 13.4063 10.2539 12.8812C9.72822 12.3554 9.28658 11.7765 8.94109 11.1604C8.92003 11.1229 8.92758 11.0766 8.95898 11.0501C9.46471 10.6256 9.79598 10.2938 9.98491 10.0903C10.1607 9.90056 10.213 9.62462 10.1179 9.38712C9.83479 8.68076 9.4599 8.06982 9.00376 7.57133C8.68888 7.22728 8.20988 7.08414 7.78325 7.20693C7.44278 7.30495 7.11683 7.50873 6.81424 7.81278C6.3675 8.26167 6.14208 8.89597 6.19546 9.55275C6.32121 11.0962 7.27865 12.9 8.75669 14.3781C10.2711 15.8925 12.1102 16.8525 13.6762 16.9462C13.7197 16.9488 13.7631 16.95 13.8065 16.95C14.3458 16.95 14.8659 16.7498 15.2499 16.3905C15.5942 16.0684 15.8223 15.719 15.9281 15.3518C16.0507 14.9253 15.9077 14.4463 15.5636 14.1313L15.5637 14.1314ZM15.4332 15.2094C15.3536 15.4859 15.1735 15.7567 14.8981 16.0143C14.5859 16.3064 14.1512 16.4586 13.7072 16.432C12.2632 16.3457 10.5489 15.4417 9.12117 14.0139C7.7269 12.6196 6.8252 10.9363 6.70913 9.51083C6.66788 9.00446 6.83933 8.51796 7.17958 8.17601C7.41944 7.93493 7.67058 7.7754 7.92582 7.70189C7.98108 7.68601 8.03827 7.67825 8.09569 7.67825C8.28734 7.67825 8.48222 7.76441 8.6237 7.91905C9.04386 8.37808 9.37619 8.92097 9.63977 9.57869C9.66133 9.6323 9.64853 9.69553 9.60729 9.73994C9.42843 9.93273 9.11327 10.2481 8.62787 10.6556C8.40712 10.8409 8.34985 11.1592 8.49184 11.4123C8.86047 12.0695 9.33072 12.6863 9.88984 13.2453C10.4481 13.8036 11.0646 14.2744 11.7221 14.6446C11.9757 14.7875 12.2944 14.7302 12.4801 14.5085C12.887 14.0227 13.2024 13.7071 13.3953 13.5278C13.4398 13.4865 13.5037 13.4738 13.5567 13.4953C14.2142 13.759 14.7571 14.0914 15.2161 14.5113C15.417 14.6953 15.5022 14.9693 15.4332 15.2093L15.4332 15.2094Z" fill="white"/>
<defs>
<linearGradient id="paint0_linear_8226_73574" x1="-2.10947" y1="6.13314" x2="-4.31304" y2="14.3258" gradientUnits="userSpaceOnUse">
<stop stop-color="white" stop-opacity="0.94"/>
<stop offset="1" stop-color="white" stop-opacity="0.192185"/>
</linearGradient>
</defs>
</svg>
