<svg width="15" height="15" viewBox="0 0 15 15" fill="none" xmlns="http://www.w3.org/2000/svg">
<path d="M14.4184 10.7034V13.8045C14.4184 13.8663 14.4094 13.9237 14.3961 13.9766C14.3334 14.281 14.0605 14.5104 13.7384 14.5104L0.88271 14.5103C0.538131 14.5103 0.25185 14.25 0.21602 13.9191C0.207031 13.8794 0.207031 13.8442 0.207031 13.8V10.6988C0.207031 10.3326 0.511291 10.0371 0.878227 10.0371C1.06163 10.0371 1.23169 10.1121 1.35254 10.2312C1.47339 10.3504 1.54943 10.518 1.54943 10.6988V13.1823H13.0806V10.6988C13.0806 10.3326 13.3848 10.0371 13.7518 10.0371C13.9352 10.0371 14.1052 10.1121 14.2261 10.2312C14.3424 10.3549 14.4185 10.5226 14.4185 10.7033L14.4184 10.7034Z" fill="#6725F4"/>
<path d="M11.1835 7.58094L7.88566 10.832C7.88117 10.8409 7.87218 10.8453 7.86781 10.8496C7.74695 10.9688 7.59039 11.0437 7.43383 11.0658C7.42035 11.0658 7.40699 11.0702 7.3935 11.0702C7.36666 11.0746 7.33982 11.0746 7.31298 11.0746L7.23694 11.0702C7.22346 11.0702 7.2101 11.0658 7.19662 11.0658C7.03556 11.0437 6.88337 10.9688 6.76264 10.8496C6.75814 10.8452 6.74916 10.8363 6.74479 10.832L3.44698 7.58094C3.29478 7.43091 3.21875 7.23249 3.21875 7.03398C3.21875 6.83545 3.29478 6.6369 3.44698 6.48702C3.75124 6.18707 4.2479 6.18707 4.55665 6.48702L6.53892 8.4412L6.5388 1.28174C6.5388 0.858223 6.89226 0.509766 7.32186 0.509766C7.5366 0.509766 7.73349 0.598016 7.87668 0.734758C8.01989 0.875934 8.10491 1.0656 8.10491 1.28172V8.44119L10.0872 6.487C10.3914 6.18705 10.8881 6.18705 11.1969 6.487C11.4878 6.79139 11.4878 7.281 11.1835 7.58096L11.1835 7.58094Z" fill="#6725F4"/>
</svg>
