<svg width="24" height="24" viewBox="0 0 24 24" fill="none" xmlns="http://www.w3.org/2000/svg">
<mask id="mask0_28160_42081" style="mask-type:alpha" maskUnits="userSpaceOnUse" x="0" y="0" width="24" height="24">
<rect x="0.5" y="0.5" width="23" height="23" fill="#D9D9D9" stroke="#6725F4"/>
</mask>
<g mask="url(#mask0_28160_42081)">
<path d="M19.1579 15.2738V19.0082C19.1579 19.5554 18.9179 19.7954 18.3803 19.7954C17.7659 19.7954 17.1515 19.7954 16.5467 19.7954H16.5275C16.1147 19.7954 15.7979 19.4786 15.7979 19.0658V12.4322C15.7979 11.9234 16.0475 11.6738 16.5563 11.6738C17.1899 11.6738 17.8139 11.6738 18.4475 11.6738C18.9083 11.6738 19.1675 11.933 19.1675 12.3938V12.7298C19.1675 13.5842 19.1675 14.429 19.1675 15.2834L19.1579 15.2738Z" stroke="#6725F4" stroke-width="1.4" stroke-linecap="round" stroke-linejoin="round"/>
<path d="M13.5425 19.0082C13.5425 19.4018 13.3409 19.5938 12.9953 19.7186C12.7457 19.805 12.5057 19.7858 12.2561 19.7858C11.8145 19.7858 11.3729 19.7858 10.9313 19.7858H10.9121C10.4321 19.7858 10.1825 19.5266 10.1729 19.0466C10.1729 18.4322 10.1729 16.9154 10.1729 16.2914C10.1729 15.6866 10.1729 15.0818 10.1729 14.477C10.1729 13.9586 10.4225 13.709 10.9313 13.709C11.5553 13.709 12.1793 13.709 12.8033 13.709C13.2641 13.709 13.5329 13.9682 13.5329 14.4194V14.7554C13.5329 16.013 13.5329 17.885 13.5329 19.0082H13.5425Z" stroke="#6725F4" stroke-width="1.4" stroke-linecap="round" stroke-linejoin="round"/>
<path d="M7.87809 19.0754C7.87809 19.469 7.55169 19.7858 7.16769 19.7858C6.86049 19.7858 6.55329 19.7858 6.24609 19.7858C5.93889 19.7858 5.65089 19.7858 5.35329 19.7858H5.30529C4.87329 19.7858 4.61409 19.517 4.60449 19.085C4.60449 18.5858 4.60449 17.1746 4.60449 16.6754C4.60449 16.253 4.86369 15.9842 5.29569 15.9842C5.92929 15.9842 6.56289 15.9842 7.20609 15.9842C7.63809 15.9842 7.88769 16.2434 7.89729 16.6754C7.89729 16.7714 7.89729 16.8866 7.89729 17.0306C7.89729 17.6642 7.89729 18.6722 7.89729 19.085L7.87809 19.0754Z" stroke="#6725F4" stroke-width="1.4" stroke-linecap="round" stroke-linejoin="round"/>
<path d="M17.416 6.79004L15.9346 5.64551L17.8867 4.8584L17.416 6.79004Z" fill="#6725F4" stroke="#6725F4" stroke-width="1.4"/>
<path d="M16.2784 6.58582C14.1472 9.98422 10.2016 11.9042 6.352 12.5474C5.5744 12.6722 4.7872 12.7874 4 12.749" stroke="#6725F4" stroke-width="1.4" stroke-linecap="round" stroke-linejoin="round"/>
</g>
</svg>
