<svg width="25" height="24" viewBox="0 0 25 24" fill="none" xmlns="http://www.w3.org/2000/svg">
<mask id="mask0_28109_37410" style="mask-type:alpha" maskUnits="userSpaceOnUse" x="0" y="0" width="25" height="24">
<rect x="0.902344" y="0.5" width="23" height="23" fill="#D9D9D9" stroke="#6725F4"/>
</mask>
<g mask="url(#mask0_28109_37410)">
<path d="M9.75914 5H5.47754C4.88373 5 4.40234 5.48138 4.40234 6.0752V10.3568C4.40234 10.9506 4.88373 11.432 5.47754 11.432H9.75914C10.353 11.432 10.8343 10.9506 10.8343 10.3568V6.0752C10.8343 5.48138 10.353 5 9.75914 5Z" stroke="#6725F4" stroke-width="1.4" stroke-linecap="round" stroke-linejoin="round"/>
<path d="M18.4564 5H14.1748C13.581 5 13.0996 5.48138 13.0996 6.0752V10.3568C13.0996 10.9506 13.581 11.432 14.1748 11.432H18.4564C19.0502 11.432 19.5316 10.9506 19.5316 10.3568V6.0752C19.5316 5.48138 19.0502 5 18.4564 5Z" stroke="#6725F4" stroke-width="1.4" stroke-linecap="round" stroke-linejoin="round"/>
<path d="M9.75914 13.4768H5.47754C4.88373 13.4768 4.40234 13.9582 4.40234 14.552V18.8336C4.40234 19.4274 4.88373 19.9088 5.47754 19.9088H9.75914C10.353 19.9088 10.8343 19.4274 10.8343 18.8336V14.552C10.8343 13.9582 10.353 13.4768 9.75914 13.4768Z" stroke="#6725F4" stroke-width="1.4" stroke-linecap="round" stroke-linejoin="round"/>
<path d="M18.4564 13.4768H14.1748C13.581 13.4768 13.0996 13.9582 13.0996 14.552V18.8336C13.0996 19.4274 13.581 19.9088 14.1748 19.9088H18.4564C19.0502 19.9088 19.5316 19.4274 19.5316 18.8336V14.552C19.5316 13.9582 19.0502 13.4768 18.4564 13.4768Z" stroke="#6725F4" stroke-width="1.4" stroke-linecap="round" stroke-linejoin="round"/>
</g>
</svg>
