<svg width="24" height="24" viewBox="0 0 24 24" fill="none" xmlns="http://www.w3.org/2000/svg">
<mask id="mask0_28160_42061" style="mask-type:alpha" maskUnits="userSpaceOnUse" x="0" y="0" width="24" height="24">
<rect x="0.5" y="0.5" width="23" height="23" fill="#D9D9D9" stroke="#6725F4"/>
</mask>
<g mask="url(#mask0_28160_42061)">
<path d="M18.9213 12.592V16.9408H5.07812V12.592C5.07812 11.5168 5.95172 10.6336 7.03652 10.6336H16.9629C18.0477 10.6336 18.9213 11.5168 18.9213 12.592Z" stroke="#6725F4" stroke-width="1.4" stroke-linecap="round" stroke-linejoin="round"/>
<path d="M3.76702 17.2096H20.233C20.6613 17.2096 21 17.8719 21 18.7096C21 19.5473 20.6613 20.2096 20.233 20.2096H3.76702C3.33868 20.2096 3 19.5473 3 18.7096C3 17.8719 3.33868 17.2096 3.76702 17.2096Z" stroke="#6725F4" stroke-width="1.4" stroke-linecap="round" stroke-linejoin="round"/>
<path d="M18.9215 12.592V14.464L17.8847 13.4272C17.5487 13.0912 16.9919 13.0912 16.6559 13.4272L16.1567 13.9264C15.8207 14.2624 15.2639 14.2624 14.9279 13.9264L14.4287 13.4272C14.0927 13.0912 13.5359 13.0912 13.1999 13.4272L12.7103 13.9168C12.3743 14.2528 11.8175 14.2528 11.4815 13.9168L10.9823 13.4176C10.6463 13.0816 10.0895 13.0816 9.75349 13.4176L9.25429 13.9168C8.91829 14.2528 8.36149 14.2528 8.02549 13.9168L7.52629 13.4176C7.19029 13.0816 6.63349 13.0816 6.29749 13.4176L5.15509 14.56L5.08789 14.5408V12.5728C5.08789 11.488 5.96149 10.6144 7.04629 10.6144H16.9727C18.0575 10.6144 18.9311 11.488 18.9311 12.5728L18.9215 12.592Z" stroke="#6725F4" stroke-width="1.4" stroke-linecap="round" stroke-linejoin="round"/>
<path d="M12.4898 5.3824C12.4898 6.1504 12.173 6.7648 11.7698 6.7648C11.3666 6.7648 11.0498 6.1408 11.0498 5.3824C11.0498 4.624 11.7698 4 11.7698 4C11.7698 4 12.4898 4.624 12.4898 5.3824Z" stroke="#6725F4" stroke-width="1.4" stroke-linecap="round" stroke-linejoin="round"/>
<path d="M11.9619 8.27197V10.4128" stroke="#6725F4" stroke-width="0.83" stroke-linecap="round" stroke-linejoin="round"/>
</g>
</svg>
