<svg width="25" height="24" viewBox="0 0 25 24" fill="none" xmlns="http://www.w3.org/2000/svg">
<mask id="mask0_28097_37340" style="mask-type:alpha" maskUnits="userSpaceOnUse" x="0" y="0" width="25" height="24">
<rect x="0.902344" y="0.5" width="23" height="23" fill="#D9D9D9" stroke="#6725F4"/>
</mask>
<g mask="url(#mask0_28097_37340)">
<path d="M10.9847 7.71677H9.81348V6.92957C9.81348 6.11357 10.4759 5.45117 11.2919 5.45117H14.4407C15.2567 5.45117 15.9191 6.11357 15.9191 6.92957V7.71677H14.7479" stroke="#6725F4" stroke-width="1.4" stroke-linecap="round" stroke-linejoin="round"/>
<path d="M21.4293 8.93598V18.5456C21.4293 19.208 20.8821 19.7552 20.2197 19.7552H5.5125C4.8501 19.7552 4.3125 19.208 4.3125 18.5456V11C4.6869 11.1632 5.0997 11.2496 5.5317 11.2496C7.2597 11.2496 8.6517 9.84798 8.6517 8.11998C8.6517 7.98558 8.6421 7.85118 8.6229 7.72638H20.2293C20.8917 7.72638 21.4293 8.27358 21.4293 8.93598Z" stroke="#6725F4" stroke-width="1.4" stroke-linecap="round" stroke-linejoin="round"/>
<path d="M21.4293 8.93598V11.2688C19.6917 12.7184 17.0709 13.7168 14.0469 13.9376C14.0373 13.2944 13.5093 12.7856 12.8661 12.7952C12.2325 12.7952 11.7141 13.304 11.6853 13.9376C8.6805 13.7168 6.0501 12.7184 4.3125 11.2688V11C4.6869 11.1632 5.0997 11.2496 5.5317 11.2496C7.2597 11.2496 8.6517 9.84798 8.6517 8.11998C8.6517 7.98558 8.6421 7.85118 8.6229 7.72638H20.2293C20.8917 7.72638 21.4293 8.27358 21.4293 8.93598Z" stroke="#6725F4" stroke-width="1.4" stroke-linecap="round" stroke-linejoin="round"/>
<path d="M14.0471 13.9279V13.9663C14.0471 14.6479 13.5383 15.1375 12.8759 15.1567C12.2231 15.1663 11.6855 14.6191 11.6855 13.9663V13.9279C11.7047 13.2943 12.2327 12.7855 12.8567 12.7855C13.4999 12.7759 14.0279 13.2847 14.0471 13.9279Z" stroke="#6725F4" stroke-width="1.4" stroke-linecap="round" stroke-linejoin="round"/>
<path d="M8.65194 8.12C8.65194 9.848 7.25994 11.2496 5.53194 11.2496C5.09994 11.2496 4.68714 11.1632 4.31274 11C3.18954 10.5296 2.40234 9.416 2.40234 8.12C2.40234 6.4016 3.80394 5 5.53194 5C7.12554 5 8.43114 6.1904 8.62314 7.7264C8.64234 7.8512 8.65194 7.9856 8.65194 8.12Z" stroke="#6725F4" stroke-width="1.4" stroke-linecap="round" stroke-linejoin="round"/>
<path d="M6.10848 6.98718H4.82208L4.18848 8.09118L4.82208 9.19518H6.10848L6.74208 8.09118L6.10848 6.98718Z" stroke="#6725F4" stroke-width="1.4" stroke-linecap="round" stroke-linejoin="round"/>
</g>
</svg>
