<svg width="25" height="24" viewBox="0 0 25 24" fill="none" xmlns="http://www.w3.org/2000/svg">
<path d="M11.1619 11.4191C11.1619 11.5848 11.0942 11.7437 10.9736 11.8608C10.8531 11.978 10.6895 12.0438 10.519 12.0438H6.66187C6.49137 12.0438 6.32786 11.978 6.2073 11.8608C6.08674 11.7437 6.01901 11.5848 6.01901 11.4191C6.01901 11.2534 6.08674 11.0945 6.2073 10.9773C6.32786 10.8601 6.49137 10.7943 6.66187 10.7943H10.519C10.6895 10.7943 10.8531 10.8601 10.9736 10.9773C11.0942 11.0945 11.1619 11.2534 11.1619 11.4191ZM10.519 8.29524H6.66187C6.49137 8.29524 6.32786 8.36106 6.2073 8.47823C6.08674 8.59539 6.01901 8.7543 6.01901 8.92C6.01901 9.0857 6.08674 9.24461 6.2073 9.36178C6.32786 9.47894 6.49137 9.54477 6.66187 9.54477H10.519C10.6895 9.54477 10.8531 9.47894 10.9736 9.36178C11.0942 9.24461 11.1619 9.0857 11.1619 8.92C11.1619 8.7543 11.0942 8.59539 10.9736 8.47823C10.8531 8.36106 10.6895 8.29524 10.519 8.29524ZM19.5191 13.4082V18.2915C19.5202 18.4016 19.4912 18.5101 19.4352 18.6058C19.3792 18.7016 19.2981 18.7813 19.2002 18.8368C19.1023 18.8923 18.9911 18.9216 18.8777 18.9219C18.7644 18.9221 18.653 18.8932 18.5548 18.8382L16.6263 17.7651L14.6977 18.8382C14.5995 18.8932 14.4881 18.9221 14.3748 18.9219C14.2614 18.9216 14.1502 18.8923 14.0523 18.8368C13.9544 18.7813 13.8733 18.7016 13.8173 18.6058C13.7613 18.5101 13.7323 18.4016 13.7334 18.2915V16.4172H4.09041C3.74942 16.4172 3.42239 16.2855 3.18127 16.0512C2.94015 15.8169 2.80469 15.4991 2.80469 15.1677V5.17141C2.80469 4.84001 2.94015 4.52219 3.18127 4.28785C3.42239 4.05352 3.74942 3.92188 4.09041 3.92188H18.2334C18.5744 3.92188 18.9014 4.05352 19.1426 4.28785C19.3837 4.52219 19.5191 4.84001 19.5191 5.17141V7.55567C19.9255 7.93387 20.2489 8.38811 20.4699 8.89102C20.6908 9.39393 20.8047 9.93509 20.8047 10.4819C20.8047 11.0287 20.6908 11.5699 20.4699 12.0728C20.2489 12.5757 19.9255 13.03 19.5191 13.4082ZM13.7334 15.1677V13.4082C13.0328 12.7516 12.5901 11.8779 12.4815 10.9379C12.373 9.99796 12.6055 9.05066 13.1389 8.25949C13.6723 7.46832 14.4731 6.88292 15.4032 6.60429C16.3333 6.32567 17.3343 6.3713 18.2334 6.73332V5.17141H4.09041V15.1677H13.7334ZM18.2334 14.2305C17.7243 14.4372 17.178 14.5437 16.6263 14.5437C16.0745 14.5437 15.5282 14.4372 15.0191 14.2305V17.2153L16.3048 16.5C16.402 16.446 16.5119 16.4176 16.6238 16.4176C16.7357 16.4176 16.8457 16.446 16.9429 16.5L18.2286 17.2153L18.2334 14.2305ZM19.5191 10.4819C19.5191 9.92586 19.3495 9.3823 19.0316 8.91996C18.7137 8.45762 18.2619 8.09727 17.7333 7.88448C17.2047 7.67169 16.623 7.61601 16.0619 7.72449C15.5007 7.83297 14.9853 8.10074 14.5807 8.49392C14.1761 8.88711 13.9006 9.38806 13.789 9.93343C13.6773 10.4788 13.7346 11.0441 13.9536 11.5578C14.1725 12.0715 14.5433 12.5106 15.0191 12.8195C15.4948 13.1285 16.0541 13.2934 16.6263 13.2934C17.0062 13.2934 17.3823 13.2206 17.7333 13.0794C18.0843 12.9381 18.4032 12.731 18.6718 12.4699C18.9405 12.2088 19.1535 11.8989 19.2989 11.5578C19.4443 11.2167 19.5191 10.8511 19.5191 10.4819Z" fill="#6725F4"/>
</svg>
