<svg width="25" height="24" viewBox="0 0 25 24" fill="none" xmlns="http://www.w3.org/2000/svg">
<mask id="mask0_28124_37432" style="mask-type:alpha" maskUnits="userSpaceOnUse" x="0" y="0" width="25" height="24">
<rect x="0.902344" y="0.5" width="23" height="23" fill="#D9D9D9" stroke="#6725F4"/>
</mask>
<g mask="url(#mask0_28124_37432)">
<mask id="path-2-inside-1_28124_37432" fill="white">
<path d="M16.8987 16.8269V5.70052C16.8987 4.21252 15.6891 3.00292 14.2011 3.00292H7.94194C7.23154 3.00292 6.32897 2.93573 5.82977 3.44453L3.90978 5.36453L2.46978 6.80453C2.39298 6.88133 2.40275 7.20519 2.40275 7.31079V10.1645V12.5645L2.40235 18.2618C2.40235 19.7498 2.46891 20.2445 4.86891 20.2445L14.2011 20.2157C15.5739 20.2157 16.7067 19.1885 16.8795 17.8637L15.6219 18.5159C14.8823 18.8045 15.4298 19.1207 14.4698 19.1207H10.007L4.38882 19.2251C3.21806 19.2251 3.54102 19.2251 3.50195 17.4689L3.50195 15.6045L3.50195 14.1045V12.6045V10.1045L3.50195 7.60454L6.78882 4.40453C7.12482 4.06853 6.78882 4.40453 8.22983 4.40453H14.4698C15.4874 4.40453 15.4298 4.88453 15.6219 5.70052V11.7272V14.4845V16.0972V17.3645L16.8987 16.8269Z"/>
</mask>
<path d="M16.8987 16.8269V5.70052C16.8987 4.21252 15.6891 3.00292 14.2011 3.00292H7.94194C7.23154 3.00292 6.32897 2.93573 5.82977 3.44453L3.90978 5.36453L2.46978 6.80453C2.39298 6.88133 2.40275 7.20519 2.40275 7.31079V10.1645V12.5645L2.40235 18.2618C2.40235 19.7498 2.46891 20.2445 4.86891 20.2445L14.2011 20.2157C15.5739 20.2157 16.7067 19.1885 16.8795 17.8637L15.6219 18.5159C14.8823 18.8045 15.4298 19.1207 14.4698 19.1207H10.007L4.38882 19.2251C3.21806 19.2251 3.54102 19.2251 3.50195 17.4689L3.50195 15.6045L3.50195 14.1045V12.6045V10.1045L3.50195 7.60454L6.78882 4.40453C7.12482 4.06853 6.78882 4.40453 8.22983 4.40453H14.4698C15.4874 4.40453 15.4298 4.88453 15.6219 5.70052V11.7272V14.4845V16.0972V17.3645L16.8987 16.8269Z" fill="#A95051"/>
<path d="M16.8987 16.8269L18.451 20.5135L20.8987 19.4828V16.8269H16.8987ZM5.82977 3.44453L8.65821 6.27295L8.67167 6.25948L8.68501 6.24589L5.82977 3.44453ZM2.46978 6.80453L-0.358646 3.9761L-0.358651 3.9761L2.46978 6.80453ZM2.40235 18.2618L-1.59765 18.2615V18.2618H2.40235ZM4.86891 20.2445V24.2446L4.88126 24.2445L4.86891 20.2445ZM14.2011 20.2157V16.2157L14.1888 16.2157L14.2011 20.2157ZM16.8795 17.8637L20.8459 18.3811L21.8365 10.787L15.038 14.3128L16.8795 17.8637ZM15.6219 18.5159L17.076 22.2423L17.2744 22.1649L17.4635 22.0668L15.6219 18.5159ZM4.38882 19.2251V23.2251H4.42596L4.46309 23.2244L4.38882 19.2251ZM3.50195 17.4689H-0.498046V17.5133L-0.497057 17.5578L3.50195 17.4689ZM3.50195 7.60454L0.711644 4.73851L-0.498046 5.91623L-0.498047 7.60454H3.50195ZM6.78882 4.40453L9.57913 7.27056L9.59831 7.25189L9.61725 7.23295L6.78882 4.40453ZM15.6219 5.70052H19.6219V5.23601L19.5155 4.78386L15.6219 5.70052ZM15.6219 17.3645H11.6219V23.3889L17.1742 21.0511L15.6219 17.3645ZM3.90978 5.36453L6.7382 8.19296L6.73821 8.19295L3.90978 5.36453ZM10.007 19.1207V15.1207H9.96989L9.93276 15.1214L10.007 19.1207ZM3.50195 10.1045H-0.498047H3.50195ZM3.50195 15.6045H7.50195H3.50195ZM2.40275 12.5645L6.40275 12.5648V12.5645H2.40275ZM3.50195 14.1045H-0.498047H3.50195ZM16.8987 16.8269H20.8987V5.70052H16.8987H12.8987V16.8269H16.8987ZM16.8987 5.70052H20.8987C20.8987 2.00339 17.8983 -0.997076 14.2011 -0.997076V3.00292V7.00292C13.48 7.00292 12.8987 6.42166 12.8987 5.70052H16.8987ZM14.2011 3.00292V-0.997076H7.94194V3.00292V7.00292H14.2011V3.00292ZM7.94194 3.00292V-0.997076C7.82829 -0.997076 7.01475 -1.02365 6.31368 -0.936579C5.57083 -0.844323 4.15056 -0.555476 2.97454 0.643165L5.82977 3.44453L8.68501 6.24589C8.34534 6.5921 7.98912 6.7832 7.73445 6.88335C7.49513 6.97748 7.3272 6.99901 7.29964 7.00243C7.27007 7.0061 7.29286 7.00129 7.41674 7.00023C7.47554 6.99972 7.54143 7.00006 7.63166 7.00087C7.71105 7.00158 7.82967 7.00292 7.94194 7.00292V3.00292ZM2.46978 6.80453L-0.358651 3.9761C-0.852498 4.46995 -1.10644 4.97796 -1.22774 5.25902C-1.3594 5.5641 -1.43097 5.82984 -1.47057 6.00136C-1.54831 6.33806 -1.57296 6.62519 -1.58306 6.77159C-1.60266 7.05575 -1.59725 7.37931 -1.59725 7.31079H2.40275H6.40275C6.40275 7.13667 6.40326 7.2455 6.39798 7.32213C6.39504 7.36477 6.38235 7.54993 6.32438 7.801C6.29466 7.92971 6.23493 8.15672 6.11743 8.42897C6.01029 8.67722 5.77285 9.15831 5.2982 9.63295L2.46978 6.80453ZM2.40235 18.2618H-1.59765C-1.59765 18.5714 -1.60332 19.2261 -1.49245 19.874C-1.36547 20.6161 -1.03141 21.722 -0.0611863 22.6709C0.861832 23.5736 1.93559 23.9142 2.67688 24.0644C3.41255 24.2134 4.18054 24.2445 4.86891 24.2445V20.2445V16.2445C4.35727 16.2445 4.21695 16.2139 4.26513 16.2236C4.31895 16.2345 4.92606 16.3584 5.53244 16.9515C6.18602 17.5907 6.35344 18.2939 6.39294 18.5247C6.41633 18.6614 6.40235 18.6963 6.40235 18.2618H2.40235ZM4.86891 20.2445L4.88126 24.2445L14.2135 24.2157L14.2011 20.2157L14.1888 16.2157L4.85655 16.2446L4.86891 20.2445ZM14.2011 20.2157V24.2157C17.6174 24.2157 20.4177 21.664 20.8459 18.3811L16.8795 17.8637L12.9131 17.3464C12.9957 16.7131 13.5305 16.2157 14.2011 16.2157V20.2157ZM16.8795 17.8637L15.038 14.3128L13.7804 14.9651L15.6219 18.5159L17.4635 22.0668L18.7211 21.4146L16.8795 17.8637ZM15.6219 18.5159L14.1679 14.7896C13.885 14.9 13.5791 15.0444 13.2705 15.2384C12.9532 15.4379 12.655 15.676 12.3847 15.9565C12.1141 16.2373 11.9309 16.4994 11.818 16.6755C11.77 16.7504 11.7291 16.8191 11.7271 16.8225C11.7138 16.8446 11.7439 16.7936 11.7847 16.7314C11.8817 16.5836 12.1025 16.2702 12.4723 15.9563C12.6541 15.802 12.8473 15.668 13.0477 15.5549C13.2457 15.4432 13.4336 15.3615 13.6005 15.3016C13.922 15.1864 14.1777 15.148 14.2977 15.1339C14.4217 15.1194 14.4902 15.1207 14.4698 15.1207V19.1207V23.1207C14.8243 23.1207 15.5363 23.1063 16.3012 22.832C16.7467 22.6722 17.2141 22.4249 17.6501 22.0547C18.0755 21.6935 18.3376 21.3271 18.4724 21.1217C18.5321 21.0307 18.5802 20.9498 18.5854 20.9411C18.602 20.9136 18.5802 20.9505 18.5531 20.9927C18.482 21.1036 18.3481 21.2973 18.1451 21.5079C17.7166 21.9525 17.2854 22.1606 17.076 22.2423L15.6219 18.5159ZM4.38882 19.2251V15.2251C4.3122 15.2251 4.25949 15.2251 4.21404 15.2247C4.19271 15.2246 4.17701 15.2244 4.16547 15.2242C4.15388 15.224 4.14888 15.2238 4.14894 15.2238C4.14913 15.2239 4.15109 15.2239 4.15463 15.2241C4.15816 15.2242 4.16365 15.2245 4.17087 15.2249C4.18484 15.2257 4.20837 15.2272 4.23948 15.2301C4.29664 15.2353 4.41037 15.2477 4.55876 15.2778C4.83394 15.3338 5.45479 15.4951 6.08938 15.9983C6.78831 16.5525 7.15523 17.24 7.32948 17.7826C7.47495 18.2357 7.48578 18.5867 7.48758 18.6302C7.49034 18.6966 7.48758 18.7187 7.49099 18.5893C7.4965 18.3795 7.51338 17.9382 7.50096 17.3799L3.50195 17.4689L-0.497057 17.5578C-0.489945 17.8776 -0.498782 18.0949 -0.506251 18.3791C-0.509339 18.4966 -0.515403 18.7245 -0.505516 18.9624C-0.496579 19.1774 -0.468188 19.6657 -0.287479 20.2284C-0.0779858 20.8809 0.341861 21.6506 1.11865 22.2666C1.8311 22.8316 2.55475 23.0341 2.9649 23.1174C3.59687 23.2459 4.30768 23.2251 4.38882 23.2251V19.2251ZM3.50195 7.60454L6.29226 10.4706L9.57913 7.27056L6.78882 4.40453L3.99851 1.53849L0.711644 4.73851L3.50195 7.60454ZM6.78882 4.40453L9.61725 7.23295C9.69371 7.15649 9.62971 7.22273 9.54881 7.2948C9.48577 7.35096 9.0973 7.7058 8.47554 7.96171C8.12816 8.10469 7.74993 8.20143 7.35227 8.23844C6.96856 8.27414 6.64753 8.24661 6.42369 8.2133C6.21267 8.1819 6.05421 8.13976 5.99743 8.12429C5.94325 8.10952 5.898 8.0954 5.93128 8.10552C6.08865 8.15337 6.40285 8.24639 6.85522 8.31371C7.26665 8.37494 7.71773 8.40453 8.22983 8.40453V4.40453V0.404527C8.02143 0.404527 7.97412 0.392118 8.03278 0.400847C8.06543 0.405706 8.11482 0.414694 8.17582 0.429553C8.23603 0.444218 8.28413 0.459293 8.25861 0.451534C8.25736 0.451152 8.1819 0.427845 8.10062 0.405697C8.01675 0.382844 7.83432 0.335125 7.60124 0.30044C7.02961 0.215372 6.25601 0.224119 5.43063 0.563841C4.77061 0.835502 4.342 1.21922 4.22739 1.32132C4.09493 1.43932 3.96793 1.56856 3.96039 1.5761L6.78882 4.40453ZM8.22983 4.40453V8.40453H14.4698V4.40453V0.404527H8.22983V4.40453ZM14.4698 4.40453V8.40453C14.4617 8.40453 14.0667 8.41165 13.5333 8.19271C12.875 7.92253 12.3159 7.4386 11.9502 6.84513C11.7965 6.59576 11.7112 6.38238 11.6677 6.25841C11.6453 6.19466 11.6305 6.14489 11.6222 6.11498C11.6179 6.09958 11.6148 6.08775 11.6129 6.08021C11.611 6.07268 11.61 6.06844 11.6099 6.06826C11.6099 6.06809 11.6105 6.07092 11.612 6.07758C11.6135 6.08428 11.6155 6.0936 11.6183 6.10661C11.6245 6.13588 11.6307 6.16623 11.6413 6.21791C11.6603 6.3097 11.6903 6.45524 11.7284 6.61719L15.6219 5.70052L19.5155 4.78386C19.5056 4.74181 19.4954 4.69385 19.4767 4.60321C19.4621 4.53232 19.4322 4.38474 19.398 4.23929C19.3391 3.98843 19.1811 3.33004 18.7607 2.64793C18.2582 1.83245 17.5106 1.17753 16.5709 0.791844C15.7561 0.457402 14.9867 0.404527 14.4698 0.404527V4.40453ZM15.6219 17.3645L17.1742 21.0511L18.451 20.5135L16.8987 16.8269L15.3465 13.1404L14.0697 13.678L15.6219 17.3645ZM5.82977 3.44453L3.00134 0.616104L1.08135 2.53611L3.90978 5.36453L6.73821 8.19295L8.65821 6.27295L5.82977 3.44453ZM3.90978 5.36453L1.08135 2.5361L-0.358646 3.9761L2.46978 6.80453L5.2982 9.63296L6.7382 8.19296L3.90978 5.36453ZM15.6219 5.70052H11.6219V11.7272H15.6219H19.6219V5.70052H15.6219ZM15.6219 11.7272H11.6219V14.4845H15.6219H19.6219V11.7272H15.6219ZM15.6219 14.4845H11.6219V16.0972H15.6219H19.6219V14.4845H15.6219ZM15.6219 16.0972H11.6219V17.3645H15.6219H19.6219V16.0972H15.6219ZM14.4698 19.1207V15.1207H10.007V19.1207V23.1207H14.4698V19.1207ZM10.007 19.1207L9.93276 15.1214L4.31455 15.2258L4.38882 19.2251L4.46309 23.2244L10.0813 23.12L10.007 19.1207ZM3.50195 12.6045H7.50195V10.1045H3.50195H-0.498047V12.6045H3.50195ZM3.50195 10.1045H7.50195L7.50195 7.60454H3.50195H-0.498047V10.1045H3.50195ZM3.50195 17.4689H7.50195V15.6045H3.50195H-0.498047L-0.498046 17.4689H3.50195ZM2.40275 12.5645L-1.59725 12.5642L-1.59765 18.2615L2.40235 18.2618L6.40235 18.2621L6.40275 12.5648L2.40275 12.5645ZM2.40275 7.31079H-1.59725V10.1645H2.40275H6.40275V7.31079H2.40275ZM2.40275 10.1645H-1.59725V12.5645H2.40275H6.40275V10.1645H2.40275ZM3.50195 15.6045H7.50195L7.50195 14.1045H3.50195H-0.498047V15.6045H3.50195ZM3.50195 14.1045H7.50195V12.6045H3.50195H-0.498047V14.1045H3.50195Z" fill="#6725F4" mask="url(#path-2-inside-1_28124_37432)"/>
<path d="M5.80371 12.8525H13.0805" stroke="#6725F4" stroke-width="1.4" stroke-linecap="round" stroke-linejoin="round"/>
<path d="M4.24902 15.7134L5.20902 15.723" stroke="#6725F4" stroke-width="1.4" stroke-linecap="round" stroke-linejoin="round"/>
<path d="M6.92773 15.7325L12.9277 15.7709" stroke="#6725F4" stroke-width="1.4" stroke-linecap="round" stroke-linejoin="round" stroke-dasharray="1.79 1.79"/>
<path d="M13.7822 15.771L14.7422 15.7806" stroke="#6725F4" stroke-width="1.4" stroke-linecap="round" stroke-linejoin="round"/>
<path d="M5.80371 10.1262H13.0805" stroke="#6725F4" stroke-width="1.4" stroke-linecap="round" stroke-linejoin="round"/>
<path d="M6.86133 4.63337V6.71187C6.86133 7.21869 6.53759 7.63336 6.1419 7.63336H3.86133" stroke="#6725F4" stroke-width="1.4" stroke-linecap="round" stroke-linejoin="round"/>
<path d="M20.0784 14.3214C20.6935 14.3214 21.192 13.8228 21.192 13.2078C21.192 12.5928 20.6935 12.0942 20.0784 12.0942C19.4634 12.0942 18.9648 12.5928 18.9648 13.2078C18.9648 13.8228 19.4634 14.3214 20.0784 14.3214Z" stroke="#6725F4" stroke-linecap="round" stroke-linejoin="round"/>
<path d="M14.5107 18.1518L20.5587 14.2158" stroke="#6725F4" stroke-linecap="round" stroke-linejoin="round"/>
<path d="M20.4144 18.843C21.0294 18.843 21.528 18.3444 21.528 17.7294C21.528 17.1144 21.0294 16.6158 20.4144 16.6158C19.7994 16.6158 19.3008 17.1144 19.3008 17.7294C19.3008 18.3444 19.7994 18.843 20.4144 18.843Z" stroke="#6725F4" stroke-linecap="round" stroke-linejoin="round"/>
<path d="M16.4111 14.6094L20.9135 16.731" stroke="#6725F4" stroke-linecap="round" stroke-linejoin="round"/>
</g>
</svg>
