<svg width="24" height="24" viewBox="0 0 24 24" fill="none" xmlns="http://www.w3.org/2000/svg">
<mask id="mask0_28158_42036" style="mask-type:alpha" maskUnits="userSpaceOnUse" x="0" y="0" width="24" height="24">
<rect x="0.5" y="0.5" width="23" height="23" fill="#D9D9D9" stroke="#6725F4"/>
</mask>
<g mask="url(#mask0_28158_42036)">
<path d="M20.129 11.7552C20.0234 16.488 16.1066 20.2416 11.3738 20.136C11.1914 20.136 11.009 20.1264 10.8266 20.1072H10.8074C10.6154 20.088 10.433 20.0688 10.2506 20.04C6.06496 19.3872 2.89696 15.7296 3.00256 11.3712C3.09856 6.9648 6.51616 3.3936 10.8362 3.0288C10.9322 3.0288 11.0186 3.0288 11.1146 3.0096C11.3162 3 11.537 3 11.7482 3C16.481 3.1056 20.2346 7.032 20.129 11.7552Z" stroke="#6725F4" stroke-width="1.4" stroke-linecap="round" stroke-linejoin="round"/>
<mask id="path-3-inside-1_28158_42036" fill="white">
<path d="M9.94058 10.0397C9.9073 10.0905 9.87216 10.1283 9.83516 10.1532C9.80031 10.1781 9.75503 10.19 9.69931 10.1888C9.65003 10.1877 9.59679 10.1715 9.5396 10.1402C9.4846 10.1068 9.4211 10.07 9.3491 10.0298C9.27924 9.98971 9.19857 9.95362 9.1071 9.92158C9.01567 9.88739 8.91103 9.86899 8.79317 9.86638C8.58961 9.86187 8.4365 9.90242 8.33384 9.98804C8.23337 10.0716 8.18149 10.1873 8.17821 10.3351C8.17612 10.4294 8.20439 10.5083 8.26301 10.5717C8.32163 10.6352 8.39866 10.6905 8.49409 10.7377C8.59166 10.7848 8.70216 10.8291 8.82558 10.8704C8.9512 10.9097 9.07884 10.9543 9.20851 11.0043C9.33822 11.0522 9.46453 11.1086 9.58744 11.1735C9.71249 11.2385 9.82215 11.3202 9.91644 11.4188C10.0129 11.5174 10.0895 11.637 10.1465 11.7776C10.2034 11.9161 10.2297 12.0828 10.2254 12.2778C10.2206 12.4942 10.1786 12.6959 10.0994 12.8828C10.0203 13.0697 9.90733 13.2323 9.76062 13.3705C9.61611 13.5067 9.43795 13.6131 9.22615 13.6899C9.01654 13.7646 8.77888 13.799 8.51317 13.7931C8.36746 13.7899 8.21887 13.7716 8.0674 13.7382C7.91807 13.7049 7.77328 13.6598 7.63304 13.6031C7.49285 13.5443 7.36145 13.476 7.23883 13.3982C7.11621 13.3205 7.00985 13.2345 6.91975 13.1403L7.25243 12.6396C7.27895 12.6037 7.31283 12.5745 7.35407 12.5518C7.39749 12.5271 7.44385 12.5152 7.49313 12.5163C7.55742 12.5177 7.62125 12.5395 7.68463 12.5817C7.75016 12.6238 7.82309 12.6705 7.90342 12.7216C7.9859 12.7727 8.08025 12.8198 8.18649 12.8629C8.29273 12.906 8.4187 12.9292 8.56441 12.9324C8.76155 12.9368 8.91571 12.8973 9.0269 12.814C9.13813 12.7286 9.19583 12.5916 9.20001 12.403C9.20244 12.2937 9.17441 12.2041 9.11593 12.1342C9.05745 12.0643 8.97943 12.0058 8.88185 11.9586C8.78643 11.9115 8.67695 11.8694 8.55343 11.8323C8.4299 11.7953 8.30324 11.755 8.17343 11.7114C8.04367 11.6656 7.91731 11.6114 7.79436 11.5486C7.67145 11.4837 7.56181 11.4009 7.46543 11.3001C7.37123 11.1973 7.29578 11.0713 7.23905 10.9221C7.18238 10.7708 7.15647 10.5858 7.16131 10.3672C7.16521 10.1915 7.20436 10.0209 7.27878 9.85532C7.3532 9.68974 7.46043 9.54312 7.60047 9.41545C7.7405 9.28778 7.91102 9.18758 8.11201 9.11486C8.31305 9.04 8.54214 9.00541 8.79927 9.01111C8.94284 9.0143 9.08186 9.02917 9.21634 9.05573C9.353 9.0802 9.4819 9.11629 9.60305 9.164C9.72424 9.20956 9.83664 9.26458 9.94026 9.32905C10.0461 9.39142 10.1399 9.4621 10.2218 9.5411L9.94058 10.0397ZM11.9227 13.8172L10.8299 13.793L10.9337 9.10989L12.0266 9.13411L11.9227 13.8172ZM14.5312 11.4889C14.8141 11.4952 15.0191 11.4322 15.1464 11.3C15.2737 11.1677 15.34 10.9805 15.3454 10.7384C15.3477 10.6313 15.3338 10.5334 15.3036 10.4448C15.2734 10.3563 15.2258 10.2802 15.1608 10.2166C15.0979 10.1509 15.0165 10.0997 14.9165 10.0632C14.8187 10.0268 14.7013 10.007 14.5641 10.004L13.9984 9.99142L13.9655 11.4764L14.5312 11.4889ZM14.5822 9.19077C14.9121 9.19808 15.1941 9.244 15.4281 9.32851C15.6642 9.41092 15.8568 9.52238 16.0059 9.6629C16.1572 9.80346 16.2672 9.96776 16.3359 10.1558C16.4046 10.3438 16.4366 10.5461 16.4318 10.7625C16.4266 10.9961 16.3843 11.2095 16.305 11.4028C16.2257 11.5962 16.1073 11.7608 15.95 11.8966C15.7926 12.0325 15.5941 12.1374 15.3545 12.2114C15.1171 12.2834 14.8366 12.3157 14.513 12.3086L13.9473 12.296L13.9126 13.8613L12.8262 13.8372L12.93 9.15414L14.5822 9.19077Z"/>
</mask>
<path d="M9.94058 10.0397C9.9073 10.0905 9.87216 10.1283 9.83516 10.1532C9.80031 10.1781 9.75503 10.19 9.69931 10.1888C9.65003 10.1877 9.59679 10.1715 9.5396 10.1402C9.4846 10.1068 9.4211 10.07 9.3491 10.0298C9.27924 9.98971 9.19857 9.95362 9.1071 9.92158C9.01567 9.88739 8.91103 9.86899 8.79317 9.86638C8.58961 9.86187 8.4365 9.90242 8.33384 9.98804C8.23337 10.0716 8.18149 10.1873 8.17821 10.3351C8.17612 10.4294 8.20439 10.5083 8.26301 10.5717C8.32163 10.6352 8.39866 10.6905 8.49409 10.7377C8.59166 10.7848 8.70216 10.8291 8.82558 10.8704C8.9512 10.9097 9.07884 10.9543 9.20851 11.0043C9.33822 11.0522 9.46453 11.1086 9.58744 11.1735C9.71249 11.2385 9.82215 11.3202 9.91644 11.4188C10.0129 11.5174 10.0895 11.637 10.1465 11.7776C10.2034 11.9161 10.2297 12.0828 10.2254 12.2778C10.2206 12.4942 10.1786 12.6959 10.0994 12.8828C10.0203 13.0697 9.90733 13.2323 9.76062 13.3705C9.61611 13.5067 9.43795 13.6131 9.22615 13.6899C9.01654 13.7646 8.77888 13.799 8.51317 13.7931C8.36746 13.7899 8.21887 13.7716 8.0674 13.7382C7.91807 13.7049 7.77328 13.6598 7.63304 13.6031C7.49285 13.5443 7.36145 13.476 7.23883 13.3982C7.11621 13.3205 7.00985 13.2345 6.91975 13.1403L7.25243 12.6396C7.27895 12.6037 7.31283 12.5745 7.35407 12.5518C7.39749 12.5271 7.44385 12.5152 7.49313 12.5163C7.55742 12.5177 7.62125 12.5395 7.68463 12.5817C7.75016 12.6238 7.82309 12.6705 7.90342 12.7216C7.9859 12.7727 8.08025 12.8198 8.18649 12.8629C8.29273 12.906 8.4187 12.9292 8.56441 12.9324C8.76155 12.9368 8.91571 12.8973 9.0269 12.814C9.13813 12.7286 9.19583 12.5916 9.20001 12.403C9.20244 12.2937 9.17441 12.2041 9.11593 12.1342C9.05745 12.0643 8.97943 12.0058 8.88185 11.9586C8.78643 11.9115 8.67695 11.8694 8.55343 11.8323C8.4299 11.7953 8.30324 11.755 8.17343 11.7114C8.04367 11.6656 7.91731 11.6114 7.79436 11.5486C7.67145 11.4837 7.56181 11.4009 7.46543 11.3001C7.37123 11.1973 7.29578 11.0713 7.23905 10.9221C7.18238 10.7708 7.15647 10.5858 7.16131 10.3672C7.16521 10.1915 7.20436 10.0209 7.27878 9.85532C7.3532 9.68974 7.46043 9.54312 7.60047 9.41545C7.7405 9.28778 7.91102 9.18758 8.11201 9.11486C8.31305 9.04 8.54214 9.00541 8.79927 9.01111C8.94284 9.0143 9.08186 9.02917 9.21634 9.05573C9.353 9.0802 9.4819 9.11629 9.60305 9.164C9.72424 9.20956 9.83664 9.26458 9.94026 9.32905C10.0461 9.39142 10.1399 9.4621 10.2218 9.5411L9.94058 10.0397ZM11.9227 13.8172L10.8299 13.793L10.9337 9.10989L12.0266 9.13411L11.9227 13.8172ZM14.5312 11.4889C14.8141 11.4952 15.0191 11.4322 15.1464 11.3C15.2737 11.1677 15.34 10.9805 15.3454 10.7384C15.3477 10.6313 15.3338 10.5334 15.3036 10.4448C15.2734 10.3563 15.2258 10.2802 15.1608 10.2166C15.0979 10.1509 15.0165 10.0997 14.9165 10.0632C14.8187 10.0268 14.7013 10.007 14.5641 10.004L13.9984 9.99142L13.9655 11.4764L14.5312 11.4889ZM14.5822 9.19077C14.9121 9.19808 15.1941 9.244 15.4281 9.32851C15.6642 9.41092 15.8568 9.52238 16.0059 9.6629C16.1572 9.80346 16.2672 9.96776 16.3359 10.1558C16.4046 10.3438 16.4366 10.5461 16.4318 10.7625C16.4266 10.9961 16.3843 11.2095 16.305 11.4028C16.2257 11.5962 16.1073 11.7608 15.95 11.8966C15.7926 12.0325 15.5941 12.1374 15.3545 12.2114C15.1171 12.2834 14.8366 12.3157 14.513 12.3086L13.9473 12.296L13.9126 13.8613L12.8262 13.8372L12.93 9.15414L14.5822 9.19077Z" fill="#6725F4"/>
<path d="M9.94058 10.0397L10.7766 10.5884L10.7951 10.5603L10.8116 10.5309L9.94058 10.0397ZM9.83516 10.1532L9.27673 9.32363L9.26477 9.33168L9.25304 9.34007L9.83516 10.1532ZM9.5396 10.1402L9.0208 10.9951L9.04001 11.0067L9.05972 11.0175L9.5396 10.1402ZM9.3491 10.0298L8.85087 10.897L8.86174 10.903L9.3491 10.0298ZM9.1071 9.92158L8.75688 10.8582L8.76666 10.8619L8.77651 10.8654L9.1071 9.92158ZM8.33384 9.98804L8.97313 10.757L8.97434 10.756L8.33384 9.98804ZM8.26301 10.5717L8.99763 9.89327L8.99763 9.89327L8.26301 10.5717ZM8.49409 10.7377L8.0512 11.6343L8.05873 11.6379L8.49409 10.7377ZM8.82558 10.8704L8.50809 11.8187L8.51775 11.8219L8.52748 11.825L8.82558 10.8704ZM9.20851 11.0043L8.84848 11.9373L8.85528 11.9399L8.86212 11.9424L9.20851 11.0043ZM9.58744 11.1735L9.1205 12.0578L9.12654 12.061L9.58744 11.1735ZM9.91644 11.4188L9.1938 12.1101L9.20148 12.1179L9.91644 11.4188ZM10.1465 11.7776L9.21949 12.1528L9.22164 12.158L10.1465 11.7776ZM10.0994 12.8828L11.0202 13.2729L11.0202 13.2729L10.0994 12.8828ZM9.76062 13.3705L10.4463 14.0984L10.4464 14.0983L9.76062 13.3705ZM9.22615 13.6899L9.56176 14.6319L9.56693 14.63L9.22615 13.6899ZM8.0674 13.7382L7.8496 14.7142L7.85224 14.7148L8.0674 13.7382ZM7.63304 13.6031L7.24595 14.5253L7.25818 14.5302L7.63304 13.6031ZM7.23883 13.3982L7.77434 12.5537L7.77434 12.5537L7.23883 13.3982ZM6.91975 13.1403L6.08683 12.5869L5.64403 13.2534L6.19715 13.8316L6.91975 13.1403ZM7.25243 12.6396L6.44845 12.045L6.43346 12.0652L6.41951 12.0862L7.25243 12.6396ZM7.35407 12.5518L7.8358 13.4281L7.84264 13.4244L7.84943 13.4205L7.35407 12.5518ZM7.68463 12.5817L7.13099 13.4144L7.13711 13.4185L7.1433 13.4225L7.68463 12.5817ZM7.90342 12.7216L7.36675 13.5654L7.37647 13.5715L7.90342 12.7216ZM8.18649 12.8629L8.56234 11.9362L8.56234 11.9362L8.18649 12.8629ZM9.0269 12.814L9.62649 13.6144L9.63603 13.6071L9.0269 12.814ZM9.11593 12.1342L8.34894 12.7759L8.34894 12.7759L9.11593 12.1342ZM8.88185 11.9586L8.43897 12.8552L8.4465 12.8589L8.88185 11.9586ZM8.55343 11.8323L8.84066 10.8745L8.84066 10.8745L8.55343 11.8323ZM8.17343 11.7114L7.8409 12.6545L7.84791 12.6569L7.85496 12.6593L8.17343 11.7114ZM7.79436 11.5486L7.32739 12.433L7.33976 12.4393L7.79436 11.5486ZM7.46543 11.3001L6.72797 11.9755L6.73531 11.9835L6.74282 11.9914L7.46543 11.3001ZM7.23905 10.9221L6.30256 11.2728L6.30434 11.2775L7.23905 10.9221ZM7.27878 9.85532L8.19089 10.2653L8.19089 10.2653L7.27878 9.85532ZM8.11201 9.11486L8.45226 10.0552L8.46099 10.052L8.11201 9.11486ZM9.21634 9.05573L9.02254 10.0368L9.03131 10.0385L9.0401 10.0401L9.21634 9.05573ZM9.60305 9.164L9.23663 10.0944L9.24386 10.0973L9.25112 10.1L9.60305 9.164ZM9.94026 9.32905L9.41199 10.1781L9.42214 10.1844L9.43244 10.1905L9.94026 9.32905ZM10.2218 9.5411L11.0928 10.0323L11.4727 9.35858L10.9162 8.82151L10.2218 9.5411ZM9.94058 10.0397L9.10454 9.49108C9.11953 9.46824 9.17142 9.39452 9.27673 9.32363L9.83516 10.1532L10.3936 10.9827C10.5729 10.862 10.6951 10.7127 10.7766 10.5884L9.94058 10.0397ZM9.83516 10.1532L9.25304 9.34007C9.44052 9.20585 9.62589 9.18688 9.72148 9.189L9.69931 10.1888L9.67715 11.1885C9.88417 11.1931 10.1601 11.1504 10.4173 10.9663L9.83516 10.1532ZM9.69931 10.1888L9.72148 9.189C9.87556 9.19241 9.97966 9.24108 10.0195 9.26286L9.5396 10.1402L9.05972 11.0175C9.21392 11.1019 9.4245 11.1829 9.67715 11.1885L9.69931 10.1888ZM9.5396 10.1402L10.0584 9.28529C9.99063 9.24417 9.91627 9.20119 9.83646 9.15664L9.3491 10.0298L8.86174 10.903C8.92593 10.9389 8.97857 10.9695 9.0208 10.9951L9.5396 10.1402ZM9.3491 10.0298L9.84729 9.16278C9.7146 9.08654 9.57599 9.02625 9.43768 8.9778L9.1071 9.92158L8.77651 10.8654C8.82115 10.881 8.84388 10.8929 8.85091 10.8969L9.3491 10.0298ZM9.1071 9.92158L9.45732 8.98491C9.24161 8.90426 9.02275 8.87122 8.81534 8.86662L8.79317 9.86638L8.77101 10.8661C8.79931 10.8668 8.78973 10.8705 8.75688 10.8582L9.1071 9.92158ZM8.79317 9.86638L8.81534 8.86662C8.49187 8.85945 8.05758 8.91629 7.69333 9.22009L8.33384 9.98804L8.97434 10.756C8.89472 10.8224 8.82047 10.8498 8.7817 10.8601C8.74597 10.8695 8.73778 10.8654 8.77101 10.8661L8.79317 9.86638ZM8.33384 9.98804L7.69454 9.21908C7.34074 9.51322 7.18721 9.91828 7.17846 10.313L8.17821 10.3351L9.17797 10.3573C9.17713 10.3949 9.16908 10.464 9.13205 10.5466C9.09363 10.6323 9.03652 10.7043 8.97313 10.757L8.33384 9.98804ZM8.17821 10.3351L7.17846 10.313C7.1712 10.6404 7.27708 10.9781 7.52839 11.2502L8.26301 10.5717L8.99763 9.89327C9.05655 9.95706 9.10663 10.0367 9.13923 10.1276C9.17125 10.217 9.1793 10.2973 9.17797 10.3573L8.17821 10.3351ZM8.26301 10.5717L7.52839 11.2502C7.68687 11.4218 7.87061 11.545 8.05122 11.6342L8.49409 10.7377L8.93695 9.84107C8.9267 9.83601 8.95639 9.84862 8.99763 9.89327L8.26301 10.5717ZM8.49409 10.7377L8.05873 11.6379C8.20121 11.7068 8.35211 11.7665 8.50809 11.8187L8.82558 10.8704L9.14308 9.92216C9.0522 9.89174 8.9821 9.86287 8.92944 9.8374L8.49409 10.7377ZM8.82558 10.8704L8.52748 11.825C8.6311 11.8573 8.73809 11.8947 8.84848 11.9373L9.20851 11.0043L9.56854 10.0714C9.4196 10.0139 9.2713 9.96199 9.12369 9.91589L8.82558 10.8704ZM9.20851 11.0043L8.86212 11.9424C8.9503 11.975 9.03636 12.0134 9.12051 12.0578L9.58744 11.1735L10.0544 10.2892C9.89271 10.2039 9.72615 10.1295 9.5549 10.0662L9.20851 11.0043ZM9.58744 11.1735L9.12654 12.061C9.15743 12.077 9.17792 12.0934 9.19384 12.11L9.91644 11.4188L10.639 10.7275C10.4664 10.547 10.2675 10.3999 10.0483 10.2861L9.58744 11.1735ZM9.91644 11.4188L9.20148 12.1179C9.20065 12.1171 9.2017 12.1179 9.20438 12.1221C9.20717 12.1265 9.2127 12.136 9.2195 12.1528L10.1465 11.7776L11.0734 11.4024C10.9725 11.1532 10.8276 10.9203 10.6314 10.7196L9.91644 11.4188ZM10.1465 11.7776L9.22164 12.158C9.21281 12.1366 9.22781 12.1587 9.22566 12.2557L10.2254 12.2778L11.2252 12.3C11.2317 12.0069 11.194 11.6956 11.0713 11.3972L10.1465 11.7776ZM10.2254 12.2778L9.22566 12.2557C9.22347 12.354 9.20526 12.4299 9.17866 12.4927L10.0994 12.8828L11.0202 13.2729C11.152 12.9619 11.2177 12.6344 11.2252 12.3L10.2254 12.2778ZM10.0994 12.8828L9.17866 12.4927C9.15317 12.5529 9.11991 12.6003 9.07481 12.6427L9.76062 13.3705L10.4464 14.0983C10.6947 13.8643 10.8874 13.5865 11.0202 13.2729L10.0994 12.8828ZM9.76062 13.3705L9.0749 12.6427C9.0422 12.6735 8.98614 12.7132 8.88538 12.7498L9.22615 13.6899L9.56693 14.63C9.88976 14.513 10.19 14.3399 10.4463 14.0984L9.76062 13.3705ZM9.22615 13.6899L8.89055 12.7479C8.81561 12.7746 8.70237 12.797 8.53534 12.7933L8.51317 13.7931L8.49101 14.7928C8.85539 14.8009 9.21748 14.7546 9.56175 14.6319L9.22615 13.6899ZM8.51317 13.7931L8.53534 12.7933C8.45856 12.7916 8.37464 12.7819 8.28255 12.7616L8.0674 13.7382L7.85224 14.7148C8.0631 14.7612 8.27636 14.7881 8.49101 14.7928L8.51317 13.7931ZM8.0674 13.7382L8.2852 12.7622C8.18886 12.7407 8.09664 12.7119 8.00791 12.6761L7.63304 13.6031L7.25818 14.5302C7.44992 14.6077 7.64727 14.669 7.8496 14.7142L8.0674 13.7382ZM7.63304 13.6031L8.0201 12.6811C7.92906 12.6429 7.84757 12.6001 7.77434 12.5537L7.23883 13.3982L6.70331 14.2428C6.87533 14.3518 7.05665 14.4457 7.24599 14.5252L7.63304 13.6031ZM7.23883 13.3982L7.77434 12.5537C7.71241 12.5144 7.67059 12.4786 7.64236 12.4491L6.91975 13.1403L6.19715 13.8316C6.34911 13.9904 6.52001 14.1265 6.70331 14.2428L7.23883 13.3982ZM6.91975 13.1403L7.75267 13.6937L8.08535 13.193L7.25243 12.6396L6.41951 12.0862L6.08683 12.5869L6.91975 13.1403ZM7.25243 12.6396L8.05642 13.2343C7.99241 13.3208 7.91393 13.3852 7.8358 13.4281L7.35407 12.5518L6.87233 11.6755C6.71173 11.7638 6.5655 11.8867 6.44845 12.045L7.25243 12.6396ZM7.35407 12.5518L7.84943 13.4205C7.73775 13.4842 7.60555 13.519 7.47097 13.5161L7.49313 12.5163L7.5153 11.5166C7.28214 11.5114 7.05724 11.5699 6.8587 11.6831L7.35407 12.5518ZM7.49313 12.5163L7.47097 13.5161C7.31342 13.5126 7.19599 13.4576 7.13099 13.4144L7.68463 12.5817L8.23828 11.7489C8.04651 11.6214 7.80141 11.5229 7.5153 11.5166L7.49313 12.5163ZM7.68463 12.5817L7.1433 13.4225C7.21068 13.4658 7.28521 13.5135 7.36678 13.5654L7.90342 12.7216L8.44006 11.8778C8.36096 11.8275 8.28963 11.7818 8.22596 11.7408L7.68463 12.5817ZM7.90342 12.7216L7.37647 13.5715C7.51476 13.6572 7.66109 13.7289 7.81064 13.7896L8.18649 12.8629L8.56234 11.9362C8.49942 11.9107 8.45704 11.8882 8.43037 11.8717L7.90342 12.7216ZM8.18649 12.8629L7.81064 13.7896C8.05526 13.8888 8.30668 13.9269 8.54225 13.9321L8.56441 12.9324L8.58658 11.9326C8.55983 11.932 8.54552 11.9298 8.54146 11.9291C8.53759 11.9284 8.54572 11.9295 8.56234 11.9362L8.18649 12.8629ZM8.56441 12.9324L8.54225 13.9321C8.87151 13.9394 9.27454 13.878 9.62645 13.6143L9.0269 12.814L8.42735 12.0137C8.55688 11.9166 8.65159 11.9341 8.58658 11.9326L8.56441 12.9324ZM9.0269 12.814L9.63603 13.6071C10.0639 13.2785 10.1913 12.8051 10.1998 12.4252L9.20001 12.403L8.20026 12.3808C8.20027 12.3802 8.20055 12.3684 8.20443 12.348C8.20836 12.3274 8.21623 12.2965 8.23202 12.259C8.26628 12.1777 8.3276 12.0902 8.41777 12.0209L9.0269 12.814ZM9.20001 12.403L10.1998 12.4252C10.2064 12.1244 10.1265 11.7838 9.88292 11.4926L9.11593 12.1342L8.34894 12.7759C8.2912 12.7069 8.25049 12.6294 8.22642 12.5524C8.20314 12.478 8.19945 12.4174 8.20026 12.3808L9.20001 12.403ZM9.11593 12.1342L9.88292 11.4926C9.71791 11.2953 9.5186 11.1557 9.31721 11.0583L8.88185 11.9586L8.4465 12.8589C8.44026 12.8558 8.39699 12.8333 8.34894 12.7759L9.11593 12.1342ZM8.88185 11.9586L9.32472 11.062C9.17004 10.9856 9.0069 10.9243 8.84066 10.8745L8.55343 11.8323L8.2662 12.7902C8.347 12.8144 8.40281 12.8373 8.43899 12.8552L8.88185 11.9586ZM8.55343 11.8323L8.84066 10.8745C8.72822 10.8408 8.61198 10.8038 8.4919 10.7634L8.17343 11.7114L7.85496 12.6593C7.9945 12.7062 8.13159 12.7498 8.2662 12.7902L8.55343 11.8323ZM8.17343 11.7114L8.50597 10.7683C8.41815 10.7373 8.33256 10.7006 8.24896 10.6579L7.79436 11.5486L7.33976 12.4393C7.50206 12.5221 7.66919 12.5939 7.8409 12.6545L8.17343 11.7114ZM7.79436 11.5486L8.26129 10.6643C8.23374 10.6498 8.21036 10.6322 8.18803 10.6089L7.46543 11.3001L6.74282 11.9914C6.91326 12.1696 7.10917 12.3177 7.32743 12.4329L7.79436 11.5486ZM7.46543 11.3001L8.20288 10.6247C8.2055 10.6276 8.19199 10.6146 8.17377 10.5667L7.23905 10.9221L6.30434 11.2775C6.39956 11.5279 6.53697 11.767 6.72797 11.9755L7.46543 11.3001ZM7.23905 10.9221L8.17553 10.5714C8.1762 10.5731 8.15811 10.5229 8.16107 10.3894L7.16131 10.3672L6.16156 10.3451C6.15483 10.6487 6.18856 10.9684 6.30257 11.2728L7.23905 10.9221ZM7.16131 10.3672L8.16107 10.3894C8.1619 10.3519 8.1695 10.3128 8.19089 10.2653L7.27878 9.85532L6.36668 9.44536C6.23923 9.72893 6.16852 10.0311 6.16156 10.3451L7.16131 10.3672ZM7.27878 9.85532L8.19089 10.2653C8.20674 10.23 8.23076 10.194 8.27419 10.1544L7.60047 9.41545L6.92674 8.67647C6.6901 8.89221 6.49967 9.14948 6.36668 9.44536L7.27878 9.85532ZM7.60047 9.41545L8.27419 10.1544C8.30571 10.1257 8.35882 10.089 8.45225 10.0552L8.11201 9.11486L7.77177 8.17452C7.46321 8.28617 7.1753 8.44986 6.92674 8.67647L7.60047 9.41545ZM8.11201 9.11486L8.46099 10.052C8.52234 10.0291 8.62195 10.0074 8.77711 10.0109L8.79927 9.01111L8.82144 8.01136C8.46232 8.0034 8.10375 8.05085 7.76303 8.17773L8.11201 9.11486ZM8.79927 9.01111L8.77711 10.0109C8.86576 10.0128 8.94725 10.0219 9.02254 10.0368L9.21634 9.05573L9.41013 8.07469C9.21648 8.03644 9.01992 8.01576 8.82144 8.01136L8.79927 9.01111ZM9.21634 9.05573L9.0401 10.0401C9.11602 10.0537 9.18086 10.0725 9.23663 10.0944L9.60305 9.164L9.96946 8.23354C9.78295 8.1601 9.58998 8.10673 9.39257 8.07139L9.21634 9.05573ZM9.60305 9.164L9.25112 10.1C9.31453 10.1239 9.36743 10.1504 9.41199 10.1781L9.94026 9.32905L10.4685 8.47997C10.3059 8.37876 10.1339 8.29525 9.95497 8.22797L9.60305 9.164ZM9.94026 9.32905L9.43244 10.1905C9.47604 10.2162 9.50621 10.2403 9.52737 10.2607L10.2218 9.5411L10.9162 8.82151C10.7736 8.68394 10.6161 8.56663 10.4481 8.46758L9.94026 9.32905ZM10.2218 9.5411L9.35071 9.04992L9.06953 9.54856L9.94058 10.0397L10.8116 10.5309L11.0928 10.0323L10.2218 9.5411ZM11.9227 13.8172L11.9006 14.817L12.9003 14.8391L12.9225 13.8394L11.9227 13.8172ZM10.8299 13.793L9.83015 13.7708L9.80798 14.7706L10.8077 14.7927L10.8299 13.793ZM10.9337 9.10989L10.9559 8.11013L9.95613 8.08797L9.93397 9.08772L10.9337 9.10989ZM12.0266 9.13411L13.0263 9.15628L13.0485 8.15652L12.0487 8.13436L12.0266 9.13411ZM11.9227 13.8172L11.9449 12.8175L10.8521 12.7932L10.8299 13.793L10.8077 14.7927L11.9006 14.817L11.9227 13.8172ZM10.8299 13.793L11.8297 13.8152L11.9335 9.13205L10.9337 9.10989L9.93397 9.08772L9.83015 13.7708L10.8299 13.793ZM10.9337 9.10989L10.9116 10.1096L12.0044 10.1339L12.0266 9.13411L12.0487 8.13436L10.9559 8.11013L10.9337 9.10989ZM12.0266 9.13411L11.0268 9.11195L10.923 13.7951L11.9227 13.8172L12.9225 13.8394L13.0263 9.15628L12.0266 9.13411ZM15.1464 11.3L14.4259 10.6065L14.4259 10.6065L15.1464 11.3ZM15.3036 10.4448L16.2501 10.1222L16.2501 10.1222L15.3036 10.4448ZM15.1608 10.2166L14.4382 10.9078L14.4497 10.9199L14.4616 10.9315L15.1608 10.2166ZM14.9165 10.0632L14.5672 11.0002L14.5734 11.0025L14.9165 10.0632ZM13.9984 9.99142L14.0206 8.99167L13.0208 8.9695L12.9987 9.96926L13.9984 9.99142ZM13.9655 11.4764L12.9657 11.4542L12.9436 12.454L13.9433 12.4761L13.9655 11.4764ZM15.4281 9.32851L15.0883 10.2691L15.0986 10.2727L15.4281 9.32851ZM16.0059 9.6629L15.3201 10.3907L15.3252 10.3954L16.0059 9.6629ZM16.3359 10.1558L15.3966 10.4991L15.3966 10.4991L16.3359 10.1558ZM16.305 11.4028L17.2302 11.7824L17.2302 11.7824L16.305 11.4028ZM15.95 11.8966L16.6035 12.6536L16.6035 12.6536L15.95 11.8966ZM15.3545 12.2114L15.6444 13.1685L15.6496 13.1669L15.3545 12.2114ZM13.9473 12.296L13.9695 11.2963L12.9697 11.2741L12.9476 12.2738L13.9473 12.296ZM13.9126 13.8613L13.8905 14.8611L14.8902 14.8833L14.9124 13.8835L13.9126 13.8613ZM12.8262 13.8372L11.8265 13.8151L11.8043 14.8148L12.8041 14.837L12.8262 13.8372ZM12.93 9.15414L12.9522 8.15439L11.9525 8.13222L11.9303 9.13198L12.93 9.15414ZM14.5312 11.4889L14.509 12.4887C14.9216 12.4978 15.4618 12.4143 15.8669 11.9934L15.1464 11.3L14.4259 10.6065C14.4984 10.5311 14.5713 10.5004 14.6035 10.4905C14.6299 10.4824 14.6199 10.4906 14.5534 10.4892L14.5312 11.4889ZM15.1464 11.3L15.8669 11.9934C16.2178 11.6288 16.336 11.1715 16.3451 10.7606L15.3454 10.7384L14.3456 10.7162C14.3448 10.7535 14.3398 10.7523 14.349 10.7264C14.3595 10.6969 14.3828 10.6512 14.4259 10.6065L15.1464 11.3ZM15.3454 10.7384L16.3451 10.7606C16.3497 10.553 16.3232 10.3365 16.2501 10.1222L15.3036 10.4448L14.3571 10.7675C14.3444 10.7303 14.3458 10.7095 14.3456 10.7162L15.3454 10.7384ZM15.3036 10.4448L16.2501 10.1222C16.1709 9.88963 16.0403 9.67799 15.8599 9.50162L15.1608 10.2166L14.4616 10.9315C14.4113 10.8824 14.376 10.8229 14.3571 10.7675L15.3036 10.4448ZM15.1608 10.2166L15.8834 9.52531C15.6981 9.33163 15.4791 9.2041 15.2597 9.12396L14.9165 10.0632L14.5734 11.0025C14.5539 10.9954 14.4977 10.9701 14.4382 10.9078L15.1608 10.2166ZM14.9165 10.0632L15.2659 9.12625C15.0362 9.04061 14.8021 9.00899 14.5863 9.00421L14.5641 10.004L14.542 11.0037C14.5694 11.0043 14.5845 11.0064 14.5892 11.0072C14.594 11.008 14.5854 11.007 14.5672 11.0002L14.9165 10.0632ZM14.5641 10.004L14.5863 9.00421L14.0206 8.99167L13.9984 9.99142L13.9763 10.9912L14.542 11.0037L14.5641 10.004ZM13.9984 9.99142L12.9987 9.96926L12.9657 11.4542L13.9655 11.4764L14.9653 11.4986L14.9982 10.0136L13.9984 9.99142ZM13.9655 11.4764L13.9433 12.4761L14.509 12.4887L14.5312 11.4889L14.5534 10.4892L13.9877 10.4766L13.9655 11.4764ZM14.5822 9.19077L14.56 10.1905C14.8148 10.1962 14.9835 10.2312 15.0883 10.269L15.4281 9.32851L15.7678 8.38799C15.4047 8.25684 15.0094 8.2 14.6043 8.19101L14.5822 9.19077ZM15.4281 9.32851L15.0986 10.2727C15.2307 10.3188 15.2932 10.3653 15.3201 10.3906L16.0059 9.6629L16.6918 8.93514C16.4204 8.67944 16.0978 8.50308 15.7576 8.38435L15.4281 9.32851ZM16.0059 9.6629L15.3252 10.3954C15.3645 10.4319 15.3839 10.4641 15.3966 10.4991L16.3359 10.1558L17.2751 9.81253C17.1505 9.47142 16.9499 9.17499 16.6867 8.9304L16.0059 9.6629ZM16.3359 10.1558L15.3966 10.4991C15.4192 10.5609 15.4343 10.6382 15.432 10.7403L16.4318 10.7625L17.4315 10.7847C17.4388 10.4539 17.39 10.1267 17.2751 9.81253L16.3359 10.1558ZM16.4318 10.7625L15.432 10.7403C15.4292 10.8656 15.4074 10.9561 15.3799 11.0233L16.305 11.4028L17.2302 11.7824C17.3613 11.4629 17.4239 11.1265 17.4315 10.7847L16.4318 10.7625ZM16.305 11.4028L15.3799 11.0233C15.3599 11.072 15.3343 11.1071 15.2965 11.1397L15.95 11.8966L16.6035 12.6536C16.8804 12.4145 17.0915 12.1204 17.2302 11.7824L16.305 11.4028ZM15.95 11.8966L15.2965 11.1397C15.2628 11.1688 15.1938 11.2145 15.0594 11.256L15.3545 12.2114L15.6496 13.1669C15.9945 13.0604 16.3224 12.8962 16.6035 12.6536L15.95 11.8966ZM15.3545 12.2114L15.0646 11.2544C14.9537 11.288 14.7835 11.3143 14.5352 11.3088L14.513 12.3086L14.4909 13.3083C14.8897 13.3171 15.2804 13.2787 15.6444 13.1685L15.3545 12.2114ZM14.513 12.3086L14.5352 11.3088L13.9695 11.2963L13.9473 12.296L13.9252 13.2958L14.4909 13.3083L14.513 12.3086ZM13.9473 12.296L12.9476 12.2738L12.9129 13.8392L13.9126 13.8613L14.9124 13.8835L14.9471 12.3182L13.9473 12.296ZM13.9126 13.8613L13.9348 12.8616L12.8484 12.8375L12.8262 13.8372L12.8041 14.837L13.8905 14.8611L13.9126 13.8613ZM12.8262 13.8372L13.826 13.8594L13.9298 9.17631L12.93 9.15414L11.9303 9.13198L11.8265 13.8151L12.8262 13.8372ZM12.93 9.15414L12.9079 10.1539L14.56 10.1905L14.5822 9.19077L14.6043 8.19101L12.9522 8.15439L12.93 9.15414Z" fill="#6725F4" mask="url(#path-3-inside-1_28158_42036)"/>
</g>
</svg>
