<svg width="24" height="24" viewBox="0 0 24 24" fill="none" xmlns="http://www.w3.org/2000/svg">
<mask id="mask0_28146_42018" style="mask-type:alpha" maskUnits="userSpaceOnUse" x="0" y="0" width="24" height="24">
<rect width="24" height="24" fill="#D9D9D9"/>
</mask>
<g mask="url(#mask0_28146_42018)">
<path d="M20.7328 4.69255L20.6176 9.72295C20.5408 10.1357 20.0608 10.3277 19.7152 10.0781L18.7072 9.34855L14.4736 16.7885L10.24 13.4957C10.24 13.4957 4.5472 19.7645 4 20.1677L10.24 9.76135C10.5376 9.91495 13.6864 12.2381 13.6864 12.2381L16.2592 7.72615L15.2512 7.16935C14.8768 6.93895 14.896 6.38215 15.2992 6.17095L19.8976 4.06855C20.224 3.89575 20.5888 4.06855 20.6944 4.37575C20.7328 4.47175 20.7328 4.56775 20.7136 4.68295L20.7328 4.69255Z" stroke="#6725F4" stroke-width="1.4" stroke-linecap="round" stroke-linejoin="round"/>
</g>
</svg>
