<svg width="25" height="24" viewBox="0 0 25 24" fill="none" xmlns="http://www.w3.org/2000/svg">
<mask id="mask0_28097_37331" style="mask-type:alpha" maskUnits="userSpaceOnUse" x="0" y="0" width="25" height="24">
<rect x="0.402344" width="24" height="24" fill="#D9D9D9"/>
</mask>
<g mask="url(#mask0_28097_37331)">
<path d="M19.5917 5.22737C19.5917 5.22737 18.5741 4.39217 16.4429 3.65297C14.5037 2.98097 13.0157 3.00017 12.7757 3.00017C12.5357 3.00017 11.0573 2.97137 9.1085 3.65297C6.9773 4.39217 5.9597 5.22737 5.9597 5.22737C5.9597 5.22737 5.1245 8.22258 5.4989 11.4578C5.8733 14.693 7.3517 16.6034 9.3197 18.1778C11.2109 19.685 12.6413 20.3378 12.7661 20.3954C12.8909 20.3378 14.3213 19.6754 16.2125 18.1778C18.1901 16.6034 19.6685 14.693 20.0333 11.4578C20.4077 8.22258 19.5725 5.22737 19.5725 5.22737H19.5917Z" stroke="#6725F4" stroke-width="1.4" stroke-linecap="round" stroke-linejoin="round"/>
<path d="M9.97266 11.1026L11.7199 13.013L15.5407 9.14417" stroke="#6725F4" stroke-width="1.4" stroke-linecap="round" stroke-linejoin="round"/>
</g>
</svg>
