<svg width="24" height="24" viewBox="0 0 24 24" fill="none" xmlns="http://www.w3.org/2000/svg">
<mask id="mask0_28160_42070" style="mask-type:alpha" maskUnits="userSpaceOnUse" x="0" y="0" width="24" height="24">
<rect x="0.5" y="0.5" width="23" height="23" fill="#D9D9D9" stroke="#6725F4"/>
</mask>
<g mask="url(#mask0_28160_42070)">
<path d="M21.3071 5.85277L21.1919 10.8832C21.1151 11.296 20.6351 11.488 20.2895 11.2384L19.2815 10.5088L14.5679 17.5552L10.3343 14.2624C10.3343 14.2624 4.16146 19.1584 3.61426 19.5616L10.3343 10.336C10.6319 10.4896 13.7903 13.0048 13.7903 13.0048L16.8431 8.88637L15.8351 8.32957C15.4607 8.09917 15.4799 7.54237 15.8831 7.33117L20.4815 5.22877C20.8079 5.05597 21.1727 5.22877 21.2783 5.53597C21.3167 5.63197 21.3167 5.72797 21.2975 5.84317L21.3071 5.85277Z" stroke="#6725F4" stroke-width="1.4" stroke-linecap="round" stroke-linejoin="round"/>
<path d="M6.50378 4L6.57098 4.2784C6.83978 5.392 7.71338 6.2656 8.83658 6.544L9.11498 6.6112L8.83658 6.6784C7.72298 6.9472 6.84938 7.8208 6.57098 8.944L6.50378 9.2224L6.43658 8.944C6.16778 7.8304 5.29418 6.9568 4.17098 6.6784L3.89258 6.6112L4.17098 6.544C5.28458 6.2752 6.15818 5.4016 6.43658 4.2784L6.50378 4Z" stroke="#6725F4" stroke-width="1.4" stroke-linecap="round" stroke-linejoin="round"/>
<path d="M4.0848 8.98236L4.1136 9.09756C4.2288 9.55836 4.5936 9.92316 5.0544 10.0384L5.1696 10.0672L5.0544 10.096C4.5936 10.2112 4.2288 10.576 4.1136 11.0368L4.0848 11.152L4.056 11.0368C3.9408 10.576 3.576 10.2112 3.1152 10.096L3 10.0672L3.1152 10.0384C3.576 9.92316 3.9408 9.55836 4.056 9.09756L4.0848 8.98236Z" stroke="#6725F4" stroke-width="1.4" stroke-linecap="round" stroke-linejoin="round"/>
<path d="M17.659 18.0736L17.6878 18.1888C17.803 18.6496 18.1678 19.0144 18.6286 19.1296L18.7438 19.1584L18.6286 19.1872C18.1678 19.3024 17.803 19.6672 17.6878 20.128L17.659 20.2432L17.6302 20.128C17.515 19.6672 17.1502 19.3024 16.6894 19.1872L16.5742 19.1584L16.6894 19.1296C17.1502 19.0144 17.515 18.6496 17.6302 18.1888L17.659 18.0736Z" stroke="#6725F4" stroke-width="1.4" stroke-linecap="round" stroke-linejoin="round"/>
</g>
</svg>
