<svg width="25" height="24" viewBox="0 0 25 24" fill="none" xmlns="http://www.w3.org/2000/svg">
<mask id="mask0_28097_37355" style="mask-type:alpha" maskUnits="userSpaceOnUse" x="0" y="0" width="25" height="24">
<rect x="0.902344" y="0.5" width="23" height="23" fill="#D9D9D9" stroke="#6725F4"/>
</mask>
<g mask="url(#mask0_28097_37355)">
<path d="M16.3449 7.12799C16.557 7.12799 16.7289 6.95606 16.7289 6.74399C16.7289 6.53191 16.557 6.35999 16.3449 6.35999C16.1329 6.35999 15.9609 6.53191 15.9609 6.74399C15.9609 6.95606 16.1329 7.12799 16.3449 7.12799Z" stroke="#6725F4" stroke-width="0.83" stroke-linecap="round" stroke-linejoin="round"/>
<path d="M10.2296 6.36963C10.85 6.36963 11.3528 5.86676 11.3528 5.24643C11.3528 4.6261 10.85 4.12323 10.2296 4.12323C9.60932 4.12323 9.10645 4.6261 9.10645 5.24643C9.10645 5.86676 9.60932 6.36963 10.2296 6.36963Z" stroke="#6725F4" stroke-width="0.83" stroke-linecap="round" stroke-linejoin="round"/>
<path d="M14.5687 16.1616L4.40234 20.2896C4.40234 20.2896 5.03594 18.36 5.03594 18.3504C5.08394 18.2064 7.72394 10.1424 7.77194 9.99841C10.0375 12.0528 12.3031 14.1072 14.5687 16.1712V16.1616Z" stroke="#6725F4" stroke-width="1.4" stroke-linecap="round" stroke-linejoin="round"/>
<path d="M10.374 9.192C12.0924 9.0768 13.542 7.9824 14.0316 6.4656C14.6076 4.6992 13.6188 3.192 13.4844 3" stroke="#6725F4" stroke-width="1.4" stroke-linecap="round" stroke-linejoin="round"/>
<path d="M15.5479 14.5872C15.8167 14.4144 16.8247 13.8096 18.1783 13.9728C19.6951 14.1552 20.5591 15.1632 20.7511 15.384" stroke="#6725F4" stroke-width="1.4" stroke-linecap="round" stroke-linejoin="round"/>
<path d="M18.7256 9.70082C18.86 9.64322 19.8584 9.23042 20.1752 8.19362C20.4728 7.22402 20.06 6.12002 19.148 5.46722" stroke="#6725F4" stroke-width="1.4" stroke-linecap="round" stroke-linejoin="round"/>
<path d="M15.3075 9.17278L15.6915 10.2192L16.7379 10.6032C17.0643 10.728 17.0643 11.1888 16.7379 11.3136L15.6915 11.6976L15.3075 12.744C15.1827 13.0704 14.7219 13.0704 14.5971 12.744L14.2131 11.6976L13.1667 11.3136C12.8403 11.1888 12.8403 10.728 13.1667 10.6032L14.2131 10.2192L14.5971 9.17278C14.7219 8.84638 15.1827 8.84638 15.3075 9.17278Z" stroke="#6725F4" stroke-width="0.83" stroke-linecap="round" stroke-linejoin="round"/>
<path d="M5.3623 18.168C5.4679 18.3312 5.6215 18.5232 5.8519 18.6768C6.6679 19.2432 7.6663 18.936 7.8295 18.8784" stroke="#6725F4" stroke-width="0.83" stroke-linecap="round" stroke-linejoin="round"/>
<path d="M6.1875 15.3744C6.4563 15.7776 6.8403 16.2384 7.3971 16.6224C9.4035 18.0144 11.8707 17.2272 12.2643 17.1024" stroke="#6725F4" stroke-width="0.83" stroke-linecap="round" stroke-linejoin="round"/>
<path d="M6.82129 12.9744C7.07089 13.3488 7.42609 13.7712 7.93489 14.1168C9.77809 15.3936 12.0437 14.6736 12.3989 14.5584" stroke="#6725F4" stroke-width="0.83" stroke-linecap="round" stroke-linejoin="round"/>
</g>
</svg>
