<svg width="25" height="24" viewBox="0 0 25 24" fill="none" xmlns="http://www.w3.org/2000/svg">
<mask id="mask0_28097_37373" style="mask-type:alpha" maskUnits="userSpaceOnUse" x="0" y="0" width="25" height="24">
<rect x="0.902344" y="0.5" width="23" height="23" fill="#D9D9D9" stroke="#6725F4"/>
</mask>
<g mask="url(#mask0_28097_37373)">
<path d="M20.2989 8.29227C20.2029 9.07947 19.9533 9.65547 19.5789 10.1259C19.3581 10.4043 19.1085 10.6443 18.8301 10.8651C18.1101 11.4411 17.5629 11.7003 17.5149 11.7195C17.5149 11.7195 16.9197 11.4411 16.1997 10.8651C15.4413 10.2603 14.8749 9.53067 14.7309 8.29227C14.5869 7.04427 14.9037 5.90187 14.9037 5.90187C14.9037 5.90187 15.0189 5.80587 15.2397 5.68107C15.4413 5.56587 15.7293 5.42187 16.1133 5.29707C16.8621 5.03787 17.4285 5.04747 17.5149 5.04747C17.6109 5.04747 18.1773 5.04747 18.9261 5.29707C19.7421 5.58507 20.1261 5.90187 20.1261 5.90187C20.1261 5.90187 20.4429 7.04427 20.3085 8.29227H20.2989Z" stroke="#6725F4" stroke-width="1.4" stroke-linecap="round" stroke-linejoin="round"/>
<path d="M16.4395 8.15788L17.1115 8.88748L18.5707 7.39948" stroke="#6725F4" stroke-width="0.8" stroke-linecap="round" stroke-linejoin="round"/>
<path d="M19.4343 13.3131C19.2231 13.9371 18.9063 14.5227 18.4935 15.0411C18.2439 15.3579 17.9655 15.6363 17.6679 15.9051H17.6487C17.6295 15.9243 17.6199 15.9339 17.6007 15.9531C17.5815 15.9531 17.5719 15.9819 17.5623 15.9915C17.5047 16.0587 17.4855 16.1259 17.4759 16.2027C17.4759 16.2219 17.4759 16.2315 17.4759 16.2411V16.2987C17.4759 16.9515 17.4759 17.5947 17.4759 18.2379C17.4759 18.5931 17.3799 18.8619 17.0535 19.0155H15.2679H14.4519C14.3463 18.9675 14.2599 18.9099 14.2023 18.8427C14.0583 18.6891 14.0007 18.4875 14.0199 18.2379C14.0391 18.0555 14.0199 17.8731 14.0199 17.6523C12.8679 17.8827 11.7255 17.8827 10.5639 17.6523C10.5639 17.8635 10.5639 18.0459 10.5639 18.2379C10.5927 18.5931 10.4679 18.8619 10.1415 19.0155H7.53034C7.45354 18.9867 7.39594 18.9387 7.34794 18.9003C7.34794 18.9003 7.34794 18.9003 7.32874 18.9003C7.32874 18.9003 7.30954 18.8811 7.30954 18.8715C7.14634 18.7179 7.08874 18.5163 7.09834 18.2475C7.11754 17.6043 7.09834 16.9611 7.09834 16.3179V16.2507C7.09834 16.1931 7.09834 16.1355 7.07914 16.0875C7.07914 16.0875 7.03114 15.9915 6.98314 15.9531C6.95434 15.9243 6.91594 15.9051 6.88714 15.8763C6.88714 15.8763 6.84874 15.8379 6.82954 15.8283C6.75274 15.7515 6.67594 15.6843 6.60874 15.6171C6.57034 15.5787 6.54154 15.5499 6.50314 15.5115C6.47434 15.4731 6.43594 15.4443 6.40714 15.4059C6.27274 15.2619 6.14794 15.1083 6.03274 14.9643C5.90794 14.8107 5.79274 14.6475 5.69674 14.4939C5.69674 14.4939 5.69674 14.4747 5.67754 14.4747C5.67754 14.4747 5.67754 14.4747 5.67754 14.4555C5.65834 14.4363 5.62954 14.4267 5.61034 14.4075C5.59114 14.4075 5.57194 14.3883 5.54314 14.3787C5.52394 14.3787 5.50474 14.3787 5.48554 14.3787H5.41834C5.24554 14.3787 5.07274 14.3787 4.89994 14.3787C4.79434 14.3787 4.68874 14.3787 4.58314 14.3787H4.42954C4.35274 14.3787 4.27594 14.3787 4.20874 14.3787C4.07434 14.3595 3.94954 14.3115 3.86314 14.2347C3.60394 14.1963 3.40234 13.2459 3.40234 12.0651C3.40234 10.8843 3.62314 9.89547 3.88234 9.89547C4.02634 9.78027 4.19914 9.74187 4.42954 9.76107C4.61194 9.76107 4.78474 9.76107 4.96714 9.76107C5.02474 9.76107 5.10154 9.69387 5.12074 9.64587C5.50474 8.59947 6.15754 7.72587 6.99274 6.99627C7.05994 6.94827 7.10794 6.83307 7.10794 6.75627C7.10794 6.05547 7.10794 5.34507 7.10794 4.64427C7.10794 4.22187 7.34794 3.98187 7.77034 4.00107C8.78794 4.02987 9.67114 4.40427 10.3815 5.13387L10.4295 5.18187C10.4967 5.25867 10.5639 5.28747 10.6407 5.29707C10.6791 5.29707 10.7175 5.29707 10.7655 5.29707C12.3495 5.03787 13.8471 5.14347 15.2487 5.67147C15.0183 5.79627 14.9127 5.89227 14.9127 5.89227C14.9127 5.89227 14.6055 7.03467 14.7399 8.28267C14.8839 9.52107 15.4503 10.2507 16.2087 10.8555C16.9287 11.4315 17.4759 11.6907 17.5239 11.7099C17.5239 11.7099 18.1191 11.4315 18.8391 10.8555C19.1175 10.6347 19.3671 10.3947 19.5879 10.1163C19.8471 11.1627 19.7799 12.2859 19.4343 13.3035V13.3131Z" stroke="#6725F4" stroke-width="1.4" stroke-linecap="round" stroke-linejoin="round"/>
<path d="M7.1084 10.3466C7.1084 10.6538 7.3676 10.9226 7.6844 10.9226C8.0012 10.9226 8.27 10.6538 8.2604 10.337C8.2604 10.0298 7.9916 9.77063 7.6748 9.77063C7.3676 9.77063 7.1084 10.0394 7.1084 10.3466Z" stroke="#6725F4" stroke-width="1.4" stroke-linecap="round" stroke-linejoin="round"/>
<path d="M19.4346 13.313L20.625 14.705" stroke="#6725F4" stroke-width="0.83" stroke-linecap="round" stroke-linejoin="round"/>
</g>
</svg>
