<svg width="24" height="24" viewBox="0 0 24 24" fill="none" xmlns="http://www.w3.org/2000/svg">
<mask id="mask0_853_5421" style="mask-type:alpha" maskUnits="userSpaceOnUse" x="0" y="0" width="24" height="24">
<rect width="24" height="24" fill="#D9D9D9"/>
</mask>
<g mask="url(#mask0_853_5421)">
<path d="M20.6667 20.0247L17.2228 16.5808C18.507 15.141 19.3048 13.2343 19.3048 11.1524C19.3048 6.65787 15.6469 3 11.1524 3C6.65787 3 3 6.65787 3 11.1524C3 15.6469 6.65787 19.3048 11.1524 19.3048C12.7479 19.3048 14.2266 18.8378 15.4718 18.0595L19.0518 21.6396C19.2659 21.8536 19.5577 21.9703 19.8496 21.9703C20.1414 21.9703 20.4333 21.8536 20.6474 21.6396C21.1143 21.1921 21.1143 20.4721 20.6668 20.0247L20.6667 20.0247ZM5.27641 11.1524C5.27641 7.92256 7.90314 5.27648 11.1524 5.27648C14.4016 5.27648 17.0088 7.9226 17.0088 11.1524C17.0088 14.3823 14.3821 17.0284 11.1524 17.0284C7.9226 17.0284 5.27641 14.4016 5.27641 11.1524Z" fill="#7E7E7E"/>
</g>
</svg>
