<svg width="17" height="13" viewBox="0 0 17 13" fill="none" xmlns="http://www.w3.org/2000/svg">
<path d="M10.7736 5.89031C10.9353 5.97316 11.0369 6.13937 11.0369 6.32092C11.0369 6.50246 10.9353 6.66867 10.7736 6.75152L9.26174 7.53042L7.60711 8.37949H7.60728C7.45761 8.45593 7.27909 8.44935 7.13567 8.36194C6.99225 8.27471 6.90416 8.11929 6.90332 7.95124V4.69066C6.90332 4.52227 6.99106 4.36601 7.13466 4.2781C7.27825 4.19019 7.45728 4.18344 7.60728 4.26005L9.26174 5.11149L10.7736 5.89031Z" stroke="#7E7E7E" stroke-width="0.725702" stroke-linecap="round" stroke-linejoin="round"/>
<path d="M3.97145 0.878906H13.3732C14.8427 0.878906 16.0341 2.34843 16.0341 3.53981V9.10353C16.0341 10.5731 14.8428 11.7644 13.3732 11.7644H3.97145C2.50193 11.7644 1.31055 10.2949 1.31055 9.10353V3.53981C1.31055 2.07029 2.50184 0.878906 3.97145 0.878906Z" stroke="#7E7E7E" stroke-width="0.725702" stroke-linecap="round" stroke-linejoin="round"/>
</svg>
