<svg width="24" height="24" viewBox="0 0 24 24" fill="none" xmlns="http://www.w3.org/2000/svg">
<mask id="mask0_516_26893" style="mask-type:alpha" maskUnits="userSpaceOnUse" x="0" y="0" width="24" height="24">
<rect width="24" height="24" fill="#D9D9D9"/>
</mask>
<g mask="url(#mask0_516_26893)">
<circle cx="12" cy="12" r="12" fill="#4FC16F"/>
<path d="M0.828311 23.485L2.62146 16.7929L7.52044 21.6919L0.828311 23.485Z" fill="#4FC16F"/>
<path d="M7.31749 5.76552C6.46668 6.66203 5.82457 7.49792 5.68457 8.31743C5.70776 10.1662 7.45307 12.4555 9.55034 14.5475C11.6365 16.6283 14.0528 18.6826 15.8093 18.4167C16.6349 18.2765 17.4771 17.6301 18.3821 16.7738C18.6727 16.4969 18.6726 15.9011 18.3763 15.6055L16.5901 13.824C16.282 13.5167 15.6845 13.5165 15.2921 13.724L14.0897 14.6034C13.448 15.1495 12.096 13.8095 11.1985 12.9143C10.303 12.0212 8.93668 10.8085 9.51263 10.025L10.3918 8.829C10.5968 8.44159 10.5966 7.84574 10.3029 7.55275L8.52373 5.77815C8.20636 5.46156 7.60884 5.46141 7.31746 5.76561L7.31749 5.76552Z" fill="white"/>
</g>
</svg>
