<svg width="87" height="73" viewBox="0 0 87 73" fill="none" xmlns="http://www.w3.org/2000/svg">
<g clip-path="url(#clip0_792_7444)">
<path d="M58.6719 51.3632V11.7963C58.6719 9.86469 57.106 8.29883 55.1744 8.29883H52.0284C50.0968 8.29883 48.5309 9.86469 48.5309 11.7963V51.3632C48.5309 53.2948 50.0968 54.8606 52.0284 54.8606H55.1744C57.106 54.8606 58.6719 53.2948 58.6719 51.3632Z" fill="#F3F3F3" stroke="#1C1C1C" stroke-width="0.59" stroke-linecap="round" stroke-linejoin="round"/>
<path d="M48.4575 51.2651C48.4575 51.2651 51.1051 42.546 58.7374 43.4449L58.6475 38.0762L48.4575 39.6206V51.2651Z" fill="#1C1C1C" stroke="#1C1C1C" stroke-width="0.31" stroke-miterlimit="10"/>
<path d="M36.9029 15.809C41.4218 15.809 45.1072 19.4862 45.1072 24.0133C45.1072 28.5404 41.4299 32.2176 36.9029 32.2176H32.6046C28.0857 32.2176 24.4003 28.5404 24.4003 24.0133C24.4003 19.4862 28.0775 15.809 32.6046 15.809H36.9029ZM36.9029 12.7773H32.6046C26.4024 12.7773 21.3687 17.8029 21.3687 24.0133C21.3687 30.2155 26.3942 35.2493 32.6046 35.2493H36.9029C43.1051 35.2493 48.1388 30.2237 48.1388 24.0133C48.1388 17.8111 43.1133 12.7773 36.9029 12.7773Z" fill="#F3F3F3"/>
<path d="M36.9029 15.809C41.4218 15.809 45.1072 19.4862 45.1072 24.0133C45.1072 28.5404 41.4299 32.2176 36.9029 32.2176H32.6046C28.0857 32.2176 24.4003 28.5404 24.4003 24.0133C24.4003 19.4862 28.0775 15.809 32.6046 15.809H36.9029M36.9029 12.7773H32.6046C26.4024 12.7773 21.3687 17.8029 21.3687 24.0133C21.3687 30.2155 26.3942 35.2493 32.6046 35.2493H36.9029C43.1051 35.2493 48.1388 30.2237 48.1388 24.0133C48.1388 17.8111 43.1133 12.7773 36.9029 12.7773Z" stroke="#1C1C1C" stroke-width="0.59" stroke-linecap="round" stroke-linejoin="round"/>
<g style="mix-blend-mode:multiply" opacity="0.16">
<g style="mix-blend-mode:multiply" opacity="0.45">
<path d="M34.8107 32.2261L32.0732 32.2016C32.0732 32.2016 33.1682 34.2363 29.6953 34.8655C29.6953 34.8655 31.0845 35.2251 32.6126 35.2332C34.1407 35.2414 38.063 35.2332 38.063 35.2332L35.0477 32.1035L34.8107 32.2261Z" fill="#7938F7"/>
</g>
</g>
<path d="M74.5899 15.809C79.1088 15.809 82.7942 19.4862 82.7942 24.0133C82.7942 28.5404 79.1169 32.2176 74.5899 32.2176H70.2916C65.7727 32.2176 62.0873 28.5404 62.0873 24.0133C62.0873 19.4862 65.7646 15.809 70.2916 15.809H74.5899ZM74.5899 12.7773H70.2916C64.0894 12.7773 59.0557 17.8029 59.0557 24.0133C59.0557 30.2155 64.0812 35.2493 70.2916 35.2493H74.5899C80.7921 35.2493 85.8258 30.2237 85.8258 24.0133C85.8258 17.8111 80.8003 12.7773 74.5899 12.7773Z" fill="#F3F3F3"/>
<path d="M74.5899 15.809C79.1088 15.809 82.7942 19.4862 82.7942 24.0133C82.7942 28.5404 79.1169 32.2176 74.5899 32.2176H70.2916C65.7727 32.2176 62.0873 28.5404 62.0873 24.0133C62.0873 19.4862 65.7646 15.809 70.2916 15.809H74.5899M74.5899 12.7773H70.2916C64.0894 12.7773 59.0557 17.8029 59.0557 24.0133C59.0557 30.2155 64.0812 35.2493 70.2916 35.2493H74.5899C80.7921 35.2493 85.8258 30.2237 85.8258 24.0133C85.8258 17.8111 80.8003 12.7773 74.5899 12.7773Z" stroke="#1C1C1C" stroke-width="0.59" stroke-linecap="round" stroke-linejoin="round"/>
<path d="M77.8093 4.70312V17.0994C77.8093 30.4682 66.9738 41.3037 53.605 41.3037C43.0718 41.3037 34.1158 34.5785 30.7818 25.1975C29.8829 22.6643 29.3926 19.9432 29.3926 17.0994V4.70312H77.8093Z" fill="#F3F3F3" stroke="#1C1C1C" stroke-width="0.59" stroke-linecap="round" stroke-linejoin="round"/>
<path d="M77.8669 8.51126V12.4009C77.8669 12.4009 77.8424 12.4009 77.8015 12.3928C76.1999 12.0986 44.0855 6.44384 30.7739 23.2447C29.8751 20.7115 29.3848 17.9903 29.3848 15.1466V5.67571L32.7515 3.63281L72.2121 6.41116L77.7933 7.6369L77.8587 8.51943L77.8669 8.51126Z" fill="#1C1C1C" stroke="#1C1C1C" stroke-width="0.31" stroke-miterlimit="10"/>
<path d="M81.3723 3.83729V6.98336C81.3723 8.92003 79.8034 10.489 77.8667 10.489H29.3274C27.3907 10.489 25.8218 8.92003 25.8218 6.98336V3.83729C25.8218 3.47774 25.879 3.13453 25.977 2.80767C26.4183 1.37764 27.7503 0.339844 29.3274 0.339844H77.8667C79.4438 0.339844 80.7758 1.37764 81.2171 2.80767C81.3151 3.13453 81.3723 3.47774 81.3723 3.83729Z" fill="#F3F3F3" stroke="#1C1C1C" stroke-width="0.59" stroke-linecap="round" stroke-linejoin="round"/>
<path d="M36.8862 60.3447C36.9598 60.1568 37.0333 59.9688 37.115 59.7809C39.5175 54.2977 45.9976 50.3672 53.6053 50.3672C61.2131 50.3672 68.1181 54.5674 70.3163 60.3365H36.8862V60.3447Z" fill="#F3F3F3" stroke="#1C1C1C" stroke-width="0.59" stroke-linecap="round" stroke-linejoin="round"/>
<path d="M38.0304 71.9724C58.4294 71.9724 74.966 71.0285 74.966 69.8641C74.966 68.6998 58.4294 67.7559 38.0304 67.7559C17.6314 67.7559 1.09473 68.6998 1.09473 69.8641C1.09473 71.0285 17.6314 71.9724 38.0304 71.9724Z" fill="#1C1C1C" stroke="#1C1C1C" stroke-width="0.31" stroke-miterlimit="10"/>
<path d="M76.2488 60.3438H30.9454C29.6863 60.3438 28.6655 61.3645 28.6655 62.6236V68.2048C28.6655 69.464 29.6863 70.4847 30.9454 70.4847H76.2488C77.5079 70.4847 78.5287 69.464 78.5287 68.2048V62.6236C78.5287 61.3645 77.5079 60.3438 76.2488 60.3438Z" fill="#F3F3F3" stroke="#1C1C1C" stroke-width="0.59" stroke-linecap="round" stroke-linejoin="round"/>
<g style="mix-blend-mode:multiply" opacity="0.16">
<path d="M77.9977 69.6841C77.581 70.1744 76.9518 70.4931 76.2572 70.4931H30.9456C29.6872 70.4931 28.6658 69.4716 28.6658 68.2132V62.6238C28.6658 61.3654 29.6872 60.3439 30.9456 60.3439H36.8864C36.9599 60.156 37.0335 59.968 37.1152 59.7801C38.9538 55.5881 43.1785 52.3031 48.4655 50.9956V40.7566C40.2286 38.9752 33.5605 33.0181 30.7822 25.1979C29.8833 22.6647 29.393 19.9353 29.393 17.0998V10.4808H29.3358C27.4073 10.4808 25.8384 8.91186 25.8384 6.98336V3.83729C25.8384 3.47774 25.8956 3.13453 25.9936 2.80767C26.4349 1.37764 27.7669 0.339844 29.344 0.339844H43.8241C43.3093 0.764767 42.9089 1.34495 42.7127 1.99868C42.6147 2.32554 42.5575 2.66875 42.5575 3.0283V6.1662C42.5575 8.10287 44.1264 9.67181 46.0549 9.67181H46.1121V16.299C46.1121 19.1345 46.6024 21.8638 47.5013 24.397C50.0345 31.5309 55.8118 37.1202 63.06 39.3919C61.6709 39.9803 60.2163 40.4461 58.7046 40.7729L58.7536 43.4369C58.7536 43.4369 58.7046 43.4369 58.6882 43.4369V50.9793C59.5054 51.1754 60.298 51.4287 61.058 51.7229C57.7403 53.3981 55.1744 55.9476 53.8425 58.9793C53.7607 59.1672 53.6872 59.3552 53.6137 59.5431H47.6729C46.4145 59.5431 45.393 60.5646 45.393 61.823V67.4124C45.393 68.6708 46.4145 69.6922 47.6729 69.6922H78.0141L77.9977 69.6841Z" fill="#7938F7"/>
</g>
<path d="M62.0957 36.0574L66.7208 34.4312C72.1141 32.5354 76.4123 20.989 74.5165 15.5957L69.8914 17.2219C71.7872 22.6151 67.489 34.1616 62.1039 36.0574H62.0957Z" fill="white"/>
</g>
<defs>
<clipPath id="clip0_792_7444">
<rect width="85.0909" height="72" fill="white" transform="translate(0.972168 0.09375)"/>
</clipPath>
</defs>
</svg>
