<svg width="24" height="24" viewBox="0 0 24 24" fill="none" xmlns="http://www.w3.org/2000/svg">
<path d="M2 12C1.99953 12.1913 2.05392 12.3787 2.15672 12.5399C2.25952 12.7012 2.40642 12.8297 2.58 12.91L11.18 16.82C11.4392 16.9374 11.7205 16.9981 12.005 16.9981C12.2895 16.9981 12.5708 16.9374 12.83 16.82L21.41 12.92C21.587 12.8404 21.737 12.7111 21.8418 12.5477C21.9466 12.3844 22.0015 12.1941 22 12M2 17C1.99953 17.1913 2.05392 17.3787 2.15672 17.5399C2.25952 17.7012 2.40642 17.8297 2.58 17.91L11.18 21.82C11.4392 21.9374 11.7205 21.9981 12.005 21.9981C12.2895 21.9981 12.5708 21.9374 12.83 21.82L21.41 17.92C21.587 17.8404 21.737 17.7111 21.8418 17.5477C21.9466 17.3844 22.0015 17.1941 22 17M12.83 2.18C12.5694 2.06115 12.2864 1.99964 12 1.99964C11.7136 1.99964 11.4306 2.06115 11.17 2.18L2.6 6.08C2.42255 6.15824 2.27168 6.2864 2.16577 6.44885C2.05985 6.61131 2.00346 6.80106 2.00346 6.995C2.00346 7.18893 2.05985 7.37868 2.16577 7.54114C2.27168 7.7036 2.42255 7.83175 2.6 7.91L11.18 11.82C11.4406 11.9388 11.7236 12.0004 12.01 12.0004C12.2964 12.0004 12.5794 11.9388 12.84 11.82L21.42 7.92C21.5975 7.84175 21.7483 7.7136 21.8542 7.55114C21.9602 7.38868 22.0165 7.19893 22.0165 7.005C22.0165 6.81106 21.9602 6.62131 21.8542 6.45885C21.7483 6.2964 21.5975 6.16824 21.42 6.09L12.83 2.18Z" stroke="#6725F4" stroke-linecap="round" stroke-linejoin="round"/>
</svg>
