<svg viewBox="0 0 132.05 82.74" xmlns="http://www.w3.org/2000/svg" xmlns:xlink="http://www.w3.org/1999/xlink"><linearGradient id="a" gradientTransform="matrix(.86637426 .49939528 -.49939528 .86637426 26.63 -32.11)" gradientUnits="userSpaceOnUse" x1="80.44" x2="58.41" y1="66.77" y2="63.12"><stop offset="0" stop-color="#00008f"/><stop offset=".13" stop-color="#040391" stop-opacity=".97"/><stop offset=".26" stop-color="#110e98" stop-opacity=".9"/><stop offset=".37" stop-color="#2821a5" stop-opacity=".77"/><stop offset=".49" stop-color="#473cb7" stop-opacity=".58"/><stop offset=".6" stop-color="#705ece" stop-opacity=".35"/><stop offset=".71" stop-color="#a187e9" stop-opacity=".06"/><stop offset=".73" stop-color="#ac91f0" stop-opacity="0"/></linearGradient><linearGradient id="b" gradientTransform="matrix(-.97741589 -.2113248 -.2113248 .97741589 1786.03 832.04)" gradientUnits="userSpaceOnUse" x1="1846.68" x2="1804.78" y1="-437.26" y2="-399.03"><stop offset=".04" stop-color="#5f29e9"/><stop offset=".44" stop-color="#5f29e9"/><stop offset=".48" stop-color="#642feb"/><stop offset=".55" stop-color="#7542f1"/><stop offset=".58" stop-color="#7e4cf5"/><stop offset=".76" stop-color="#a282f1"/><stop offset=".8" stop-color="#ac91f0"/></linearGradient><linearGradient id="c" gradientTransform="matrix(-.83010962 -.55760024 -.55760024 .83010962 263.74 -430.6)" gradientUnits="userSpaceOnUse" x1="-99.06" x2="-138.73" y1="467.84" y2="503.75"><stop offset="0" stop-color="#997bee" stop-opacity=".25"/><stop offset=".12" stop-color="#cebff6" stop-opacity=".12"/><stop offset=".22" stop-color="#fff" stop-opacity="0"/><stop offset=".5" stop-color="#8d6bed" stop-opacity=".4"/><stop offset=".56" stop-color="#9272ed" stop-opacity=".37"/><stop offset=".65" stop-color="#a286ef" stop-opacity=".29"/><stop offset=".75" stop-color="#bca8f3" stop-opacity=".16"/><stop offset=".85" stop-color="#ded3f8" stop-opacity="0"/><stop offset="1" stop-color="#9170ed" stop-opacity=".29"/></linearGradient><ellipse cx="50.01" cy="79.75" fill="#1c1c1c" rx="50.01" ry="2.99"/><path d="m16.61 70.9c-1.94.93-2.59 3.59-1.47 5.95 1.13 2.36 3.61 3.51 5.55 2.59 1.94-.93 2.59-3.59 1.47-5.95-1.13-2.36-3.61-3.51-5.55-2.59z" fill="#1c1c1c"/><path d="m21.45 79.82c-1.07 0-2.81-1.36-4.06-3.97-.65-1.35-1-2.74-1-3.9 0-1.05.3-1.8.83-2.05.01 0 .02-.01.03-.02l29.33-13.88 4.7 9.81s-29.33 13.88-29.34 13.88c-.17.08-.32.12-.49.12z" fill="#f4f4f4"/><path d="m46.41 56.5 4.38 9.14-28.99 13.72s-.03.01-.04.02c-.09.04-.19.06-.3.06-.95 0-2.59-1.4-3.72-3.75-1.36-2.83-1.12-5.08-.35-5.45.03-.01.06-.03.08-.04l28.95-13.7m.35-1-29.67 14.04s-.02.01-.04.02c-1.39.66-1.39 3.55 0 6.45 1.19 2.49 3.02 4.18 4.4 4.18.22 0 .43-.04.63-.14l.03-.02 29.67-14.04z" fill="#1c1c1c"/><path d="m46.74 55.51c-1.69.81-1.93 3.81-.54 6.71s3.88 4.59 5.57 3.78 1.93-3.81.54-6.71-3.88-4.59-5.57-3.78z" fill="#1c1c1c"/><path d="m55.19 54.14 2.99 6.24-6.84 3.21h-.03c-1 .49-2.49-.51-3.31-2.24-.83-1.72-.68-3.51.32-3.99h.03l6.84-3.23z" fill="#f4f4f4" stroke="#1c1c1c" stroke-linecap="round" stroke-linejoin="round" stroke-width=".75"/><path d="m54.72 54.36-1.79.84s3.02 3.61 0 7.65l5.64-2.67-3.13-5.67-.71-.15z" fill="url(#a)" opacity=".68"/><path d="m58.86 17.98c-12.25 18.24-7.39 42.96 10.85 55.21s42.96 7.39 55.21-10.85 7.4-42.96-10.84-55.21c-18.25-12.24-42.97-7.39-55.22 10.85zm6 4.03c10.03-14.93 30.26-18.9 45.18-8.88 14.93 10.03 18.9 30.26 8.88 45.18-10.03 14.93-30.26 18.9-45.18 8.88-14.93-10.03-18.9-30.26-8.88-45.18z" fill="#f4f4f4" stroke="#1c1c1c" stroke-linecap="round" stroke-linejoin="round" stroke-width=".75"/><path d="m65.27 22.29c9.87-14.7 29.79-18.61 44.49-8.74s18.61 29.79 8.74 44.49-29.79 18.61-44.49 8.74-18.61-29.79-8.74-44.49z" fill="url(#b)"/><path d="m65.27 22.29c9.87-14.7 29.79-18.61 44.49-8.74s18.61 29.79 8.74 44.49-29.79 18.61-44.49 8.74-18.61-29.79-8.74-44.49z" fill="url(#c)"/><path d="m65.27 22.29c9.87-14.7 29.79-18.61 44.49-8.74s18.61 29.79 8.74 44.49-29.79 18.61-44.49 8.74-18.61-29.79-8.74-44.49z" fill="#f4f4f4" stroke="#1c1c1c" stroke-linecap="round" stroke-linejoin="round" stroke-width=".16"/><path d="m65.27 22.29c9.87-14.7 29.79-18.61 44.49-8.74s18.61 29.79 8.74 44.49-29.79 18.61-44.49 8.74-18.61-29.79-8.74-44.49z" fill="none" stroke="#00008f" stroke-miterlimit="10" stroke-width=".29"/><path d="m63.49 21.09c-10.53 15.68-6.36 36.94 9.33 47.47 15.68 10.53 36.94 6.36 47.47-9.33 10.53-15.68 6.36-36.94-9.32-47.47-15.68-10.53-36.94-6.36-47.48 9.33z" fill="#f4f4f4" stroke="#1c1c1c" stroke-linecap="round" stroke-linejoin="round" stroke-width=".75"/><path d="m76.18 32.15c4.69-9.05 15.12-16.45 24.8-19.06 6.31-1.69 13.27-1.73 19.82-.25-1.99-2.1-4.23-4.02-6.73-5.7-18.24-12.25-42.96-7.4-55.21 10.84-7.49 11.15-8.57 24.71-4.13 36.38l-1.79.85-2.71 1.27c-1.17-1.02-2.45-1.44-3.45-.97l-29.67 14.04s-.02.01-.04.02c-.54.26-.87.87-.98 1.68-1.5 1.13-1.93 3.48-.92 5.6.26.55.61 1.03 1 1.44 11.91-5.54 21.95-14.69 35.14-17.7 1.94-.44 3.63-.1 4.97.71l1.49-.7c2.92 4.89 6.93 9.22 11.97 12.61 3.17 2.13 6.53 3.73 9.99 4.84-10-12.75-11.34-30.79-3.52-45.89z" fill="#713cef" opacity=".16"/></svg>