<svg height="22" viewBox="0 0 20 22" width="20" xmlns="http://www.w3.org/2000/svg"><g fill="none"><path d="m18.933 15.503c-1.44-1.171-2.266-2.885-2.266-4.698v-2.555c0-3.226-2.49-5.896-5.714-6.343v-.99c0-.507-.427-.917-.953-.917s-.953.41-.953.917v.99c-3.226.447-5.714 3.117-5.714 6.343v2.556c0 1.814-.826 3.526-2.274 4.705-.37.306-.583.75-.583 1.219 0 .884.747 1.604 1.667 1.604h15.714c.919 0 1.667-.719 1.667-1.604 0-.47-.213-.913-.591-1.227z" fill="#6029ac"/><path d="m10 22c1.724 0 3.167-1.183 3.499-2.75h-6.999c.333 1.567 1.776 2.75 3.5 2.75z" fill="#9594f2"/></g></svg>