<svg width="76" height="76" viewBox="0 0 76 76" fill="none" xmlns="http://www.w3.org/2000/svg">
<mask id="mask0_1252_281" style="mask-type:alpha" maskUnits="userSpaceOnUse" x="0" y="0" width="76" height="76">
<rect width="76" height="76" fill="#C4C4C4"/>
</mask>
<g mask="url(#mask0_1252_281)">
<circle cx="38" cy="38" r="30" stroke="#6029AC" stroke-width="4"/>
<circle cx="38" cy="38" r="23" stroke="#6029AC" stroke-width="2"/>
<path d="M36.7434 41.73V40.08C36.7434 39.64 36.7634 39.27 36.8034 38.97C36.8634 38.65 36.9534 38.37 37.0734 38.13C37.2134 37.87 37.3834 37.63 37.5834 37.41C37.8034 37.17 38.0634 36.89 38.3634 36.57L40.6734 34.23C41.1734 33.73 41.4234 33.08 41.4234 32.28C41.4234 31.5 41.1634 30.87 40.6434 30.39C40.1434 29.89 39.5034 29.64 38.7234 29.64C37.8834 29.64 37.1934 29.93 36.6534 30.51C36.1134 31.07 35.8034 31.76 35.7234 32.58L31.8834 32.28C32.0034 31.32 32.2534 30.47 32.6334 29.73C33.0134 28.97 33.5034 28.33 34.1034 27.81C34.7234 27.29 35.4334 26.9 36.2334 26.64C37.0334 26.36 37.9134 26.22 38.8734 26.22C39.7734 26.22 40.6034 26.35 41.3634 26.61C42.1434 26.87 42.8134 27.25 43.3734 27.75C43.9534 28.23 44.4034 28.84 44.7234 29.58C45.0434 30.3 45.2034 31.13 45.2034 32.07C45.2034 32.73 45.1134 33.31 44.9334 33.81C44.7534 34.31 44.5134 34.77 44.2134 35.19C43.9134 35.61 43.5634 36.01 43.1634 36.39C42.7834 36.77 42.3734 37.17 41.9334 37.59C41.6534 37.85 41.4134 38.08 41.2134 38.28C41.0134 38.48 40.8434 38.69 40.7034 38.91C40.5834 39.11 40.4934 39.35 40.4334 39.63C40.3734 39.89 40.3434 40.21 40.3434 40.59V41.73H36.7434ZM36.1434 45.9C36.1434 45.26 36.3734 44.71 36.8334 44.25C37.3134 43.79 37.8834 43.56 38.5434 43.56C39.1834 43.56 39.7434 43.78 40.2234 44.22C40.7034 44.66 40.9434 45.2 40.9434 45.84C40.9434 46.48 40.7034 47.03 40.2234 47.49C39.7634 47.95 39.2034 48.18 38.5434 48.18C38.2234 48.18 37.9134 48.12 37.6134 48C37.3334 47.88 37.0834 47.72 36.8634 47.52C36.6434 47.32 36.4634 47.08 36.3234 46.8C36.2034 46.52 36.1434 46.22 36.1434 45.9Z" fill="#6029AC"/>
</g>
</svg>
