<svg width="24" height="26" viewBox="0 0 24 26" xmlns="http://www.w3.org/2000/svg">
    <defs>
        <rect id="cs2oxu91sa" x="0" y="0" width="6.14" height="6.14" rx="3.07"/>
    </defs>
    <g transform="translate(0 1)" fill="none" fill-rule="evenodd">
        <path d="M8.999 20.42h5.175c.952 0 1.723.772 1.723 1.724H7.275c0-.952.772-1.724 1.724-1.724z" stroke="#6029AC" stroke-width=".5"/>
        <path d="M7.917 22.011h7.339c1.098 0 1.989.89 1.989 1.989H5.928c0-1.098.89-1.989 1.989-1.989z" stroke="#6029AC" stroke-width=".5"/>
        <rect stroke="#6029AC" stroke-width=".75" x="3.099" width="16.975" height="2.254" rx="1.127"/>
        <path d="M18.621 2.63v7.398c0 1.924-.78 3.666-2.04 4.926a6.946 6.946 0 0 1-4.927 2.041 6.946 6.946 0 0 1-4.927-2.04 6.946 6.946 0 0 1-2.04-4.927V2.629H18.62z" stroke="#6029AC" stroke-width=".75"/>
        <path stroke="#6029AC" stroke-width=".5" d="M10.374 17.37h2.29l.674 3.05H9.7z"/>
        <path d="M18.996 3.978h.136a4.31 4.31 0 0 1 0 8.619h-.136v-1.319h.108a2.991 2.991 0 1 0 0-5.982h-.108V3.978zM4.446 3.978h-.137a4.31 4.31 0 0 0 0 8.619h.137v-1.319h-.108a2.991 2.991 0 1 1 0-5.982h.108V3.978z" fill="#6029AC"/>
        <rect stroke="#6029AC" stroke-width=".5" x="-.25" y="-.25" width="6.64" height="6.64" rx="3.32" transform="translate(8.651 6.14)"/>
        <path fill="#6029AC" d="m11.86 10.256-1.394.733.266-1.553-1.128-1.1 1.56-.226.696-1.412.698 1.412 1.558.227-1.128 1.1.267 1.552z"/>
    </g>
</svg>
