<svg width="23" height="25" viewBox="0 0 23 25" xmlns="http://www.w3.org/2000/svg">
    <g fill="none" fill-rule="evenodd">
        <ellipse stroke="#6029AC" cx="11.768" cy="12.5" rx="6.694" ry="6.75"/>
        <path d="m17.431 3.476.04.002a.837.837 0 0 1 .417.15c2.927 2.001 4.68 5.351 4.679 8.934a10.86 10.86 0 0 1-2.86 7.354c-1.84 2-4.424 3.293-7.329 3.415l-.036.666-2.853-1.425 2.562-2.234.576 1.248a8.837 8.837 0 0 0 5.173-2.19 9.06 9.06 0 0 0 2.804-4.639 9.168 9.168 0 0 0-.324-5.431 9.02 9.02 0 0 0-3.338-4.264.876.876 0 0 1-.235-1.208c.47-.36.618-.388.764-.376zM11.687.567l2.487 2.419L11.01 4.67l-.366-1.184a9.062 9.062 0 0 0-5.487 2.271 9.144 9.144 0 0 0 1.518 14.766.877.877 0 0 1-.207 1.592.86.86 0 0 1-.643-.065A10.903 10.903 0 0 1 .702 9.854a10.865 10.865 0 0 1 3.826-5.84 10.792 10.792 0 0 1 6.836-2.295l.323-1.152z" stroke="#FFF" stroke-width=".7" fill="#6029AC" fill-rule="nonzero"/>
        <path d="M13.3 11.637h-.525a1.697 1.697 0 0 0-.425-1.013h.953c.179 0 .323-.14.323-.312a.318.318 0 0 0-.323-.312h-3.07a.329.329 0 0 0-.23.093.307.307 0 0 0-.093.224c0 .173.145.312.323.312h.688c.389.005.754.18.993.477.117.158.19.343.213.536h-1.894a.318.318 0 0 0-.323.312c0 .172.145.312.323.312h1.796a1.584 1.584 0 0 1-.325.47c-.386.35-.906.53-1.434.492a.32.32 0 0 0-.315.177.302.302 0 0 0 .057.348l2.364 2.4a.337.337 0 0 0 .46.013.307.307 0 0 0 0-.444l-1.9-1.928a2.26 2.26 0 0 0 1.77-1.523h.594c.179 0 .323-.14.323-.312a.318.318 0 0 0-.323-.312v-.01z" fill="#6029AC" fill-rule="nonzero"/>
    </g>
</svg>
