<svg width="32" height="33" viewBox="0 0 32 33" fill="none" xmlns="http://www.w3.org/2000/svg">
<circle cx="16" cy="16.9062" r="16" fill="black"/>
<path d="M15.7962 11.5375C15.891 11.284 16.2673 11.284 16.3621 11.5375C16.763 12.6098 17.5337 14.4746 18.3044 15.2563C19.0772 16.04 20.8231 16.8238 21.8178 17.2295C22.0607 17.3286 22.0607 17.6982 21.8178 17.7973C20.823 18.203 19.0772 18.9868 18.3044 19.7704C17.5337 20.5522 16.763 22.417 16.3621 23.4892C16.2673 23.7427 15.891 23.7427 15.7962 23.4892C15.3953 22.417 14.6246 20.5522 13.8539 19.7704C13.0831 18.9887 11.2446 18.2071 10.1875 17.8004C9.93751 17.7043 9.93751 17.3226 10.1875 17.2265C11.2446 16.8197 13.0831 16.038 13.8539 15.2563C14.6246 14.4746 15.3953 12.6098 15.7962 11.5375Z" fill="url(#paint0_linear_21382_51139)"/>
<path d="M22.1285 10.0864C22.2283 9.8462 22.6036 9.8462 22.7034 10.0864C22.9106 10.5855 23.2047 11.1989 23.4986 11.4929C23.7944 11.7887 24.3834 12.0845 24.8569 12.292C25.0902 12.3943 25.0902 12.7569 24.8569 12.8592C24.3834 13.0666 23.7944 13.3624 23.4986 13.6583C23.2047 13.9523 22.9106 14.5656 22.7034 15.0647C22.6036 15.3049 22.2283 15.3049 22.1285 15.0647C21.9212 14.5656 21.6272 13.9523 21.3332 13.6583C21.0392 13.3643 20.4258 13.0703 19.9267 12.863C19.6865 12.7632 19.6865 12.3879 19.9267 12.2882C20.4258 12.0809 21.0392 11.7869 21.3332 11.4929C21.6272 11.1989 21.9212 10.5855 22.1285 10.0864Z" fill="url(#paint1_linear_21382_51139)"/>
<path d="M9.95249 10.5246C10.0614 10.2884 10.4437 10.2884 10.5526 10.5246C10.6762 10.7928 10.8253 11.065 10.9743 11.2141C11.1254 11.3651 11.3911 11.5162 11.6491 11.6407C11.8784 11.7516 11.8784 12.1202 11.6491 12.231C11.3911 12.3556 11.1254 12.5066 10.9743 12.6577C10.8253 12.8067 10.6762 13.0789 10.5526 13.3471C10.4437 13.5834 10.0614 13.5834 9.95249 13.3471C9.82885 13.0789 9.67978 12.8067 9.53072 12.6577C9.38165 12.5086 9.10944 12.3595 8.84124 12.2359C8.60501 12.127 8.605 11.7447 8.84123 11.6358C9.10943 11.5122 9.38165 11.3631 9.53072 11.2141C9.67978 11.065 9.82885 10.7928 9.95249 10.5246Z" fill="url(#paint2_linear_21382_51139)"/>
<defs>
<linearGradient id="paint0_linear_21382_51139" x1="9.82243" y1="11.3474" x2="22.836" y2="12.7171" gradientUnits="userSpaceOnUse">
<stop stop-color="#C4B4F6"/>
<stop offset="0.341451" stop-color="#B0D4EA"/>
<stop offset="0.681056" stop-color="#BFEECF"/>
<stop offset="1" stop-color="#F7F9D2"/>
</linearGradient>
<linearGradient id="paint1_linear_21382_51139" x1="19.6684" y1="9.90625" x2="25.3979" y2="10.5198" gradientUnits="userSpaceOnUse">
<stop stop-color="#C4B4F6"/>
<stop offset="0.341451" stop-color="#B0D4EA"/>
<stop offset="0.681056" stop-color="#BFEECF"/>
<stop offset="1" stop-color="#F7F9D2"/>
</linearGradient>
<linearGradient id="paint2_linear_21382_51139" x1="8.61735" y1="10.3474" x2="12.0394" y2="10.7152" gradientUnits="userSpaceOnUse">
<stop stop-color="#C4B4F6"/>
<stop offset="0.341451" stop-color="#B0D4EA"/>
<stop offset="0.681056" stop-color="#BFEECF"/>
<stop offset="1" stop-color="#F7F9D2"/>
</linearGradient>
</defs>
</svg>
