<svg width="21" height="21" viewBox="0 0 21 21" fill="none" xmlns="http://www.w3.org/2000/svg">
<circle cx="10.0342" cy="10.6769" r="10" fill="#E5E5F4"/>
<path d="M9.90415 6.93438C9.96437 6.77562 10.2034 6.77562 10.2636 6.93438C10.5183 7.60591 11.0079 8.77373 11.4975 9.26328C11.9884 9.75413 13.0975 10.245 13.7293 10.4991C13.8836 10.5611 13.8836 10.7926 13.7293 10.8546C13.0974 11.1087 11.9884 11.5996 11.4975 12.0903C11.0079 12.5799 10.5183 13.7478 10.2636 14.4193C10.2034 14.578 9.96437 14.578 9.90415 14.4193C9.64949 13.7478 9.1599 12.5799 8.67031 12.0903C8.18071 11.6008 7.01282 11.1113 6.34126 10.8566C6.18247 10.7964 6.18247 10.5574 6.34125 10.4972C7.01281 10.2424 8.18071 9.75286 8.67031 9.26328C9.1599 8.77373 9.64949 7.60591 9.90415 6.93438Z" fill="black"/>
</svg>
