<svg width="102" height="33" viewBox="0 0 102 33" fill="none" xmlns="http://www.w3.org/2000/svg">
<path d="M16.9668 0.865723H85.9668C94.5272 0.865723 101.467 7.80531 101.467 16.3657C101.467 24.9261 94.5272 31.8657 85.9668 31.8657H16.9668C8.40638 31.8657 1.4668 24.9261 1.4668 16.3657C1.4668 7.80531 8.40638 0.865723 16.9668 0.865723Z" fill="#C4B4F6" fill-opacity="0.2" stroke="#6725F4"/>
<path d="M13.8768 16.8257H16.7808L15.3528 12.8297H15.3288L13.8768 16.8257ZM14.7288 11.7977H15.9888L19.3368 20.3657H18.0768L17.1408 17.7857H13.5168L12.5568 20.3657H11.3928L14.7288 11.7977ZM20.6381 18.4097C20.6461 18.6337 20.6981 18.8257 20.7941 18.9857C20.8901 19.1377 21.0141 19.2617 21.1661 19.3577C21.3261 19.4457 21.5021 19.5097 21.6941 19.5497C21.8941 19.5897 22.0981 19.6097 22.3061 19.6097C22.4661 19.6097 22.6341 19.5977 22.8101 19.5737C22.9861 19.5497 23.1461 19.5057 23.2901 19.4417C23.4421 19.3777 23.5661 19.2857 23.6621 19.1657C23.7581 19.0377 23.8061 18.8777 23.8061 18.6857C23.8061 18.4217 23.7061 18.2217 23.5061 18.0857C23.3061 17.9497 23.0541 17.8417 22.7501 17.7617C22.4541 17.6737 22.1301 17.5977 21.7781 17.5337C21.4261 17.4617 21.0981 17.3657 20.7941 17.2457C20.4981 17.1177 20.2501 16.9417 20.0501 16.7177C19.8501 16.4937 19.7501 16.1817 19.7501 15.7817C19.7501 15.4697 19.8181 15.2017 19.9541 14.9777C20.0981 14.7537 20.2781 14.5737 20.4941 14.4377C20.7181 14.2937 20.9661 14.1897 21.2381 14.1257C21.5181 14.0537 21.7941 14.0177 22.0661 14.0177C22.4181 14.0177 22.7421 14.0497 23.0381 14.1137C23.3341 14.1697 23.5941 14.2737 23.8181 14.4257C24.0501 14.5697 24.2341 14.7697 24.3701 15.0257C24.5061 15.2737 24.5861 15.5857 24.6101 15.9617H23.5901C23.5741 15.7617 23.5221 15.5977 23.4341 15.4697C23.3461 15.3337 23.2341 15.2257 23.0981 15.1457C22.9621 15.0657 22.8101 15.0097 22.6421 14.9777C22.4821 14.9377 22.3181 14.9177 22.1501 14.9177C21.9981 14.9177 21.8421 14.9297 21.6821 14.9537C21.5301 14.9777 21.3901 15.0217 21.2621 15.0857C21.1341 15.1417 21.0301 15.2217 20.9501 15.3257C20.8701 15.4217 20.8301 15.5497 20.8301 15.7097C20.8301 15.8857 20.8901 16.0337 21.0101 16.1537C21.1381 16.2657 21.2981 16.3617 21.4901 16.4417C21.6821 16.5137 21.8981 16.5777 22.1381 16.6337C22.3781 16.6817 22.6181 16.7337 22.8581 16.7897C23.1141 16.8457 23.3621 16.9137 23.6021 16.9937C23.8501 17.0737 24.0661 17.1817 24.2501 17.3177C24.4421 17.4457 24.5941 17.6097 24.7061 17.8097C24.8261 18.0097 24.8861 18.2577 24.8861 18.5537C24.8861 18.9297 24.8061 19.2417 24.6461 19.4897C24.4941 19.7377 24.2901 19.9377 24.0341 20.0897C23.7861 20.2417 23.5021 20.3457 23.1821 20.4017C22.8701 20.4657 22.5581 20.4977 22.2461 20.4977C21.9021 20.4977 21.5741 20.4617 21.2621 20.3897C20.9501 20.3177 20.6741 20.2017 20.4341 20.0417C20.1941 19.8737 20.0021 19.6577 19.8581 19.3937C19.7141 19.1217 19.6341 18.7937 19.6181 18.4097H20.6381ZM26.0741 11.7977H27.0941V16.8737L29.9261 14.1617H31.2941L28.8341 16.4177L31.4741 20.3657H30.1781L28.0541 17.1257L27.0941 18.0137V20.3657H26.0741V11.7977ZM43.4846 20.3657H42.2966L40.3406 13.1657H40.3166L38.3366 20.3657H37.1486L34.9526 11.7977H36.1166L37.7966 18.9257H37.8206L39.7406 11.7977H40.9766L42.8726 18.9257H42.8966L44.6366 11.7977H45.7766L43.4846 20.3657ZM50.3143 16.6697C50.2983 16.4297 50.2423 16.2017 50.1463 15.9857C50.0583 15.7697 49.9343 15.5857 49.7743 15.4337C49.6223 15.2737 49.4383 15.1497 49.2223 15.0617C49.0143 14.9657 48.7823 14.9177 48.5263 14.9177C48.2623 14.9177 48.0223 14.9657 47.8063 15.0617C47.5983 15.1497 47.4183 15.2737 47.2663 15.4337C47.1143 15.5937 46.9943 15.7817 46.9063 15.9977C46.8183 16.2057 46.7663 16.4297 46.7503 16.6697H50.3143ZM51.2983 18.3977C51.1623 19.0937 50.8623 19.6177 50.3983 19.9697C49.9343 20.3217 49.3503 20.4977 48.6463 20.4977C48.1503 20.4977 47.7183 20.4177 47.3503 20.2577C46.9903 20.0977 46.6863 19.8737 46.4383 19.5857C46.1903 19.2977 46.0023 18.9537 45.8743 18.5537C45.7543 18.1537 45.6863 17.7177 45.6703 17.2457C45.6703 16.7737 45.7423 16.3417 45.8863 15.9497C46.0303 15.5577 46.2303 15.2177 46.4863 14.9297C46.7503 14.6417 47.0583 14.4177 47.4103 14.2577C47.7703 14.0977 48.1623 14.0177 48.5863 14.0177C49.1383 14.0177 49.5943 14.1337 49.9543 14.3657C50.3223 14.5897 50.6143 14.8777 50.8303 15.2297C51.0543 15.5817 51.2063 15.9657 51.2863 16.3817C51.3743 16.7977 51.4103 17.1937 51.3943 17.5697H46.7503C46.7423 17.8417 46.7743 18.1017 46.8463 18.3497C46.9183 18.5897 47.0343 18.8057 47.1943 18.9977C47.3543 19.1817 47.5583 19.3297 47.8063 19.4417C48.0543 19.5537 48.3463 19.6097 48.6823 19.6097C49.1143 19.6097 49.4663 19.5097 49.7383 19.3097C50.0183 19.1097 50.2023 18.8057 50.2903 18.3977H51.2983ZM57.9476 20.3417C57.7716 20.4457 57.5276 20.4977 57.2156 20.4977C56.9516 20.4977 56.7396 20.4257 56.5796 20.2817C56.4276 20.1297 56.3516 19.8857 56.3516 19.5497C56.0716 19.8857 55.7436 20.1297 55.3676 20.2817C54.9996 20.4257 54.5996 20.4977 54.1676 20.4977C53.8876 20.4977 53.6196 20.4657 53.3636 20.4017C53.1156 20.3377 52.8996 20.2377 52.7156 20.1017C52.5316 19.9657 52.3836 19.7897 52.2716 19.5737C52.1676 19.3497 52.1156 19.0817 52.1156 18.7697C52.1156 18.4177 52.1756 18.1297 52.2956 17.9057C52.4156 17.6817 52.5716 17.5017 52.7636 17.3657C52.9636 17.2217 53.1876 17.1137 53.4356 17.0417C53.6916 16.9697 53.9516 16.9097 54.2156 16.8617C54.4956 16.8057 54.7596 16.7657 55.0076 16.7417C55.2636 16.7097 55.4876 16.6697 55.6796 16.6217C55.8716 16.5657 56.0236 16.4897 56.1356 16.3937C56.2476 16.2897 56.3036 16.1417 56.3036 15.9497C56.3036 15.7257 56.2596 15.5457 56.1716 15.4097C56.0916 15.2737 55.9836 15.1697 55.8476 15.0977C55.7196 15.0257 55.5716 14.9777 55.4036 14.9537C55.2436 14.9297 55.0836 14.9177 54.9236 14.9177C54.4916 14.9177 54.1316 15.0017 53.8436 15.1697C53.5556 15.3297 53.3996 15.6377 53.3756 16.0937H52.3556C52.3716 15.7097 52.4516 15.3857 52.5956 15.1217C52.7396 14.8577 52.9316 14.6457 53.1716 14.4857C53.4116 14.3177 53.6836 14.1977 53.9876 14.1257C54.2996 14.0537 54.6316 14.0177 54.9836 14.0177C55.2636 14.0177 55.5396 14.0377 55.8116 14.0777C56.0916 14.1177 56.3436 14.2017 56.5676 14.3297C56.7916 14.4497 56.9716 14.6217 57.1076 14.8457C57.2436 15.0697 57.3116 15.3617 57.3116 15.7217V18.9137C57.3116 19.1537 57.3236 19.3297 57.3476 19.4417C57.3796 19.5537 57.4756 19.6097 57.6356 19.6097C57.7236 19.6097 57.8276 19.5897 57.9476 19.5497V20.3417ZM56.2916 17.1617C56.1636 17.2577 55.9956 17.3297 55.7876 17.3777C55.5796 17.4177 55.3596 17.4537 55.1276 17.4857C54.9036 17.5097 54.6756 17.5417 54.4436 17.5817C54.2116 17.6137 54.0036 17.6697 53.8196 17.7497C53.6356 17.8297 53.4836 17.9457 53.3636 18.0977C53.2516 18.2417 53.1956 18.4417 53.1956 18.6977C53.1956 18.8657 53.2276 19.0097 53.2916 19.1297C53.3636 19.2417 53.4516 19.3337 53.5556 19.4057C53.6676 19.4777 53.7956 19.5297 53.9396 19.5617C54.0836 19.5937 54.2356 19.6097 54.3956 19.6097C54.7316 19.6097 55.0196 19.5657 55.2596 19.4777C55.4996 19.3817 55.6956 19.2657 55.8476 19.1297C55.9996 18.9857 56.1116 18.8337 56.1836 18.6737C56.2556 18.5057 56.2916 18.3497 56.2916 18.2057V17.1617ZM58.9569 11.7977H59.9769V20.3657H58.9569V11.7977ZM62.9731 14.1617H64.2091V15.0617H62.9731V18.9137C62.9731 19.0337 62.9811 19.1297 62.9971 19.2017C63.0211 19.2737 63.0611 19.3297 63.1171 19.3697C63.1731 19.4097 63.2491 19.4377 63.3451 19.4537C63.4491 19.4617 63.5811 19.4657 63.7411 19.4657H64.2091V20.3657H63.4291C63.1651 20.3657 62.9371 20.3497 62.7451 20.3177C62.5611 20.2777 62.4091 20.2097 62.2891 20.1137C62.1771 20.0177 62.0931 19.8817 62.0371 19.7057C61.9811 19.5297 61.9531 19.2977 61.9531 19.0097V15.0617H60.8971V14.1617H61.9531V12.3017H62.9731V14.1617ZM65.3422 11.7977H66.3622V15.0737H66.3862C66.4662 14.8817 66.5782 14.7217 66.7222 14.5937C66.8662 14.4577 67.0262 14.3497 67.2022 14.2697C67.3862 14.1817 67.5742 14.1177 67.7662 14.0777C67.9662 14.0377 68.1582 14.0177 68.3422 14.0177C68.7502 14.0177 69.0902 14.0737 69.3622 14.1857C69.6342 14.2977 69.8542 14.4537 70.0222 14.6537C70.1902 14.8537 70.3062 15.0937 70.3702 15.3737C70.4422 15.6457 70.4782 15.9497 70.4782 16.2857V20.3657H69.4582V16.1657C69.4582 15.7817 69.3462 15.4777 69.1222 15.2537C68.8982 15.0297 68.5902 14.9177 68.1982 14.9177C67.8862 14.9177 67.6142 14.9657 67.3822 15.0617C67.1582 15.1577 66.9702 15.2937 66.8182 15.4697C66.6662 15.6457 66.5502 15.8537 66.4702 16.0937C66.3982 16.3257 66.3622 16.5817 66.3622 16.8617V20.3657H65.3422V11.7977ZM74.4462 21.1937C74.3262 21.4977 74.2062 21.7537 74.0862 21.9617C73.9742 22.1697 73.8462 22.3377 73.7022 22.4657C73.5662 22.6017 73.4102 22.6977 73.2342 22.7537C73.0662 22.8177 72.8702 22.8497 72.6462 22.8497C72.5262 22.8497 72.4062 22.8417 72.2862 22.8257C72.1662 22.8097 72.0502 22.7817 71.9382 22.7417V21.8057C72.0262 21.8457 72.1262 21.8777 72.2382 21.9017C72.3582 21.9337 72.4582 21.9497 72.5382 21.9497C72.7462 21.9497 72.9182 21.8977 73.0542 21.7937C73.1982 21.6977 73.3062 21.5577 73.3782 21.3737L73.7982 20.3297L71.3382 14.1617H72.4902L74.3022 19.2377H74.3262L76.0662 14.1617H77.1462L74.4462 21.1937ZM82.994 16.8257H85.898L84.47 12.8297H84.446L82.994 16.8257ZM83.846 11.7977H85.106L88.454 20.3657H87.194L86.258 17.7857H82.634L81.674 20.3657H80.51L83.846 11.7977ZM89.3473 11.7977H90.4873V20.3657H89.3473V11.7977Z" fill="#6725F4"/>
</svg>
