<svg width="116" height="36" viewBox="0 0 116 36" fill="none" xmlns="http://www.w3.org/2000/svg">
<path d="M0 18C0 8.05888 8.05887 0 18 0H98C107.941 0 116 8.05888 116 18C116 27.9411 107.941 36 98 36H18C8.05887 36 0 27.9411 0 18Z" fill="black"/>
<path d="M41.3432 23.2749H39.6232L37.3832 14.3069H37.6472L35.3992 23.2749H33.6792L31.4552 12.7149H33.0152L34.6232 21.4909H34.5992L36.8872 12.7149H38.1352L40.4232 21.4909H40.3992L42.0152 12.7149H43.5672L41.3432 23.2749ZM45.575 20.2749C45.5804 20.6696 45.6657 21.0296 45.831 21.3549C45.9964 21.6802 46.2417 21.9389 46.567 22.1309C46.8977 22.3229 47.303 22.4189 47.783 22.4189C48.1884 22.4189 48.5324 22.3602 48.815 22.2429C49.103 22.1202 49.3377 21.9762 49.519 21.8109C49.7004 21.6402 49.831 21.4882 49.911 21.3549L50.591 22.1949C50.415 22.4509 50.199 22.6749 49.943 22.8669C49.6924 23.0589 49.3857 23.2056 49.023 23.3069C48.6604 23.4136 48.2177 23.4669 47.695 23.4669C46.991 23.4669 46.3804 23.3176 45.863 23.0189C45.351 22.7149 44.9564 22.2962 44.679 21.7629C44.4017 21.2242 44.263 20.6082 44.263 19.9149C44.263 19.2749 44.3937 18.6989 44.655 18.1869C44.9164 17.6696 45.295 17.2616 45.791 16.9629C46.2924 16.6642 46.895 16.5149 47.599 16.5149C48.2444 16.5149 48.8044 16.6509 49.279 16.9229C49.759 17.1896 50.1297 17.5682 50.391 18.0589C50.6577 18.5496 50.791 19.1362 50.791 19.8189C50.791 19.8616 50.7884 19.9389 50.783 20.0509C50.7777 20.1576 50.7724 20.2322 50.767 20.2749H45.575ZM49.463 19.2269C49.4577 19.0082 49.3937 18.7682 49.271 18.5069C49.1537 18.2456 48.9617 18.0216 48.695 17.8349C48.4284 17.6482 48.0684 17.5549 47.615 17.5549C47.1457 17.5549 46.767 17.6456 46.479 17.8269C46.1964 18.0082 45.9884 18.2296 45.855 18.4909C45.7217 18.7469 45.6444 18.9922 45.623 19.2269H49.463ZM57.608 23.2749V21.9949C57.5654 22.1282 57.44 22.3122 57.232 22.5469C57.0294 22.7816 56.7494 22.9949 56.392 23.1869C56.04 23.3736 55.624 23.4669 55.144 23.4669C54.536 23.4669 53.984 23.3229 53.488 23.0349C52.9974 22.7469 52.6054 22.3442 52.312 21.8269C52.024 21.3042 51.88 20.6936 51.88 19.9949C51.88 19.2962 52.024 18.6882 52.312 18.1709C52.6054 17.6482 52.9974 17.2429 53.488 16.9549C53.984 16.6616 54.536 16.5149 55.144 16.5149C55.6187 16.5149 56.0294 16.6002 56.376 16.7709C56.728 16.9416 57.008 17.1389 57.216 17.3629C57.4294 17.5869 57.5547 17.7789 57.592 17.9389V16.7069H58.968V23.2749H57.608ZM53.256 19.9949C53.256 20.4696 53.36 20.8802 53.568 21.2269C53.776 21.5736 54.0454 21.8429 54.376 22.0349C54.712 22.2216 55.0694 22.3149 55.448 22.3149C55.8534 22.3149 56.216 22.2189 56.536 22.0269C56.856 21.8349 57.1094 21.5656 57.296 21.2189C57.4827 20.8669 57.576 20.4589 57.576 19.9949C57.576 19.5309 57.4827 19.1256 57.296 18.7789C57.1094 18.4269 56.856 18.1549 56.536 17.9629C56.216 17.7656 55.8534 17.6669 55.448 17.6669C55.0694 17.6669 54.712 17.7629 54.376 17.9549C54.0454 18.1469 53.776 18.4162 53.568 18.7629C53.36 19.1096 53.256 19.5202 53.256 19.9949ZM62.276 23.2749H60.876V12.2669H62.276V23.2749ZM63.7212 16.7069H65.0092V14.0109H66.3932V16.7069H68.0812V17.8989H66.3932V21.1469C66.3932 21.5309 66.4598 21.8136 66.5932 21.9949C66.7318 22.1762 66.9158 22.2669 67.1452 22.2669C67.3478 22.2669 67.5052 22.2296 67.6172 22.1549C67.7292 22.0802 67.7958 22.0296 67.8172 22.0029L68.3692 23.0269C68.3372 23.0536 68.2518 23.1042 68.1132 23.1789C67.9745 23.2536 67.7958 23.3202 67.5772 23.3789C67.3585 23.4376 67.1025 23.4669 66.8092 23.4669C66.2972 23.4669 65.8678 23.3122 65.5212 23.0029C65.1798 22.6882 65.0092 22.1922 65.0092 21.5149V17.8989H63.7212V16.7069ZM73.298 16.5149C73.73 16.5149 74.1487 16.6056 74.554 16.7869C74.9647 16.9682 75.3007 17.2562 75.562 17.6509C75.8287 18.0402 75.962 18.5496 75.962 19.1789V23.2749H74.554V19.4509C74.554 18.8002 74.4047 18.3282 74.106 18.0349C73.8127 17.7362 73.426 17.5869 72.946 17.5869C72.626 17.5869 72.3194 17.6776 72.026 17.8589C71.7327 18.0349 71.49 18.2802 71.298 18.5949C71.1114 18.9042 71.018 19.2562 71.018 19.6509V23.2749H69.61V12.2669H71.018V17.8749C71.066 17.6936 71.194 17.4962 71.402 17.2829C71.6154 17.0696 71.8874 16.8882 72.218 16.7389C72.5487 16.5896 72.9087 16.5149 73.298 16.5149ZM80.5717 22.0029L82.7877 16.7069H84.1797L79.7477 26.6029H78.3397L79.8277 23.2749L77.1237 16.7069H78.5397L80.5717 22.0029ZM92.4587 12.7149H93.8827L97.7867 23.2749H96.3227L95.4107 20.7309H90.9307L90.0027 23.2749H88.5387L92.4587 12.7149ZM91.3707 19.4989H94.9787L93.1867 14.3949H93.1627L91.3707 19.4989ZM99.0349 12.7149H100.411V23.2749H99.0349V12.7149Z" fill="url(#paint0_linear_21382_67416)"/>
<path d="M17.025 12.87C17.1268 12.6016 17.5309 12.6016 17.6327 12.87C18.0632 14.0053 18.8909 15.9795 19.7185 16.8071C20.5483 17.637 22.4233 18.4668 23.4915 18.8963C23.7523 19.0012 23.7523 19.3925 23.4915 19.4974C22.4232 19.927 20.5483 20.7568 19.7185 21.5865C18.8909 22.4141 18.0632 24.3885 17.6327 25.5237C17.5309 25.792 17.1268 25.792 17.025 25.5237C16.5945 24.3885 15.7668 22.4141 14.9391 21.5865C14.1115 20.7588 12.1371 19.9313 11.0019 19.5008C10.7334 19.399 10.7334 18.9949 11.0018 18.8931C12.1371 18.4625 14.1115 17.6348 14.9391 16.8071C15.7668 15.9795 16.5945 14.0053 17.025 12.87Z" fill="url(#paint1_linear_21382_67416)"/>
<path d="M22.9872 10.4737C23.0974 10.2086 23.5115 10.2086 23.6217 10.4737C23.8504 11.0245 24.1749 11.7014 24.4993 12.0259C24.8258 12.3523 25.4758 12.6788 25.9983 12.9078C26.2558 13.0206 26.2558 13.4208 25.9983 13.5337C25.4758 13.7626 24.8258 14.0891 24.4993 14.4155C24.1749 14.74 23.8504 15.4168 23.6217 15.9677C23.5115 16.2327 23.0974 16.2327 22.9872 15.9677C22.7586 15.4168 22.434 14.74 22.1096 14.4155C21.7851 14.0911 21.1082 13.7666 20.5574 13.5379C20.2924 13.4278 20.2924 13.0136 20.5574 12.9035C21.1082 12.6748 21.7851 12.3503 22.1096 12.0259C22.434 11.7014 22.7586 11.0245 22.9872 10.4737Z" fill="url(#paint2_linear_21382_67416)"/>
<path d="M11.4221 12.0608C11.5423 11.8001 11.9642 11.8001 12.0844 12.0608C12.2208 12.3567 12.3853 12.6571 12.5498 12.8216C12.7165 12.9883 13.0098 13.155 13.2944 13.2925C13.5476 13.4148 13.5476 13.8216 13.2944 13.9439C13.0098 14.0814 12.7165 14.2481 12.5498 14.4148C12.3853 14.5793 12.2208 14.8797 12.0844 15.1757C11.9642 15.4364 11.5423 15.4364 11.4221 15.1757C11.2857 14.8797 11.1212 14.5793 10.9567 14.4148C10.7922 14.2503 10.4918 14.0858 10.1958 13.9493C9.93507 13.8292 9.93506 13.4073 10.1958 13.2871C10.4917 13.1507 10.7922 12.9861 10.9567 12.8216C11.1212 12.6571 11.2857 12.3567 11.4221 12.0608Z" fill="url(#paint3_linear_21382_67416)"/>
<defs>
<linearGradient id="paint0_linear_21382_67416" x1="31.1912" y1="19.0905" x2="104.751" y2="19.0905" gradientUnits="userSpaceOnUse">
<stop stop-color="#C4B4F6"/>
<stop offset="0.317377" stop-color="#B0D4EA"/>
<stop offset="0.61517" stop-color="#BFEECF"/>
<stop offset="1" stop-color="#F7F9D2"/>
</linearGradient>
<linearGradient id="paint1_linear_21382_67416" x1="10.6098" y1="12.6687" x2="24.5805" y2="14.1602" gradientUnits="userSpaceOnUse">
<stop stop-color="#C4B4F6"/>
<stop offset="0.341451" stop-color="#B0D4EA"/>
<stop offset="0.681056" stop-color="#BFEECF"/>
<stop offset="1" stop-color="#F7F9D2"/>
</linearGradient>
<linearGradient id="paint2_linear_21382_67416" x1="20.2723" y1="10.2749" x2="26.5953" y2="10.952" gradientUnits="userSpaceOnUse">
<stop stop-color="#C4B4F6"/>
<stop offset="0.341451" stop-color="#B0D4EA"/>
<stop offset="0.681056" stop-color="#BFEECF"/>
<stop offset="1" stop-color="#F7F9D2"/>
</linearGradient>
<linearGradient id="paint3_linear_21382_67416" x1="9.94869" y1="11.8652" x2="13.7253" y2="12.2712" gradientUnits="userSpaceOnUse">
<stop stop-color="#C4B4F6"/>
<stop offset="0.341451" stop-color="#B0D4EA"/>
<stop offset="0.681056" stop-color="#BFEECF"/>
<stop offset="1" stop-color="#F7F9D2"/>
</linearGradient>
</defs>
</svg>
