<svg width="20" height="20" viewBox="0 0 20 20" fill="none" xmlns="http://www.w3.org/2000/svg">
<path d="M8.67834 3.54555C8.8041 3.21398 9.30328 3.21398 9.42904 3.54555C9.96084 4.94797 10.9833 7.38683 12.0057 8.40921C13.0308 9.4343 15.3469 10.4594 16.6665 10.99C16.9887 11.1196 16.9887 11.603 16.6665 11.7326C15.3468 12.2632 13.0308 13.2883 12.0057 14.3132C10.9833 15.3357 9.96084 17.7746 9.42904 19.177C9.30328 19.5085 8.8041 19.5085 8.67834 19.177C8.14654 17.7746 7.12411 15.3357 6.1017 14.3132C5.07927 13.2908 2.64037 12.2685 1.23795 11.7367C0.906364 11.611 0.906364 11.1118 1.23793 10.986C2.64036 10.4541 5.07927 9.43164 6.1017 8.40921C7.12411 7.38683 8.14654 4.94797 8.67834 3.54555Z" fill="url(#paint0_linear_7106_28465)"/>
<path d="M16.0421 0.589361C16.1781 0.26188 16.6897 0.26188 16.8258 0.589361C17.1083 1.26979 17.5092 2.10594 17.9099 2.50675C18.3132 2.91003 19.1161 3.31332 19.7616 3.59619C20.0797 3.7356 20.0797 4.23001 19.7616 4.3694C19.1161 4.65225 18.3132 5.05551 17.9099 5.4588C17.5092 5.85959 17.1083 6.69575 16.8258 7.37617C16.6897 7.70365 16.1781 7.70365 16.0421 7.37617C15.7595 6.69575 15.3587 5.85959 14.9579 5.4588C14.557 5.05799 13.7209 4.65719 13.0405 4.37461C12.7131 4.23861 12.7131 3.727 13.0405 3.59097C13.7209 3.30837 14.557 2.90755 14.9579 2.50675C15.3587 2.10594 15.7595 1.26979 16.0421 0.589361Z" fill="url(#paint1_linear_7106_28465)"/>
<path d="M1.75647 2.55404C1.90492 2.23199 2.42607 2.23199 2.57453 2.55404C2.74307 2.91966 2.9463 3.29076 3.14952 3.49397C3.35544 3.69991 3.71769 3.90582 4.06932 4.07568C4.38204 4.22675 4.38204 4.72929 4.06932 4.88034C3.71768 5.05019 3.35544 5.2561 3.14952 5.46202C2.9463 5.66524 2.74307 6.03633 2.57453 6.40196C2.42607 6.72401 1.90492 6.72401 1.75647 6.40196C1.58791 6.03633 1.38469 5.66524 1.18148 5.46202C0.978261 5.2588 0.607165 5.05559 0.241544 4.88704C-0.0805048 4.73859 -0.0805196 4.21744 0.241529 4.06898C0.60715 3.90042 0.978261 3.69719 1.18148 3.49397C1.38469 3.29076 1.58791 2.91966 1.75647 2.55404Z" fill="url(#paint2_linear_7106_28465)"/>
<defs>
<linearGradient id="paint0_linear_7106_28465" x1="0.753698" y1="3.29688" x2="18.0118" y2="5.13926" gradientUnits="userSpaceOnUse">
<stop stop-color="#C4B4F6"/>
<stop offset="0.341451" stop-color="#B0D4EA"/>
<stop offset="0.681056" stop-color="#BFEECF"/>
<stop offset="1" stop-color="#F7F9D2"/>
</linearGradient>
<linearGradient id="paint1_linear_7106_28465" x1="12.6883" y1="0.343751" x2="20.4991" y2="1.18013" gradientUnits="userSpaceOnUse">
<stop stop-color="#C4B4F6"/>
<stop offset="0.341451" stop-color="#B0D4EA"/>
<stop offset="0.681056" stop-color="#BFEECF"/>
<stop offset="1" stop-color="#F7F9D2"/>
</linearGradient>
<linearGradient id="paint2_linear_7106_28465" x1="-0.0636866" y1="2.3125" x2="4.60152" y2="2.81394" gradientUnits="userSpaceOnUse">
<stop stop-color="#C4B4F6"/>
<stop offset="0.341451" stop-color="#B0D4EA"/>
<stop offset="0.681056" stop-color="#BFEECF"/>
<stop offset="1" stop-color="#F7F9D2"/>
</linearGradient>
</defs>
</svg> 